<svg width="44" height="44" viewBox="0 0 44 44" fill="none" xmlns="http://www.w3.org/2000/svg">
<rect width="44" height="44" rx="2" fill="#1F74D9" fill-opacity="0.15"/>
<path d="M16.27 30.5V28.432L22.012 23.46C22.6427 22.9027 23.1487 22.426 23.53 22.03C23.9113 21.6193 24.19 21.238 24.366 20.886C24.542 20.5193 24.63 20.1307 24.63 19.72C24.63 18.972 24.4027 18.3633 23.948 17.894C23.508 17.4247 22.892 17.19 22.1 17.19C21.1613 17.19 20.428 17.4467 19.9 17.96C19.3867 18.4587 19.13 19.2287 19.13 20.27H16.49C16.49 19.1847 16.7173 18.2387 17.172 17.432C17.6413 16.6107 18.294 15.98 19.13 15.54C19.966 15.0853 20.956 14.858 22.1 14.858C23.2147 14.858 24.1533 15.0707 24.916 15.496C25.6933 15.9067 26.28 16.4787 26.676 17.212C27.072 17.9453 27.27 18.7813 27.27 19.72C27.27 20.4093 27.1233 21.062 26.83 21.678C26.5367 22.2793 26.1333 22.8587 25.62 23.416C25.1213 23.9587 24.5347 24.494 23.86 25.022L19.944 28.212H27.49V30.5H16.27Z" fill="#1F74D9"/>
</svg>
