<svg width="44" height="44" viewBox="0 0 44 44" fill="none" xmlns="http://www.w3.org/2000/svg">
<rect width="44" height="44" rx="2" fill="#1F74D9" fill-opacity="0.15"/>
<path d="M21.38 30.742C20.192 30.742 19.1873 30.544 18.366 30.148C17.5593 29.752 16.9433 29.2093 16.518 28.52C16.0927 27.816 15.88 27.0093 15.88 26.1H18.52C18.52 26.8333 18.7473 27.4053 19.202 27.816C19.6713 28.212 20.3973 28.41 21.38 28.41C22.3333 28.41 23.0447 28.212 23.514 27.816C23.998 27.4053 24.24 26.8333 24.24 26.1C24.24 25.352 24.02 24.7653 23.58 24.34C23.14 23.9 22.4067 23.68 21.38 23.68H19.84V21.48H21.38C22.26 21.48 22.92 21.2967 23.36 20.93C23.8 20.5487 24.02 20.006 24.02 19.302C24.02 18.598 23.8073 18.07 23.382 17.718C22.9713 17.366 22.304 17.19 21.38 17.19C20.4707 17.19 19.796 17.3733 19.356 17.74C18.9307 18.1067 18.718 18.62 18.718 19.28H16.078C16.078 18.3853 16.276 17.608 16.672 16.948C17.0827 16.288 17.684 15.7747 18.476 15.408C19.268 15.0413 20.236 14.858 21.38 14.858C22.5387 14.858 23.5067 15.0487 24.284 15.43C25.0613 15.7967 25.648 16.2953 26.044 16.926C26.4547 17.542 26.66 18.2313 26.66 18.994C26.66 19.874 26.4253 20.6147 25.956 21.216C25.4867 21.8027 24.8413 22.2207 24.02 22.47C24.9147 22.734 25.6113 23.1813 26.11 23.812C26.6233 24.428 26.88 25.264 26.88 26.32C26.88 27.1413 26.6673 27.8893 26.242 28.564C25.8313 29.2387 25.2153 29.774 24.394 30.17C23.5873 30.5513 22.5827 30.742 21.38 30.742Z" fill="#1F74D9"/>
</svg>
