<svg width="44" height="44" viewBox="0 0 44 44" fill="none" xmlns="http://www.w3.org/2000/svg">
<rect width="44" height="44" rx="2" fill="#1F74D9" fill-opacity="0.15"/>
<path d="M21.99 30.742C21.0807 30.742 20.296 30.6247 19.636 30.39C18.9907 30.1553 18.4553 29.84 18.03 29.444C17.6047 29.048 17.282 28.6007 17.062 28.102C16.8567 27.5887 16.7393 27.068 16.71 26.54H19.35C19.4233 27.068 19.68 27.5153 20.12 27.882C20.5747 28.234 21.198 28.41 21.99 28.41C22.8847 28.41 23.5813 28.146 24.08 27.618C24.5933 27.09 24.85 26.32 24.85 25.308C24.85 24.5453 24.7107 23.944 24.432 23.504C24.1533 23.0493 23.794 22.7267 23.354 22.536C22.914 22.3307 22.4593 22.228 21.99 22.228C21.3593 22.228 20.8313 22.338 20.406 22.558C19.9953 22.778 19.6653 23.0787 19.416 23.46H17.04V15.1H26.61V17.388H19.636V20.974C19.9733 20.6513 20.3693 20.3947 20.824 20.204C21.2787 19.9987 21.8507 19.896 22.54 19.896C23.5373 19.896 24.4027 20.1013 25.136 20.512C25.884 20.9227 26.4633 21.5313 26.874 22.338C27.2847 23.13 27.49 24.1127 27.49 25.286C27.49 26.4007 27.2553 27.3687 26.786 28.19C26.3313 28.9967 25.6933 29.6273 24.872 30.082C24.0507 30.522 23.09 30.742 21.99 30.742Z" fill="#1F74D9"/>
</svg>
