<svg width="44" height="44" viewBox="0 0 44 44" fill="none" xmlns="http://www.w3.org/2000/svg">
<rect width="44" height="44" rx="2" fill="#1F74D9" fill-opacity="0.15"/>
<path d="M22.04 30.742C20.2213 30.742 18.7913 30.17 17.75 29.026C16.7233 27.882 16.21 26.0633 16.21 23.57V23.13C16.21 21.1353 16.474 19.5367 17.002 18.334C17.53 17.1167 18.2487 16.2367 19.158 15.694C20.082 15.1367 21.116 14.858 22.26 14.858C23.14 14.858 23.91 14.99 24.57 15.254C25.2447 15.5033 25.7947 15.8993 26.22 16.442C26.66 16.97 26.9533 17.6593 27.1 18.51H24.46C24.2987 18.0407 24.0347 17.7033 23.668 17.498C23.3013 17.2927 22.832 17.19 22.26 17.19C21.6 17.19 20.9987 17.3367 20.456 17.63C19.928 17.9233 19.5027 18.4367 19.18 19.17C18.872 19.8887 18.7033 20.9153 18.674 22.25C19.0553 21.6047 19.6053 21.15 20.324 20.886C21.0573 20.6073 21.776 20.468 22.48 20.468C23.5213 20.468 24.4087 20.6587 25.142 21.04C25.8753 21.4213 26.44 21.9787 26.836 22.712C27.232 23.4307 27.43 24.318 27.43 25.374V25.594C27.43 26.606 27.1953 27.5007 26.726 28.278C26.2567 29.0553 25.6113 29.664 24.79 30.104C23.9833 30.5293 23.0667 30.742 22.04 30.742ZM21.864 28.41C22.744 28.41 23.448 28.1533 23.976 27.64C24.5187 27.112 24.79 26.43 24.79 25.594V25.374C24.79 24.5527 24.5187 23.8853 23.976 23.372C23.448 22.844 22.744 22.58 21.864 22.58C20.984 22.58 20.2727 22.844 19.73 23.372C19.202 23.8853 18.938 24.5527 18.938 25.374V25.594C18.938 26.43 19.202 27.112 19.73 27.64C20.2727 28.1533 20.984 28.41 21.864 28.41Z" fill="#1F74D9"/>
</svg>
