<svg width="96" height="35" viewBox="0 0 96 35" fill="none" xmlns="http://www.w3.org/2000/svg">
<path d="M41.5204 4.02378C41.9844 4.12848 42.3504 4.36043 42.6199 4.72011C42.8968 5.07203 43.0355 5.4762 43.0355 5.93282C43.0355 6.6066 42.8032 7.1346 42.3391 7.51657C41.8751 7.89822 41.2235 8.08922 40.385 8.08922H36.4655V0.171692H40.2625C41.071 0.171692 41.7032 0.351597 42.1598 0.710947C42.6242 1.0703 42.8561 1.5758 42.8561 2.22729C42.8561 2.69134 42.7329 3.08042 42.4863 3.39486C42.2465 3.7022 41.9243 3.91199 41.5204 4.02378ZM38.667 3.31632H39.7789C40.3328 3.31632 40.6101 3.08835 40.6101 2.63174C40.6101 2.15992 40.3328 1.92365 39.7789 1.92365H38.667V3.31632ZM39.9471 6.315C40.5013 6.315 40.7783 6.08305 40.7783 5.61867C40.7783 5.37887 40.7042 5.19527 40.5556 5.06828C40.4138 4.93994 40.2083 4.87595 39.9385 4.87595H38.6695V6.31376L39.9471 6.315Z" fill="#061C23" fill-opacity="0.7"/>
<path d="M46.2024 1.93479V3.22665H48.7292V4.90007H46.2024V6.32613H49.0657V8.08922H44.0009V0.171692H49.0657V1.93479H46.2024Z" fill="#061C23" fill-opacity="0.7"/>
<path d="M56.1191 0.171692V1.92365H54.0078V8.08922H51.8075V1.92365H49.7185V0.171692H56.1191Z" fill="#061C23" fill-opacity="0.7"/>
<path d="M62.9052 0.171692V1.92365H60.794V8.08922H58.5924V1.92365H56.5034V0.171692H62.9052Z" fill="#061C23" fill-opacity="0.7"/>
<path d="M65.9225 1.93479V3.22665H68.4493V4.90007H65.9225V6.32613H68.7857V8.08922H63.7222V0.171692H68.7857V1.93479H65.9225Z" fill="#061C23" fill-opacity="0.7"/>
<path d="M73.8863 8.08922L72.3143 5.1697H72.0806V8.08922H69.8802V0.171692H73.3495C73.9858 0.171692 74.5256 0.284917 74.9673 0.5112C75.4091 0.727351 75.7421 1.0308 75.9667 1.42088C76.1896 1.80286 76.3006 2.2335 76.3006 2.71275C76.3006 3.25177 76.151 3.72711 75.8504 4.13881C75.5599 4.54308 75.1296 4.8311 74.5592 5.00335L76.3439 8.0917L73.8863 8.08922ZM72.0781 3.66448H73.1677C73.4683 3.66448 73.6932 3.5936 73.8418 3.45175C73.9904 3.3099 74.0644 3.10381 74.0644 2.83396C74.0644 2.58066 73.986 2.38258 73.8307 2.23904C73.6821 2.09044 73.4621 2.0158 73.169 2.0158H72.0793L72.0781 3.66448Z" fill="#061C23" fill-opacity="0.7"/>
<path d="M47.9432 13.5372L46.0001 21.4547H43.294L42.2043 16.6033L41.0924 21.4547H38.3862L36.4655 13.5372H38.8463L39.7678 18.9508L41.0145 13.5372H43.4288L44.6409 18.9056L45.5623 13.5372H47.9432Z" fill="#061C23" fill-opacity="0.7"/>
<path d="M52.6713 21.5337C51.9303 21.5337 51.2482 21.3615 50.6268 21.0173C50.0054 20.6654 49.511 20.1824 49.1439 19.5684C48.7845 18.947 48.6058 18.2474 48.6058 17.4689C48.6058 16.6901 48.7845 15.9933 49.1439 15.3793C49.511 14.7579 50.0054 14.2751 50.6268 13.931C51.2482 13.5865 51.9303 13.414 52.6713 13.414C53.42 13.414 54.1005 13.5865 54.7145 13.931C55.3359 14.2751 55.827 14.7579 56.1863 15.3793C56.5457 15.9933 56.7256 16.6901 56.7256 17.4689C56.7256 18.2474 56.5457 18.947 56.1863 19.5684C55.827 20.1824 55.3359 20.6654 54.7145 21.0173C54.0931 21.3615 53.4126 21.5337 52.6713 21.5337ZM52.6713 19.4899C53.2329 19.4899 53.6741 19.3063 53.9959 18.9395C54.3235 18.5724 54.4869 18.0826 54.4869 17.4689C54.4869 16.84 54.3235 16.3456 53.9959 15.9859C53.6751 15.6192 53.2339 15.4356 52.6713 15.4356C52.1022 15.4356 51.6561 15.6192 51.3343 15.9859C51.0134 16.3456 50.8531 16.84 50.8531 17.4689C50.8531 18.0903 51.0134 18.5845 51.3343 18.9512C51.6551 19.3106 52.1012 19.4899 52.6713 19.4899Z" fill="#061C23" fill-opacity="0.7"/>
<path d="M61.7226 21.4546L60.1506 18.5351H59.9119V21.4546H57.7115V13.537H61.1808C61.8175 13.537 62.3568 13.6503 62.7986 13.8766C63.2404 14.0927 63.5734 14.3962 63.798 14.7862C64.0242 15.1682 64.1381 15.5989 64.1381 16.0781C64.1381 16.6171 63.9872 17.0925 63.6866 17.5042C63.3962 17.9084 62.9658 18.1965 62.3954 18.3687L64.1814 21.4571L61.7226 21.4546ZM59.9143 17.0298H61.004C61.3046 17.0298 61.5294 16.959 61.678 16.8171C61.8266 16.6753 61.9007 16.4692 61.9007 16.1993C61.9007 15.946 61.8235 15.7479 61.6681 15.6044C61.5195 15.4558 61.2984 15.3812 61.0052 15.3812H59.9156L59.9143 17.0298Z" fill="#061C23" fill-opacity="0.7"/>
<path d="M69.8169 21.4546L67.3346 17.9841V21.4546H65.1343V13.537H67.3346V16.9513L69.7934 13.537H72.3326L69.4236 17.378L72.4785 21.4546H69.8169Z" fill="#061C23" fill-opacity="0.7"/>
<path d="M36.4644 30.9218C36.4644 30.1429 36.6246 29.4501 36.9455 28.8439C37.2731 28.2299 37.7373 27.7543 38.3381 27.4172C38.9369 27.0731 39.6252 26.9008 40.4036 26.9008C41.3922 26.9008 42.2233 27.167 42.8971 27.6986C43.5709 28.2224 44.0049 28.9371 44.1995 29.8433H41.8297C41.6879 29.5427 41.4898 29.3144 41.2348 29.1581C40.9882 29.0027 40.7002 28.9249 40.3702 28.9249C39.8609 28.9249 39.4525 29.1085 39.1458 29.4753C38.8452 29.8346 38.6956 30.3177 38.6956 30.9242C38.6956 31.5382 38.8452 32.0287 39.1458 32.3954C39.4531 32.7548 39.8616 32.9341 40.3702 32.9341C40.6979 32.9341 40.9859 32.8547 41.2348 32.696C41.4881 32.5406 41.6862 32.3127 41.8297 32.0114H44.1995C44.0036 32.9172 43.5695 33.6356 42.8971 34.1672C42.2233 34.6914 41.3922 34.9538 40.4036 34.9538C39.6252 34.9538 38.9369 34.7844 38.3381 34.4467C37.739 34.1022 37.2748 33.6272 36.9455 33.0207C36.6246 32.4067 36.4644 31.7077 36.4644 30.9218Z" fill="#061C23" fill-opacity="0.7"/>
<path d="M49.0444 34.9756C48.3034 34.9756 47.6226 34.8034 47.0012 34.4592C46.3798 34.1073 45.885 33.6243 45.5182 33.0103C45.1589 32.3888 44.9802 31.6892 44.9802 30.9108C44.9802 30.1319 45.1589 29.4352 45.5182 28.8211C45.885 28.1997 46.3798 27.717 47.0012 27.3728C47.6226 27.0283 48.3034 26.8558 49.0444 26.8558C49.7932 26.8558 50.4749 27.0283 51.0889 27.3728C51.7103 27.717 52.2001 28.1997 52.5595 28.8211C52.9188 29.4352 53.0987 30.1319 53.0987 30.9108C53.0987 31.6892 52.9188 32.3888 52.5595 33.0103C52.2001 33.6243 51.7103 34.1073 51.0889 34.4592C50.4675 34.8034 49.7858 34.9756 49.0444 34.9756ZM49.0444 32.9317C49.6061 32.9317 50.0484 32.7481 50.3703 32.3813C50.7013 32.0142 50.8663 31.5244 50.8663 30.9108C50.8663 30.2819 50.7013 29.7875 50.3703 29.4278C50.0495 29.061 49.6071 28.8774 49.0444 28.8774C48.4757 28.8774 48.0305 29.061 47.7087 29.4278C47.3878 29.7875 47.2275 30.2819 47.2275 30.9108C47.2275 31.5322 47.3878 32.0263 47.7087 32.3931C48.0295 32.7524 48.4747 32.9317 49.0444 32.9317Z" fill="#061C23" fill-opacity="0.7"/>
<path d="M63.3309 26.98V34.8976H61.1294V30.5291L59.6365 34.8976H57.7949L56.2897 30.4951V34.8976H54.0881V26.98H56.7498L58.7374 32.124L60.6804 26.98H63.3309Z" fill="#061C23" fill-opacity="0.7"/>
<path d="M70.8387 29.6192C70.8387 30.0984 70.7277 30.5364 70.5048 30.9333C70.2886 31.3227 69.9556 31.6369 69.5054 31.8764C69.064 32.1094 68.5206 32.2258 67.8765 32.2258H66.7881V34.8985H64.5865V26.9816H67.8765C68.5128 26.9816 69.0525 27.0949 69.4943 27.3211C69.9435 27.544 70.2802 27.8546 70.5048 28.2531C70.7277 28.6499 70.8387 29.1028 70.8387 29.6192ZM67.6613 30.4726C68.2827 30.4726 68.5939 30.1882 68.5939 29.6192C68.5939 29.0426 68.2827 28.754 67.6613 28.754H66.7856V30.4726H67.6613Z" fill="#061C23" fill-opacity="0.7"/>
<path d="M76.7365 33.6063H73.9289L73.5034 34.8976H71.1893L74.0761 26.98H76.614L79.4897 34.8976H77.1644L76.7365 33.6063ZM76.1861 31.9218L75.3327 29.3609L74.4904 31.9218H76.1861Z" fill="#061C23" fill-opacity="0.7"/>
<path d="M87.5415 34.8976H85.3412L82.4099 30.4728V34.8976H80.2084V26.98H82.4099L85.3412 31.4611V26.98H87.5415V34.8976Z" fill="#061C23" fill-opacity="0.7"/>
<path d="M96 26.98L93.2147 32.3819V34.8976H91.002V32.3819L88.2167 26.98H90.7324L92.125 30.035L93.5177 26.98H96Z" fill="#061C23" fill-opacity="0.7"/>
<path d="M2.76519 8.94287C1.8885 9.81955 1.19314 10.8603 0.718683 12.0058C0.244221 13.1512 0 14.379 0 15.6188C0 16.8586 0.244221 18.0863 0.718683 19.2317C1.19314 20.3772 1.8885 21.418 2.76519 22.2946L6.10333 18.9565C5.66498 18.5182 5.3173 17.9978 5.08007 17.4251C4.84284 16.8524 4.72073 16.2386 4.72073 15.6187C4.72073 14.9988 4.84284 14.385 5.08007 13.8122C5.3173 13.2395 5.66498 12.719 6.10333 12.2807C6.54168 11.8424 7.06198 11.4947 7.63471 11.2574C8.20744 11.0202 8.82124 10.8981 9.44115 10.8981C10.0611 10.8981 10.6749 11.0204 11.2476 11.2576C11.8203 11.4948 12.3406 11.8425 12.779 12.2808C13.6642 13.1661 14.1616 14.3667 14.1616 15.6187C14.1616 16.8706 13.6642 18.0712 12.779 18.9565L16.1171 22.2946C17.8876 20.5241 18.882 18.1227 18.882 15.6188C18.882 13.1149 17.8874 10.7135 16.1168 8.94302C14.3463 7.17253 11.945 6.17785 9.44115 6.17783C6.93728 6.1778 4.53574 7.17241 2.76519 8.94287Z" fill="#061C23" fill-opacity="0.7"/>
<path fill-rule="evenodd" clip-rule="evenodd" d="M12.7792 25.6325L11.8721 24.7255L9.44134 22.2949L8.85593 22.8801L7.01054 24.7255L6.10352 25.6325L9.44134 28.9705L10.2133 28.1987L12.7792 25.6325Z" fill="#061C23" fill-opacity="0.7"/>
<path d="M28.6641 0.172638H26.6091V34.9758H28.6641V0.172638Z" fill="#061C23" fill-opacity="0.7"/>
</svg>
