<svg width="21" height="21" viewBox="0 0 21 21" fill="none" xmlns="http://www.w3.org/2000/svg">
<g clip-path="url(#clip0_17_110)">
<path d="M3.83337 6.33329C3.83337 5.89127 4.00897 5.46734 4.32153 5.15478C4.63409 4.84222 5.05801 4.66663 5.50004 4.66663H15.5C15.9421 4.66663 16.366 4.84222 16.6786 5.15478C16.9911 5.46734 17.1667 5.89127 17.1667 6.33329V16.3333C17.1667 16.7753 16.9911 17.1992 16.6786 17.5118C16.366 17.8244 15.9421 18 15.5 18H5.50004C5.05801 18 4.63409 17.8244 4.32153 17.5118C4.00897 17.1992 3.83337 16.7753 3.83337 16.3333V6.33329Z" stroke="#FAFCFC" stroke-width="2" stroke-linecap="round" stroke-linejoin="round"/>
<path d="M13.8334 3V6.33333" stroke="#FAFCFC" stroke-width="2" stroke-linecap="round" stroke-linejoin="round"/>
<path d="M7.16663 3V6.33333" stroke="#FAFCFC" stroke-width="2" stroke-linecap="round" stroke-linejoin="round"/>
<path d="M3.83337 9.66663H17.1667" stroke="#FAFCFC" stroke-width="2" stroke-linecap="round" stroke-linejoin="round"/>
<path d="M6.33337 12.1666H6.34421" stroke="#FAFCFC" stroke-width="2" stroke-linecap="round" stroke-linejoin="round"/>
<path d="M8.84167 12.1666H8.84667" stroke="#FAFCFC" stroke-width="2" stroke-linecap="round" stroke-linejoin="round"/>
<path d="M11.3417 12.1666H11.3467" stroke="#FAFCFC" stroke-width="2" stroke-linecap="round" stroke-linejoin="round"/>
<path d="M13.8458 12.1666H13.8508" stroke="#FAFCFC" stroke-width="2" stroke-linecap="round" stroke-linejoin="round"/>
<path d="M11.3458 14.6666H11.3508" stroke="#FAFCFC" stroke-width="2" stroke-linecap="round" stroke-linejoin="round"/>
<path d="M6.34167 14.6666H6.34667" stroke="#FAFCFC" stroke-width="2" stroke-linecap="round" stroke-linejoin="round"/>
<path d="M8.84167 14.6666H8.84667" stroke="#FAFCFC" stroke-width="2" stroke-linecap="round" stroke-linejoin="round"/>
</g>
<defs>
<clipPath id="clip0_17_110">
<rect width="20" height="20" fill="white" transform="translate(0.5 0.5)"/>
</clipPath>
</defs>
</svg>
