<svg width="21" height="21" viewBox="0 0 21 21" fill="none" xmlns="http://www.w3.org/2000/svg">
<g clip-path="url(#clip0_21_24)">
<path d="M3.83337 6.33341C3.83337 5.89139 4.00897 5.46746 4.32153 5.1549C4.63409 4.84234 5.05801 4.66675 5.50004 4.66675H15.5C15.9421 4.66675 16.366 4.84234 16.6786 5.1549C16.9911 5.46746 17.1667 5.89139 17.1667 6.33341V16.3334C17.1667 16.7754 16.9911 17.1994 16.6786 17.5119C16.366 17.8245 15.9421 18.0001 15.5 18.0001H5.50004C5.05801 18.0001 4.63409 17.8245 4.32153 17.5119C4.00897 17.1994 3.83337 16.7754 3.83337 16.3334V6.33341Z" stroke="#217DE9" stroke-width="2" stroke-linecap="round" stroke-linejoin="round"/>
<path d="M13.8334 3V6.33333" stroke="#217DE9" stroke-width="2" stroke-linecap="round" stroke-linejoin="round"/>
<path d="M7.16663 3V6.33333" stroke="#217DE9" stroke-width="2" stroke-linecap="round" stroke-linejoin="round"/>
<path d="M3.83337 9.66675H17.1667" stroke="#217DE9" stroke-width="2" stroke-linecap="round" stroke-linejoin="round"/>
<path d="M6.33337 12.1667H6.34421" stroke="#217DE9" stroke-width="2" stroke-linecap="round" stroke-linejoin="round"/>
<path d="M8.84167 12.1667H8.84667" stroke="#217DE9" stroke-width="2" stroke-linecap="round" stroke-linejoin="round"/>
<path d="M11.3417 12.1667H11.3467" stroke="#217DE9" stroke-width="2" stroke-linecap="round" stroke-linejoin="round"/>
<path d="M13.8458 12.1667H13.8508" stroke="#217DE9" stroke-width="2" stroke-linecap="round" stroke-linejoin="round"/>
<path d="M11.3458 14.6667H11.3508" stroke="#217DE9" stroke-width="2" stroke-linecap="round" stroke-linejoin="round"/>
<path d="M6.34167 14.6667H6.34667" stroke="#217DE9" stroke-width="2" stroke-linecap="round" stroke-linejoin="round"/>
<path d="M8.84167 14.6667H8.84667" stroke="#217DE9" stroke-width="2" stroke-linecap="round" stroke-linejoin="round"/>
</g>
<defs>
<clipPath id="clip0_21_24">
<rect width="20" height="20" fill="white" transform="translate(0.5 0.5)"/>
</clipPath>
</defs>
</svg>
