<svg width="32" height="32" viewBox="0 0 32 32" fill="none" xmlns="http://www.w3.org/2000/svg">
<rect width="32" height="32" rx="2" fill="white"/>
<rect x="0.5" y="0.5" width="31" height="31" rx="1.5" stroke="#1F74D9" stroke-opacity="0.15"/>
<g clip-path="url(#clip0_233_3)">
<path d="M16 19C16 19.7956 16.3161 20.5587 16.8787 21.1213C17.4413 21.6839 18.2044 22 19 22C19.7956 22 20.5587 21.6839 21.1213 21.1213C21.6839 20.5587 22 19.7956 22 19C22 18.2044 21.6839 17.4413 21.1213 16.8787C20.5587 16.3161 19.7956 16 19 16C18.2044 16 17.4413 16.3161 16.8787 16.8787C16.3161 17.4413 16 18.2044 16 19Z" stroke="#1F74D9" stroke-width="2" stroke-linecap="round" stroke-linejoin="round"/>
<path d="M17 21.5V26L19 24.5L21 26V21.5" stroke="#1F74D9" stroke-width="2" stroke-linecap="round" stroke-linejoin="round"/>
<path d="M14 23H9C8.46957 23 7.96086 22.7893 7.58579 22.4142C7.21071 22.0391 7 21.5304 7 21V11C7 9.9 7.9 9 9 9H23C23.5304 9 24.0391 9.21071 24.4142 9.58579C24.7893 9.96086 25 10.4696 25 11V21C24.9996 21.3507 24.9071 21.6952 24.7315 21.9988C24.556 22.3025 24.3037 22.5546 24 22.73" stroke="#1F74D9" stroke-width="2" stroke-linecap="round" stroke-linejoin="round"/>
<path d="M10 13H22" stroke="#1F74D9" stroke-width="2" stroke-linecap="round" stroke-linejoin="round"/>
<path d="M10 16H13" stroke="#1F74D9" stroke-width="2" stroke-linecap="round" stroke-linejoin="round"/>
<path d="M10 19H12" stroke="#1F74D9" stroke-width="2" stroke-linecap="round" stroke-linejoin="round"/>
</g>
<defs>
<clipPath id="clip0_233_3">
<rect width="24" height="24" fill="white" transform="translate(4 4)"/>
</clipPath>
</defs>
</svg>
