<svg width="21" height="21" viewBox="0 0 21 21" fill="none" xmlns="http://www.w3.org/2000/svg">
<g clip-path="url(#clip0_14_99)">
<path d="M7.59705 8H14.2637" stroke="#FAFCFC" stroke-width="2" stroke-linecap="round" stroke-linejoin="round"/>
<path d="M7.59705 11.3333H12.597" stroke="#FAFCFC" stroke-width="2" stroke-linecap="round" stroke-linejoin="round"/>
<path d="M15.9304 3.83333C16.5935 3.83333 17.2293 4.09672 17.6982 4.56556C18.167 5.0344 18.4304 5.67029 18.4304 6.33333V13C18.4304 13.663 18.167 14.2989 17.6982 14.7678C17.2293 15.2366 16.5935 15.5 15.9304 15.5H11.7638L7.59709 18V15.5H5.93042C5.26738 15.5 4.63149 15.2366 4.16265 14.7678C3.69381 14.2989 3.43042 13.663 3.43042 13V6.33333C3.43042 5.67029 3.69381 5.0344 4.16265 4.56556C4.63149 4.09672 5.26738 3.83333 5.93042 3.83333H15.9304Z" stroke="#FAFCFC" stroke-width="2" stroke-linecap="round" stroke-linejoin="round"/>
</g>
<defs>
<clipPath id="clip0_14_99">
<rect width="20" height="20" fill="white" transform="translate(0.93042 0.5)"/>
</clipPath>
</defs>
</svg>
