<svg width="27" height="27" viewBox="0 0 27 27" fill="none" xmlns="http://www.w3.org/2000/svg">
<rect x="11.2" y="5.77377" width="5.2" height="5.2" transform="rotate(90 11.2 5.77377)" fill="#061C23" fill-opacity="0.6"/>
<rect x="11.2" y="16.1738" width="5.2" height="5.2" transform="rotate(90 11.2 16.1738)" fill="#061C23" fill-opacity="0.6"/>
<rect x="16.4001" y="10.9738" width="5.2" height="5.2" transform="rotate(90 16.4001 10.9738)" fill="#061C23" fill-opacity="0.6"/>
<rect x="6" y="10.9738" width="5.2" height="5.2" transform="rotate(90 6 10.9738)" fill="#061C23" fill-opacity="0.6"/>
<rect x="26.8" y="10.9738" width="5.2" height="5.2" transform="rotate(90 26.8 10.9738)" fill="#061C23" fill-opacity="0.6"/>
<rect x="21.6001" y="16.1738" width="5.2" height="5.2" transform="rotate(90 21.6001 16.1738)" fill="#061C23" fill-opacity="0.6"/>
<rect x="26.8" y="21.3737" width="5.2" height="5.2" transform="rotate(90 26.8 21.3737)" fill="#061C23" fill-opacity="0.6"/>
<rect x="26.8" y="0.573761" width="5.2" height="5.2" transform="rotate(90 26.8 0.573761)" fill="#061C23" fill-opacity="0.6"/>
<rect x="6" y="0.573761" width="5.2" height="5.2" transform="rotate(90 6 0.573761)" fill="#061C23" fill-opacity="0.6"/>
<rect x="16.4001" y="0.573761" width="5.2" height="5.2" transform="rotate(90 16.4001 0.573761)" fill="#061C23" fill-opacity="0.6"/>
<rect x="16.4001" y="21.3737" width="5.2" height="5.2" transform="rotate(90 16.4001 21.3737)" fill="#061C23" fill-opacity="0.6"/>
<rect x="6" y="21.3737" width="5.2" height="5.2" transform="rotate(90 6 21.3737)" fill="#061C23" fill-opacity="0.6"/>
<rect x="21.6001" y="5.77377" width="5.2" height="5.2" transform="rotate(90 21.6001 5.77377)" fill="#061C23" fill-opacity="0.6"/>
</svg>
