<svg width="25" height="24" viewBox="0 0 25 24" fill="none" xmlns="http://www.w3.org/2000/svg">
<g clip-path="url(#clip0_24_103)">
<path d="M12.3636 12C12.3636 12.7956 12.6797 13.5587 13.2423 14.1213C13.8049 14.6839 14.568 15 15.3636 15C16.1593 15 16.9224 14.6839 17.485 14.1213C18.0476 13.5587 18.3636 12.7956 18.3636 12C18.3636 11.2044 18.0476 10.4413 17.485 9.87868C16.9224 9.31607 16.1593 9 15.3636 9C14.568 9 13.8049 9.31607 13.2423 9.87868C12.6797 10.4413 12.3636 11.2044 12.3636 12Z" stroke="#FAFCFC" stroke-width="2" stroke-linecap="round" stroke-linejoin="round"/>
<path d="M6.36365 6C6.36365 5.20435 6.67972 4.44129 7.24233 3.87868C7.80494 3.31607 8.568 3 9.36365 3H15.3636C16.1593 3 16.9224 3.31607 17.485 3.87868C18.0476 4.44129 18.3636 5.20435 18.3636 6C18.3636 6.79565 18.0476 7.55871 17.485 8.12132C16.9224 8.68393 16.1593 9 15.3636 9H9.36365C8.568 9 7.80494 8.68393 7.24233 8.12132C6.67972 7.55871 6.36365 6.79565 6.36365 6Z" stroke="#FAFCFC" stroke-width="2" stroke-linecap="round" stroke-linejoin="round"/>
<path d="M9.36365 9C8.568 9 7.80494 9.31607 7.24233 9.87868C6.67972 10.4413 6.36365 11.2044 6.36365 12C6.36365 12.7956 6.67972 13.5587 7.24233 14.1213C7.80494 14.6839 8.568 15 9.36365 15M9.36365 15H12.3636M9.36365 15C8.7703 15 8.19029 15.1759 7.69694 15.5056C7.20359 15.8352 6.81907 16.3038 6.59201 16.8519C6.36495 17.4001 6.30554 18.0033 6.42129 18.5853C6.53705 19.1672 6.82277 19.7018 7.24233 20.1213C7.66189 20.5409 8.19643 20.8266 8.77838 20.9424C9.36032 21.0581 9.96352 20.9987 10.5117 20.7716C11.0599 20.5446 11.5284 20.1601 11.8581 19.6667C12.1877 19.1734 12.3636 18.5933 12.3636 18V3" stroke="#FAFCFC" stroke-width="2" stroke-linecap="round" stroke-linejoin="round"/>
</g>
<defs>
<clipPath id="clip0_24_103">
<rect width="24" height="24" fill="white" transform="translate(0.363647)"/>
</clipPath>
</defs>
</svg>
