<svg width="33" height="32" viewBox="0 0 33 32" fill="none" xmlns="http://www.w3.org/2000/svg">
<rect x="0.612427" width="32" height="32" rx="2" fill="#217DE9"/>
<g clip-path="url(#clip0_19_3)">
<path d="M16.6124 16C16.6124 16.7956 16.9285 17.5587 17.4911 18.1213C18.0537 18.6839 18.8168 19 19.6124 19C20.4081 19 21.1711 18.6839 21.7337 18.1213C22.2964 17.5587 22.6124 16.7956 22.6124 16C22.6124 15.2044 22.2964 14.4413 21.7337 13.8787C21.1711 13.3161 20.4081 13 19.6124 13C18.8168 13 18.0537 13.3161 17.4911 13.8787C16.9285 14.4413 16.6124 15.2044 16.6124 16Z" stroke="#FAFCFC" stroke-width="2" stroke-linecap="round" stroke-linejoin="round"/>
<path d="M10.6124 10C10.6124 9.20435 10.9285 8.44129 11.4911 7.87868C12.0537 7.31607 12.8168 7 13.6124 7H19.6124C20.4081 7 21.1711 7.31607 21.7337 7.87868C22.2964 8.44129 22.6124 9.20435 22.6124 10C22.6124 10.7956 22.2964 11.5587 21.7337 12.1213C21.1711 12.6839 20.4081 13 19.6124 13H13.6124C12.8168 13 12.0537 12.6839 11.4911 12.1213C10.9285 11.5587 10.6124 10.7956 10.6124 10Z" stroke="#FAFCFC" stroke-width="2" stroke-linecap="round" stroke-linejoin="round"/>
<path d="M13.6124 13C12.8168 13 12.0537 13.3161 11.4911 13.8787C10.9285 14.4413 10.6124 15.2044 10.6124 16C10.6124 16.7956 10.9285 17.5587 11.4911 18.1213C12.0537 18.6839 12.8168 19 13.6124 19M13.6124 19H16.6124M13.6124 19C13.0191 19 12.4391 19.1759 11.9457 19.5056C11.4524 19.8352 11.0679 20.3038 10.8408 20.8519C10.6137 21.4001 10.5543 22.0033 10.6701 22.5853C10.7858 23.1672 11.0716 23.7018 11.4911 24.1213C11.9107 24.5409 12.4452 24.8266 13.0272 24.9424C13.6091 25.0581 14.2123 24.9987 14.7605 24.7716C15.3087 24.5446 15.7772 24.1601 16.1068 23.6667C16.4365 23.1734 16.6124 22.5933 16.6124 22V7" stroke="#FAFCFC" stroke-width="2" stroke-linecap="round" stroke-linejoin="round"/>
</g>
<defs>
<clipPath id="clip0_19_3">
<rect width="24" height="24" fill="white" transform="translate(4.61243 4)"/>
</clipPath>
</defs>
</svg>
