<svg width="20" height="20" viewBox="0 0 20 20" fill="none" xmlns="http://www.w3.org/2000/svg">
<g clip-path="url(#clip0_14_210)">
<path d="M16.25 10.4767L9.99997 16.6667L3.74997 10.4767C3.33772 10.0755 3.013 9.59334 2.79626 9.06052C2.57951 8.52771 2.47543 7.95579 2.49058 7.38077C2.50573 6.80576 2.63977 6.24011 2.88426 5.71944C3.12876 5.19878 3.47841 4.73437 3.9112 4.35548C4.344 3.97658 4.85055 3.6914 5.39898 3.5179C5.9474 3.34439 6.5258 3.28631 7.09777 3.34733C7.66974 3.40834 8.22288 3.58713 8.72236 3.87242C9.22184 4.15771 9.65684 4.54333 9.99997 5.00499C10.3446 4.54668 10.7801 4.16443 11.2792 3.88217C11.7784 3.5999 12.3304 3.4237 12.9007 3.36459C13.4711 3.30549 14.0475 3.36474 14.5939 3.53865C15.1404 3.71257 15.645 3.99739 16.0763 4.3753C16.5075 4.75321 16.8562 5.21606 17.1003 5.7349C17.3445 6.25374 17.4789 6.8174 17.4952 7.39058C17.5115 7.96377 17.4093 8.53416 17.1951 9.06604C16.9808 9.59792 16.6591 10.0798 16.25 10.4817" stroke="#217DE9" stroke-width="2" stroke-linecap="round" stroke-linejoin="round"/>
</g>
<defs>
<clipPath id="clip0_14_210">
<rect width="20" height="20" fill="white"/>
</clipPath>
</defs>
</svg>
