<svg width="59" height="17" viewBox="0 0 59 17" fill="none" xmlns="http://www.w3.org/2000/svg">
<path d="M10.136 0.678528H6.35316L6.54584 0.871221V12.2248C6.54584 13.3049 3.90394 13.3454 3.88366 12.2248L3.86338 10.8709L4.05606 10.6782H0.400024L0.592705 10.8709V12.2248C0.592705 14.3596 1.73363 16.4336 5.32884 16.4336C8.67051 16.4336 9.95851 14.3596 9.95851 12.2248V0.871221L10.136 0.678528Z" fill="#061C23" fill-opacity="0.7"/>
<path d="M23.9793 16.0025L22.8992 13.0665C22.1792 13.533 21.378 13.4468 20.9318 12.5797L18.8375 8.45713L22.4936 0.866112L22.6863 0.673431H18.6043L18.7969 0.866112H18.8172L16.1956 6.86996H15.4958V0.866112L15.6885 0.673431H11.8854L12.0984 0.866112V16.0887L11.8854 16.2814H15.6885L15.4958 16.0887V10.5514H16.363L17.9907 14.1263C19.0454 16.1343 20.4653 16.4741 21.9459 16.4741C22.6254 16.469 23.3252 16.322 23.9793 16.0025Z" fill="#061C23" fill-opacity="0.7"/>
<path d="M30.6422 0.678495L30.8552 0.891467V12.098C30.8552 13.4316 28.2133 13.4062 28.2133 12.098V0.891467L28.4263 0.678495H24.4964C24.5826 0.754557 24.6587 0.825546 24.7094 0.866112V12.0929C24.7094 14.9275 27.1383 16.3625 29.5723 16.3625C32.1736 16.3625 34.3693 14.9275 34.3693 12.0929V0.886403L34.5822 0.673431L30.6422 0.678495Z" fill="#061C23" fill-opacity="0.7"/>
<path d="M36.5194 16.0887L36.3267 16.2814H40.1298L39.9169 16.0887V11.4997H41.1237L42.5841 16.0887L42.3711 16.2814H46.3669L46.1742 16.0887L44.1003 10.6985C45.3477 10.024 45.7077 8.85775 45.7077 7.67625V4.58813C45.7077 1.94624 43.867 0.678528 41.6257 0.678528H36.3217L36.5143 0.871221V16.0887H36.5194ZM39.9219 3.93399H41.6359C42.0162 3.93399 42.3103 4.2281 42.3103 4.58813V7.7371C42.3103 8.09713 42.0162 8.39124 41.6359 8.39124H39.9219V3.93399Z" fill="#061C23" fill-opacity="0.7"/>
<path d="M52.5179 11.3931H52.4773L51.4631 5.40955L50.3019 0.886388L50.5149 0.693695H46.6053L46.798 0.886388L50.7076 16.0836L50.4946 16.2763H54.5107L54.318 16.0836L58.1667 0.886388L58.4 0.693695H54.4701L54.6628 0.886388L53.5219 5.40955L52.5179 11.3931Z" fill="#061C23" fill-opacity="0.7"/>
</svg>
