<svg width="141" height="27" viewBox="0 0 141 27" fill="none" xmlns="http://www.w3.org/2000/svg">
<path d="M39.4496 10.25V12.1037H37.1591V21.5H34.9112V12.1037H32.8977V10.25H34.9112V8.4283C34.9112 7.54051 35.1882 6.85159 35.7422 6.36154C36.3033 5.87148 37.0916 5.62645 38.1073 5.62645H39.4496V7.48014H38.4588C37.983 7.48014 37.6456 7.57958 37.4468 7.77844C37.255 7.9773 37.1591 8.31466 37.1591 8.79051V10.25H39.4496ZM45.7458 21.7557C44.6307 21.7557 43.6719 21.5036 42.8693 20.9993C42.0739 20.4951 41.4595 19.8026 41.0263 18.9219C40.6002 18.0341 40.3871 17.0256 40.3871 15.8963C40.3871 14.7529 40.6108 13.7372 41.0583 12.8495C41.5057 11.9617 42.1236 11.2657 42.912 10.7614C43.7003 10.25 44.6058 9.99435 45.6286 9.99435C46.6939 9.99435 47.6172 10.2429 48.3985 10.7401C49.1868 11.2372 49.7976 11.9297 50.2308 12.8175C50.6641 13.6982 50.8807 14.7174 50.8807 15.875V16.4823H42.603C42.6456 17.4979 42.9368 18.3182 43.4766 18.9432C44.0235 19.5682 44.7905 19.8807 45.7777 19.8807C46.5164 19.8807 47.1236 19.7138 47.5995 19.38C48.0753 19.0462 48.3914 18.613 48.5476 18.0803H50.7102C50.5753 18.8047 50.2735 19.4439 49.8047 19.9979C49.3431 20.5519 48.7607 20.9851 48.0576 21.2976C47.3615 21.603 46.5909 21.7557 45.7458 21.7557ZM42.6243 14.7777H48.6861C48.5938 13.8828 48.2777 13.1762 47.7379 12.6577C47.1982 12.1321 46.5022 11.8693 45.6499 11.8693C44.7976 11.8693 44.1016 12.1321 43.5618 12.6577C43.0291 13.1762 42.7166 13.8828 42.6243 14.7777ZM57.1556 21.7238C56.1754 21.7238 55.3196 21.4787 54.5881 20.9887C53.8566 20.4915 53.2884 19.8061 52.8835 18.9326C52.4787 18.0519 52.2763 17.0327 52.2763 15.875C52.2763 14.7174 52.4787 13.7017 52.8835 12.8282C53.2955 11.9475 53.8672 11.2621 54.5987 10.772C55.3303 10.2749 56.179 10.0263 57.1449 10.0263C57.8764 10.0263 58.5441 10.179 59.1478 10.4844C59.7514 10.7898 60.2344 11.255 60.5966 11.88H60.6179V5.62645H62.8658V21.5H60.6605V19.7848H60.6392C60.2628 20.4382 59.7692 20.9247 59.1584 21.2443C58.5547 21.564 57.8871 21.7238 57.1556 21.7238ZM57.6137 19.7848C58.5725 19.7848 59.336 19.4297 59.9041 18.7195C60.4794 18.0022 60.7671 17.054 60.7671 15.875C60.7671 14.689 60.4794 13.7408 59.9041 13.0306C59.336 12.3132 58.5725 11.9546 57.6137 11.9546C56.7046 11.9546 55.9659 12.2919 55.3978 12.9666C54.8367 13.6343 54.5561 14.6037 54.5561 15.875C54.5561 17.1463 54.8367 18.1158 55.3978 18.7834C55.9659 19.451 56.7046 19.7848 57.6137 19.7848ZM65.4013 21.5V10.25H67.6492V21.5H65.4013ZM66.5199 8.31111C66.1222 8.31111 65.7848 8.17972 65.5078 7.91693C65.2379 7.64705 65.103 7.32034 65.103 6.93682C65.103 6.5462 65.2379 6.21949 65.5078 5.95671C65.7848 5.68682 66.1222 5.55188 66.5199 5.55188C66.9176 5.55188 67.255 5.68682 67.532 5.95671C67.809 6.21949 67.9475 6.5462 67.9475 6.93682C67.9475 7.32034 67.809 7.64705 67.532 7.91693C67.255 8.17972 66.9176 8.31111 66.5199 8.31111ZM70.1953 21.5V10.25H72.3473V12.0718H72.3899C72.5959 11.4539 72.9191 10.9745 73.3594 10.6336C73.8068 10.2855 74.3892 10.1115 75.1066 10.1115C75.277 10.1115 75.4333 10.1186 75.5753 10.1328C75.7174 10.147 75.8345 10.1577 75.9269 10.1648V12.2635C75.8416 12.2422 75.6889 12.2209 75.4688 12.1996C75.2486 12.1712 75.0071 12.157 74.7443 12.157C74.1122 12.157 73.5689 12.3772 73.1144 12.8175C72.6669 13.2578 72.4432 13.9361 72.4432 14.8523V21.5H70.1953ZM77.461 21.6811C77.049 21.6811 76.6975 21.5391 76.4063 21.255C76.1222 20.9638 75.9801 20.6087 75.9801 20.1897C75.9801 19.7777 76.1222 19.4262 76.4063 19.135C76.6975 18.8438 77.049 18.6982 77.461 18.6982C77.88 18.6982 78.2316 18.8438 78.5156 19.135C78.8068 19.4262 78.9524 19.7777 78.9524 20.1897C78.9524 20.6087 78.8068 20.9638 78.5156 21.255C78.2316 21.5391 77.88 21.6811 77.461 21.6811ZM85.3978 21.7664C84.5384 21.7664 83.7642 21.6279 83.0753 21.3509C82.3864 21.0739 81.8289 20.662 81.4027 20.1151C80.9837 19.5682 80.7493 18.8899 80.6996 18.0803H82.9155C83.0433 19.3445 83.8566 19.9766 85.3551 19.9766C86.0654 19.9766 86.6264 19.831 87.0384 19.5398C87.4574 19.2486 87.6669 18.8793 87.6669 18.4318C87.6669 18.0483 87.5178 17.7429 87.2195 17.5157C86.9212 17.2813 86.5306 17.1108 86.0476 17.0043L84.1833 16.5888C82.0313 16.1201 80.9553 15.0476 80.9553 13.3715C80.9553 12.3772 81.3495 11.5675 82.1378 10.9425C82.9333 10.3175 83.9737 10.005 85.2593 10.005C86.5306 10.005 87.5746 10.3353 88.3914 10.9958C89.2152 11.6492 89.6414 12.5441 89.6698 13.6804H87.5178C87.5107 13.1336 87.3047 12.6826 86.8999 12.3274C86.4951 11.9652 85.9588 11.7841 85.2912 11.7841C84.652 11.7841 84.1442 11.9333 83.7678 12.2316C83.3914 12.5299 83.2031 12.8956 83.2031 13.3289C83.2031 13.7124 83.3452 14.0213 83.6293 14.2557C83.9205 14.4901 84.3182 14.6641 84.8225 14.7777L86.7401 15.2039C87.8338 15.4453 88.6399 15.8182 89.1584 16.3225C89.6769 16.8267 89.9361 17.4872 89.9361 18.304C89.9361 19.0213 89.7372 19.6392 89.3395 20.1577C88.9489 20.6691 88.4127 21.0668 87.7308 21.3509C87.049 21.6279 86.2713 21.7664 85.3978 21.7664ZM97.5639 10.25V12.1037H95.2841V18.5277C95.2841 18.9468 95.3693 19.238 95.5398 19.4013C95.7103 19.5647 96.0192 19.6463 96.4666 19.6463H97.5639V21.5H96.147C94.0661 21.5 93.0256 20.6051 93.0256 18.8154V12.1037H91.0441V10.25H93.0256V7.18185H95.2841V10.25H97.5639ZM103.413 21.7238C102.646 21.7238 101.953 21.5568 101.335 21.223C100.724 20.8821 100.238 20.3814 99.8757 19.7209C99.5206 19.0604 99.3431 18.2401 99.3431 17.26V10.25H101.591V16.983C101.591 17.885 101.808 18.5668 102.241 19.0284C102.674 19.483 103.281 19.7103 104.063 19.7103C104.822 19.7103 105.462 19.4759 105.98 19.0071C106.506 18.5313 106.768 17.7713 106.768 16.7273V10.25H109.016V21.5H106.811V19.8061C106.044 21.0845 104.911 21.7238 103.413 21.7238ZM115.877 21.7238C114.897 21.7238 114.041 21.4787 113.31 20.9887C112.578 20.4915 112.01 19.8061 111.605 18.9326C111.2 18.0519 110.998 17.0327 110.998 15.875C110.998 14.7174 111.2 13.7017 111.605 12.8282C112.017 11.9475 112.589 11.2621 113.32 10.772C114.052 10.2749 114.901 10.0263 115.866 10.0263C116.598 10.0263 117.266 10.179 117.869 10.4844C118.473 10.7898 118.956 11.255 119.318 11.88H119.34V5.62645H121.587V21.5H119.382V19.7848H119.361C118.984 20.4382 118.491 20.9247 117.88 21.2443C117.276 21.564 116.609 21.7238 115.877 21.7238ZM116.335 19.7848C117.294 19.7848 118.058 19.4297 118.626 18.7195C119.201 18.0022 119.489 17.054 119.489 15.875C119.489 14.689 119.201 13.7408 118.626 13.0306C118.058 12.3132 117.294 11.9546 116.335 11.9546C115.426 11.9546 114.688 12.2919 114.119 12.9666C113.558 13.6343 113.278 14.6037 113.278 15.875C113.278 17.1463 113.558 18.1158 114.119 18.7834C114.688 19.451 115.426 19.7848 116.335 19.7848ZM124.123 21.5V10.25H126.371V21.5H124.123ZM125.242 8.31111C124.844 8.31111 124.506 8.17972 124.229 7.91693C123.96 7.64705 123.825 7.32034 123.825 6.93682C123.825 6.5462 123.96 6.21949 124.229 5.95671C124.506 5.68682 124.844 5.55188 125.242 5.55188C125.639 5.55188 125.977 5.68682 126.254 5.95671C126.531 6.21949 126.669 6.5462 126.669 6.93682C126.669 7.32034 126.531 7.64705 126.254 7.91693C125.977 8.17972 125.639 8.31111 125.242 8.31111ZM133.754 21.7557C132.681 21.7557 131.74 21.5071 130.93 21.01C130.121 20.5128 129.489 19.8239 129.034 18.9432C128.587 18.0625 128.363 17.0469 128.363 15.8963C128.363 14.7316 128.587 13.7088 129.034 12.8282C129.489 11.9404 130.121 11.2479 130.93 10.7507C131.74 10.2465 132.681 9.99435 133.754 9.99435C134.826 9.99435 135.764 10.2465 136.566 10.7507C137.376 11.2479 138.004 11.9404 138.452 12.8282C138.906 13.7088 139.134 14.7316 139.134 15.8963C139.134 17.0469 138.906 18.0625 138.452 18.9432C138.004 19.8239 137.376 20.5128 136.566 21.01C135.764 21.5071 134.826 21.7557 133.754 21.7557ZM133.754 19.8168C134.719 19.8168 135.479 19.4617 136.033 18.7515C136.587 18.0412 136.864 17.0895 136.864 15.8963C136.864 14.689 136.584 13.7266 136.023 13.0093C135.469 12.2919 134.712 11.9333 133.754 11.9333C132.795 11.9333 132.035 12.2919 131.474 13.0093C130.92 13.7195 130.643 14.6818 130.643 15.8963C130.643 17.0966 130.92 18.0519 131.474 18.7621C132.028 19.4652 132.788 19.8168 133.754 19.8168Z" fill="#061C23"/>
<path fill-rule="evenodd" clip-rule="evenodd" d="M13.2186 5.06248C17.979 6.33801 20.804 11.231 19.5284 15.9914C18.2529 20.7517 13.3599 23.5767 8.59954 22.3012C3.83921 21.0256 1.01422 16.1326 2.28974 11.3723C3.56527 6.61195 8.4583 3.78695 13.2186 5.06248ZM13.7319 3.14707C19.5501 4.70605 23.0028 10.6864 21.4438 16.5046C19.8849 22.3228 13.9045 25.7756 8.08631 24.2166C2.26813 22.6576 -1.18465 16.6772 0.374333 10.859C1.93331 5.04086 7.91368 1.58809 13.7319 3.14707ZM13.5493 20.0565C14.3865 19.7097 15.1471 19.2015 15.7878 18.5608L14.326 17.099C13.8773 17.5477 13.3445 17.9037 12.7582 18.1465C12.1719 18.3894 11.5435 18.5144 10.9089 18.5144C10.2743 18.5144 9.64593 18.3894 9.05963 18.1465C8.47333 17.9037 7.94061 17.5477 7.49187 17.099L6.03008 18.5608C6.67078 19.2015 7.4314 19.7097 8.26852 20.0565C9.10563 20.4032 10.0028 20.5817 10.9089 20.5817C11.815 20.5817 12.7122 20.4032 13.5493 20.0565Z" fill="#217DE9"/>
</svg>
