<svg width="141" height="26" viewBox="0 0 141 26" fill="none" xmlns="http://www.w3.org/2000/svg">
<path d="M39.4496 9.75V11.6037H37.1591V21H34.9112V11.6037H32.8977V9.75H34.9112V7.92827C34.9112 7.04048 35.1882 6.35156 35.7422 5.86151C36.3033 5.37145 37.0916 5.12642 38.1073 5.12642H39.4496V6.98011H38.4588C37.983 6.98011 37.6456 7.07955 37.4468 7.27841C37.255 7.47727 37.1591 7.81463 37.1591 8.29048V9.75H39.4496ZM45.7458 21.2557C44.6307 21.2557 43.6719 21.0036 42.8693 20.4993C42.0739 19.995 41.4595 19.3026 41.0263 18.4219C40.6002 17.5341 40.3871 16.5256 40.3871 15.3963C40.3871 14.2528 40.6108 13.2372 41.0583 12.3494C41.5057 11.4616 42.1236 10.7656 42.912 10.2614C43.7003 9.75 44.6058 9.49432 45.6286 9.49432C46.6939 9.49432 47.6172 9.7429 48.3985 10.2401C49.1868 10.7372 49.7976 11.4297 50.2308 12.3175C50.6641 13.1982 50.8807 14.2173 50.8807 15.375V15.9822H42.603C42.6456 16.9979 42.9368 17.8182 43.4766 18.4432C44.0235 19.0682 44.7905 19.3807 45.7777 19.3807C46.5164 19.3807 47.1236 19.2138 47.5995 18.88C48.0753 18.5462 48.3914 18.1129 48.5476 17.5803H50.7102C50.5753 18.3047 50.2735 18.9439 49.8047 19.4979C49.3431 20.0518 48.7607 20.4851 48.0576 20.7976C47.3615 21.103 46.5909 21.2557 45.7458 21.2557ZM42.6243 14.2777H48.6861C48.5938 13.3828 48.2777 12.6761 47.7379 12.1577C47.1982 11.6321 46.5022 11.3693 45.6499 11.3693C44.7976 11.3693 44.1016 11.6321 43.5618 12.1577C43.0291 12.6761 42.7166 13.3828 42.6243 14.2777ZM57.1556 21.2237C56.1754 21.2237 55.3196 20.9787 54.5881 20.4886C53.8566 19.9915 53.2884 19.3061 52.8835 18.4325C52.4787 17.5518 52.2763 16.5327 52.2763 15.375C52.2763 14.2173 52.4787 13.2017 52.8835 12.3281C53.2955 11.4474 53.8672 10.7621 54.5987 10.272C55.3303 9.77486 56.179 9.52628 57.1449 9.52628C57.8764 9.52628 58.5441 9.67898 59.1478 9.98437C59.7514 10.2898 60.2344 10.755 60.5966 11.38H60.6179V5.12642H62.8658V21H60.6605V19.2848H60.6392C60.2628 19.9382 59.7692 20.4247 59.1584 20.7443C58.5547 21.0639 57.8871 21.2237 57.1556 21.2237ZM57.6137 19.2848C58.5725 19.2848 59.336 18.9297 59.9041 18.2195C60.4794 17.5021 60.7671 16.554 60.7671 15.375C60.7671 14.1889 60.4794 13.2408 59.9041 12.5305C59.336 11.8132 58.5725 11.4545 57.6137 11.4545C56.7046 11.4545 55.9659 11.7919 55.3978 12.4666C54.8367 13.1342 54.5561 14.1037 54.5561 15.375C54.5561 16.6463 54.8367 17.6158 55.3978 18.2834C55.9659 18.951 56.7046 19.2848 57.6137 19.2848ZM65.4013 21V9.75H67.6492V21H65.4013ZM66.5199 7.81108C66.1222 7.81108 65.7848 7.67969 65.5078 7.4169C65.2379 7.14702 65.103 6.82031 65.103 6.43679C65.103 6.04616 65.2379 5.71946 65.5078 5.45668C65.7848 5.18679 66.1222 5.05185 66.5199 5.05185C66.9176 5.05185 67.255 5.18679 67.532 5.45668C67.809 5.71946 67.9475 6.04616 67.9475 6.43679C67.9475 6.82031 67.809 7.14702 67.532 7.4169C67.255 7.67969 66.9176 7.81108 66.5199 7.81108ZM70.1953 21V9.75H72.3473V11.5717H72.3899C72.5959 10.9538 72.9191 10.4744 73.3594 10.1335C73.8068 9.78551 74.3892 9.61151 75.1066 9.61151C75.277 9.61151 75.4333 9.61861 75.5753 9.63281C75.7174 9.64702 75.8345 9.65767 75.9269 9.66477V11.7635C75.8416 11.7422 75.6889 11.7209 75.4688 11.6996C75.2486 11.6712 75.0071 11.657 74.7443 11.657C74.1122 11.657 73.5689 11.8771 73.1144 12.3175C72.6669 12.7578 72.4432 13.4361 72.4432 14.3523V21H70.1953ZM77.461 21.1811C77.049 21.1811 76.6975 21.0391 76.4063 20.755C76.1222 20.4638 75.9801 20.1087 75.9801 19.6896C75.9801 19.2777 76.1222 18.9261 76.4063 18.6349C76.6975 18.3437 77.049 18.1982 77.461 18.1982C77.88 18.1982 78.2316 18.3437 78.5156 18.6349C78.8068 18.9261 78.9524 19.2777 78.9524 19.6896C78.9524 20.1087 78.8068 20.4638 78.5156 20.755C78.2316 21.0391 77.88 21.1811 77.461 21.1811ZM85.3978 21.2663C84.5384 21.2663 83.7642 21.1278 83.0753 20.8509C82.3864 20.5739 81.8289 20.1619 81.4027 19.6151C80.9837 19.0682 80.7493 18.3899 80.6996 17.5803H82.9155C83.0433 18.8445 83.8566 19.4766 85.3551 19.4766C86.0654 19.4766 86.6264 19.331 87.0384 19.0398C87.4574 18.7486 87.6669 18.3793 87.6669 17.9318C87.6669 17.5483 87.5178 17.2429 87.2195 17.0156C86.9212 16.7812 86.5306 16.6108 86.0476 16.5043L84.1833 16.0888C82.0313 15.62 80.9553 14.5476 80.9553 12.8714C80.9553 11.8771 81.3495 11.0675 82.1378 10.4425C82.9333 9.81747 83.9737 9.50497 85.2593 9.50497C86.5306 9.50497 87.5746 9.83523 88.3914 10.4957C89.2152 11.1491 89.6414 12.044 89.6698 13.1804H87.5178C87.5107 12.6335 87.3047 12.1825 86.8999 11.8274C86.4951 11.4652 85.9588 11.2841 85.2912 11.2841C84.652 11.2841 84.1442 11.4332 83.7678 11.7315C83.3914 12.0298 83.2031 12.3956 83.2031 12.8288C83.2031 13.2124 83.3452 13.5213 83.6293 13.7557C83.9205 13.9901 84.3182 14.1641 84.8225 14.2777L86.7401 14.7038C87.8338 14.9453 88.6399 15.3182 89.1584 15.8224C89.6769 16.3267 89.9361 16.9872 89.9361 17.804C89.9361 18.5213 89.7372 19.1392 89.3395 19.6577C88.9489 20.169 88.4127 20.5668 87.7308 20.8509C87.049 21.1278 86.2713 21.2663 85.3978 21.2663ZM97.5639 9.75V11.6037H95.2841V18.0277C95.2841 18.4467 95.3693 18.7379 95.5398 18.9013C95.7103 19.0646 96.0192 19.1463 96.4666 19.1463H97.5639V21H96.147C94.0661 21 93.0256 20.1051 93.0256 18.3153V11.6037H91.0441V9.75H93.0256V6.68182H95.2841V9.75H97.5639ZM103.413 21.2237C102.646 21.2237 101.953 21.0568 101.335 20.723C100.724 20.3821 100.238 19.8814 99.8757 19.2209C99.5206 18.5604 99.3431 17.7401 99.3431 16.7599V9.75H101.591V16.483C101.591 17.3849 101.808 18.0668 102.241 18.5284C102.674 18.983 103.281 19.2102 104.063 19.2102C104.822 19.2102 105.462 18.9759 105.98 18.5071C106.506 18.0312 106.768 17.2713 106.768 16.2273V9.75H109.016V21H106.811V19.3061C106.044 20.5845 104.911 21.2237 103.413 21.2237ZM115.877 21.2237C114.897 21.2237 114.041 20.9787 113.31 20.4886C112.578 19.9915 112.01 19.3061 111.605 18.4325C111.2 17.5518 110.998 16.5327 110.998 15.375C110.998 14.2173 111.2 13.2017 111.605 12.3281C112.017 11.4474 112.589 10.7621 113.32 10.272C114.052 9.77486 114.901 9.52628 115.866 9.52628C116.598 9.52628 117.266 9.67898 117.869 9.98437C118.473 10.2898 118.956 10.755 119.318 11.38H119.34V5.12642H121.587V21H119.382V19.2848H119.361C118.984 19.9382 118.491 20.4247 117.88 20.7443C117.276 21.0639 116.609 21.2237 115.877 21.2237ZM116.335 19.2848C117.294 19.2848 118.058 18.9297 118.626 18.2195C119.201 17.5021 119.489 16.554 119.489 15.375C119.489 14.1889 119.201 13.2408 118.626 12.5305C118.058 11.8132 117.294 11.4545 116.335 11.4545C115.426 11.4545 114.688 11.7919 114.119 12.4666C113.558 13.1342 113.278 14.1037 113.278 15.375C113.278 16.6463 113.558 17.6158 114.119 18.2834C114.688 18.951 115.426 19.2848 116.335 19.2848ZM124.123 21V9.75H126.371V21H124.123ZM125.242 7.81108C124.844 7.81108 124.506 7.67969 124.229 7.4169C123.96 7.14702 123.825 6.82031 123.825 6.43679C123.825 6.04616 123.96 5.71946 124.229 5.45668C124.506 5.18679 124.844 5.05185 125.242 5.05185C125.639 5.05185 125.977 5.18679 126.254 5.45668C126.531 5.71946 126.669 6.04616 126.669 6.43679C126.669 6.82031 126.531 7.14702 126.254 7.4169C125.977 7.67969 125.639 7.81108 125.242 7.81108ZM133.754 21.2557C132.681 21.2557 131.74 21.0071 130.93 20.5099C130.121 20.0128 129.489 19.3239 129.034 18.4432C128.587 17.5625 128.363 16.5469 128.363 15.3963C128.363 14.2315 128.587 13.2088 129.034 12.3281C129.489 11.4403 130.121 10.7479 130.93 10.2507C131.74 9.74645 132.681 9.49432 133.754 9.49432C134.826 9.49432 135.764 9.74645 136.566 10.2507C137.376 10.7479 138.004 11.4403 138.452 12.3281C138.906 13.2088 139.134 14.2315 139.134 15.3963C139.134 16.5469 138.906 17.5625 138.452 18.4432C138.004 19.3239 137.376 20.0128 136.566 20.5099C135.764 21.0071 134.826 21.2557 133.754 21.2557ZM133.754 19.3168C134.719 19.3168 135.479 18.9616 136.033 18.2514C136.587 17.5412 136.864 16.5895 136.864 15.3963C136.864 14.1889 136.584 13.2266 136.023 12.5092C135.469 11.7919 134.712 11.4332 133.754 11.4332C132.795 11.4332 132.035 11.7919 131.474 12.5092C130.92 13.2195 130.643 14.1818 130.643 15.3963C130.643 16.5966 130.92 17.5518 131.474 18.2621C132.028 18.9652 132.788 19.3168 133.754 19.3168Z" fill="#FAFCFC"/>
<path fill-rule="evenodd" clip-rule="evenodd" d="M13.2186 4.56269C17.979 5.83822 20.804 10.7313 19.5284 15.4916C18.2529 20.2519 13.3599 23.0769 8.59954 21.8014C3.83921 20.5259 1.01422 15.6328 2.28974 10.8725C3.56527 6.11216 8.4583 3.28717 13.2186 4.56269ZM13.7319 2.64728C19.5501 4.20626 23.0028 10.1866 21.4438 16.0048C19.8849 21.823 13.9045 25.2758 8.08631 23.7168C2.26813 22.1578 -1.18465 16.1774 0.374333 10.3593C1.93331 4.54107 7.91368 1.0883 13.7319 2.64728ZM13.5493 19.5567C14.3865 19.2099 15.1471 18.7017 15.7878 18.061L14.326 16.5992C13.8773 17.0479 13.3445 17.4039 12.7582 17.6467C12.1719 17.8896 11.5435 18.0146 10.9089 18.0146C10.2743 18.0146 9.64593 17.8896 9.05963 17.6467C8.47333 17.4039 7.94061 17.0479 7.49187 16.5992L6.03008 18.061C6.67078 18.7017 7.4314 19.2099 8.26852 19.5567C9.10563 19.9034 10.0028 20.0819 10.9089 20.0819C11.815 20.0819 12.7122 19.9034 13.5493 19.5567Z" fill="#FAFCFC"/>
</svg>
