<svg width="30" height="38" viewBox="0 0 30 38" fill="none" xmlns="http://www.w3.org/2000/svg">
<path d="M20.5356 23.4713L17.1407 24.5092V18.0865L14.7836 24.0925L12.2564 24.8652L9.89843 20.3007V26.7234L6.50256 27.7616V16.0368L10.6194 14.7781L13.528 20.0106L16.4215 13.0042L20.5356 11.7465V23.4713Z" fill="#061C23" fill-opacity="0.6"/>
<path d="M0.200012 10.4987V11.7738V37.1475L26.8489 29.0002L26.8487 9.60498L24.2978 10.3849L24.2979 27.2299L2.74997 33.8177V12.2693L19.5953 7.12036V4.57019L0.200012 10.4987Z" fill="#061C23" fill-opacity="0.6"/>
<path d="M24.2977 0.779914V3.13126L21.9463 3.85013V6.4011L24.2977 5.68224V8.03356L26.8487 7.25367V4.90232L29.2 4.18346V1.63248L26.8487 2.35132V0L24.2977 0.779914Z" fill="#061C23" fill-opacity="0.6"/>
</svg>
