<svg width="33" height="32" viewBox="0 0 33 32" fill="none" xmlns="http://www.w3.org/2000/svg">
<rect x="0.612427" width="32" height="32" rx="2" fill="#217DE9"/>
<g clip-path="url(#clip0_17_147)">
<path d="M16.6124 25C14.2255 25 11.9363 24.0518 10.2485 22.364C8.56064 20.6761 7.61243 18.3869 7.61243 16C7.61243 13.6131 8.56064 11.3239 10.2485 9.63604C11.9363 7.94821 14.2255 7 16.6124 7C21.5824 7 25.6124 10.582 25.6124 15C25.6124 16.06 25.1384 17.078 24.2944 17.828C23.4504 18.578 22.3054 19 21.1124 19H18.6124C18.1663 18.9928 17.7306 19.135 17.3745 19.404C17.0185 19.673 16.7627 20.0533 16.6477 20.4844C16.5328 20.9155 16.5653 21.3727 16.7401 21.7833C16.9149 22.1938 17.2219 22.5341 17.6124 22.75C17.8121 22.9342 17.949 23.1764 18.004 23.4425C18.0589 23.7085 18.0291 23.9851 17.9188 24.2334C17.8085 24.4816 17.6231 24.6891 17.3888 24.8266C17.1545 24.9641 16.883 25.0247 16.6124 25Z" stroke="#FAFCFC" stroke-width="2" stroke-linecap="round" stroke-linejoin="round"/>
<path d="M12.1124 14.5C12.1124 14.7652 12.2178 15.0196 12.4053 15.2071C12.5929 15.3946 12.8472 15.5 13.1124 15.5C13.3776 15.5 13.632 15.3946 13.8195 15.2071C14.0071 15.0196 14.1124 14.7652 14.1124 14.5C14.1124 14.2348 14.0071 13.9804 13.8195 13.7929C13.632 13.6054 13.3776 13.5 13.1124 13.5C12.8472 13.5 12.5929 13.6054 12.4053 13.7929C12.2178 13.9804 12.1124 14.2348 12.1124 14.5Z" stroke="#FAFCFC" stroke-width="2" stroke-linecap="round" stroke-linejoin="round"/>
<path d="M16.1124 11.5C16.1124 11.7652 16.2178 12.0196 16.4053 12.2071C16.5929 12.3946 16.8472 12.5 17.1124 12.5C17.3776 12.5 17.632 12.3946 17.8195 12.2071C18.0071 12.0196 18.1124 11.7652 18.1124 11.5C18.1124 11.2348 18.0071 10.9804 17.8195 10.7929C17.632 10.6054 17.3776 10.5 17.1124 10.5C16.8472 10.5 16.5929 10.6054 16.4053 10.7929C16.2178 10.9804 16.1124 11.2348 16.1124 11.5Z" stroke="#FAFCFC" stroke-width="2" stroke-linecap="round" stroke-linejoin="round"/>
<path d="M20.1124 14.5C20.1124 14.7652 20.2178 15.0196 20.4053 15.2071C20.5929 15.3946 20.8472 15.5 21.1124 15.5C21.3776 15.5 21.632 15.3946 21.8195 15.2071C22.0071 15.0196 22.1124 14.7652 22.1124 14.5C22.1124 14.2348 22.0071 13.9804 21.8195 13.7929C21.632 13.6054 21.3776 13.5 21.1124 13.5C20.8472 13.5 20.5929 13.6054 20.4053 13.7929C20.2178 13.9804 20.1124 14.2348 20.1124 14.5Z" stroke="#FAFCFC" stroke-width="2" stroke-linecap="round" stroke-linejoin="round"/>
</g>
<defs>
<clipPath id="clip0_17_147">
<rect width="24" height="24" fill="white" transform="translate(4.61243 4)"/>
</clipPath>
</defs>
</svg>
