<svg width="128" height="25" viewBox="0 0 128 25" fill="none" xmlns="http://www.w3.org/2000/svg">
<path d="M0 5.65128V16.3699C0 20.8095 3.59949 24.4086 8.03912 24.4086C12.4788 24.4086 16.0778 20.8095 16.0778 16.3699V5.65128H0ZM2.55669 8.10747H13.522V16.2938C13.522 19.3216 11.0668 21.7761 8.03912 21.7761C5.01093 21.7761 2.55669 19.3217 2.55669 16.2938V8.10747Z" fill="#061C23" fill-opacity="0.6"/>
<path d="M0 0.738953V3.19515H16.0782V0.738953H0Z" fill="#061C23" fill-opacity="0.6"/>
<path d="M29.7236 19.8607C28.7965 19.8607 27.9657 19.7102 27.2313 19.4092C26.4968 19.1082 25.9069 18.6627 25.4615 18.0728C25.028 17.4828 24.7993 16.7725 24.7752 15.9418H28.062C28.1102 16.4113 28.2728 16.7725 28.5497 17.0253C28.8266 17.2661 29.1878 17.3865 29.6332 17.3865C30.0908 17.3865 30.452 17.2842 30.7169 17.0796C30.9818 16.8628 31.1143 16.5678 31.1143 16.1946C31.1143 15.8816 31.0059 15.6227 30.7892 15.418C30.5845 15.2133 30.3256 15.0448 30.0126 14.9124C29.7116 14.7799 29.2781 14.6294 28.7122 14.4609C27.8935 14.208 27.2252 13.9552 26.7075 13.7023C26.1898 13.4495 25.7444 13.0762 25.3712 12.5826C24.9979 12.0889 24.8113 11.4448 24.8113 10.6502C24.8113 9.47024 25.2387 8.54921 26.0935 7.88704C26.9483 7.2128 28.0621 6.87567 29.4347 6.87567C30.8313 6.87567 31.957 7.2128 32.8118 7.88704C33.6666 8.54921 34.1242 9.47624 34.1843 10.6682H30.8433C30.8192 10.2589 30.6687 9.93985 30.3918 9.71109C30.1149 9.47026 29.7598 9.34991 29.3263 9.34991C28.9531 9.34991 28.6521 9.45215 28.4233 9.65684C28.1945 9.8495 28.0802 10.1325 28.0802 10.5057C28.0802 10.9151 28.2728 11.2341 28.6581 11.4628C29.0433 11.6916 29.6453 11.9385 30.4641 12.2034C31.2828 12.4803 31.945 12.7452 32.4506 12.998C32.9683 13.2508 33.4138 13.6181 33.7871 14.0997C34.1603 14.5813 34.3469 15.2013 34.3469 15.9598C34.3469 16.6822 34.1603 17.3383 33.7871 17.9283C33.4259 18.5183 32.8961 18.9878 32.1978 19.3369C31.4995 19.6861 30.6747 19.8607 29.7236 19.8607Z" fill="#061C23" fill-opacity="0.6"/>
<path d="M35.6294 14.6777C35.6294 13.6422 35.822 12.7332 36.2073 11.9506C36.6046 11.168 37.1404 10.566 37.8146 10.1446C38.4889 9.72325 39.2414 9.51248 40.0721 9.51248C40.7825 9.51248 41.4026 9.65698 41.9324 9.94594C42.4742 10.2349 42.8895 10.6142 43.1784 11.0837V9.65693H46.2666V19.7344H43.1784V18.3076C42.8774 18.7772 42.456 19.1564 41.9142 19.4454C41.3845 19.7344 40.7645 19.8789 40.0541 19.8789C39.2354 19.8789 38.4889 19.6682 37.8146 19.2468C37.1404 18.8134 36.6046 18.2054 36.2073 17.4228C35.822 16.6281 35.6294 15.7131 35.6294 14.6777ZM43.1784 14.6955C43.1784 13.9249 42.9617 13.3169 42.5283 12.8714C42.1069 12.426 41.5892 12.2032 40.9751 12.2032C40.3611 12.2032 39.8373 12.426 39.4039 12.8714C38.9825 13.3049 38.7719 13.9069 38.7719 14.6774C38.7719 15.448 38.9825 16.062 39.4039 16.5195C39.8373 16.965 40.3611 17.1878 40.9751 17.1878C41.5892 17.1878 42.1069 16.965 42.5283 16.5195C42.9617 16.074 43.1784 15.466 43.1784 14.6955Z" fill="#061C23" fill-opacity="0.6"/>
<path d="M53.5629 12.2215H51.9013V19.7344H48.8131V12.2215H47.6934V9.65693H48.8131V9.36804C48.8131 8.1279 49.1682 7.18877 49.8786 6.55067C50.5889 5.90053 51.6305 5.5755 53.003 5.5755C53.2318 5.5755 53.4003 5.5814 53.5086 5.5933V8.21198C52.9187 8.17585 52.5033 8.2601 52.2625 8.46479C52.0217 8.66945 51.9013 9.03673 51.9013 9.56649V9.65681H53.5629V12.2215Z" fill="#061C23" fill-opacity="0.6"/>
<path d="M64.507 14.5331C64.507 14.8221 64.489 15.1231 64.4529 15.4361H57.4636C57.5118 16.0622 57.7104 16.5438 58.0596 16.881C58.4208 17.206 58.8603 17.3685 59.378 17.3685C60.1485 17.3685 60.6843 17.0435 60.9853 16.3934H64.2722C64.1037 17.0555 63.7967 17.6515 63.3512 18.1812C62.9178 18.711 62.3699 19.1264 61.7077 19.4274C61.0454 19.7284 60.305 19.8789 59.4864 19.8789C58.4991 19.8789 57.6202 19.6682 56.8496 19.2468C56.0791 18.8254 55.4771 18.2234 55.0436 17.4408C54.6102 16.6582 54.3934 15.7432 54.3934 14.6957C54.3934 13.6482 54.6042 12.7332 55.0256 11.9506C55.459 11.168 56.061 10.566 56.8316 10.1446C57.6021 9.72325 58.487 9.51248 59.4864 9.51248C60.4616 9.51248 61.3285 9.71724 62.087 10.1266C62.8455 10.536 63.4354 11.1199 63.8568 11.8784C64.2902 12.6369 64.507 13.5218 64.507 14.5331ZM61.3465 13.7204C61.3465 13.1907 61.1659 12.7693 60.8047 12.4563C60.4435 12.1432 59.992 11.9867 59.4502 11.9867C58.9325 11.9867 58.4931 12.1372 58.1318 12.4382C57.7827 12.7392 57.5659 13.1666 57.4817 13.7204H61.3465Z" fill="#061C23" fill-opacity="0.6"/>
<path d="M68.7989 11.3365C69.1601 10.7827 69.6116 10.3493 70.1534 10.0363C70.6952 9.71122 71.2972 9.54858 71.9594 9.54858V12.8175H71.1105C70.34 12.8175 69.7621 12.9861 69.3768 13.3232C68.9915 13.6483 68.7989 14.2262 68.7989 15.0569V19.7344H65.7107V9.65695H68.7989V11.3365Z" fill="#061C23" fill-opacity="0.6"/>
<path d="M78.6118 7.0563C79.9483 7.0563 81.1162 7.32118 82.1155 7.85094C83.1148 8.3807 83.8853 9.1272 84.4271 10.0904C84.981 11.0416 85.2578 12.1432 85.2578 13.3954C85.2578 14.6355 84.981 15.7371 84.4271 16.7003C83.8853 17.6635 83.1087 18.41 82.0973 18.9398C81.098 19.4696 79.9362 19.7344 78.6118 19.7344H73.8621V7.0563H78.6118ZM78.4132 17.0615C79.581 17.0615 80.49 16.7425 81.1402 16.1044C81.7903 15.4663 82.1155 14.5632 82.1155 13.3954C82.1155 12.2275 81.7903 11.3185 81.1402 10.6683C80.49 10.0181 79.581 9.69315 78.4132 9.69315H76.9503V17.0615H78.4132Z" fill="#061C23" fill-opacity="0.6"/>
<path d="M90.08 11.3366C90.4413 10.7827 90.8928 10.3494 91.4346 10.0363C91.9763 9.71125 92.5783 9.54861 93.2406 9.54861V12.8175H92.3918C91.6212 12.8175 91.0434 12.9861 90.6581 13.3232C90.2728 13.6483 90.08 14.2262 90.08 15.057V19.7345H86.9918V9.65698H90.08V11.3366Z" fill="#061C23" fill-opacity="0.6"/>
<path d="M96.2745 8.60947C95.7327 8.60947 95.2872 8.45296 94.938 8.13993C94.6009 7.81486 94.4324 7.41759 94.4324 6.94803C94.4324 6.46641 94.6009 6.06905 94.938 5.75602C95.2872 5.43095 95.7327 5.26843 96.2745 5.26843C96.8042 5.26843 97.2376 5.43095 97.5747 5.75602C97.9239 6.06905 98.0985 6.46641 98.0985 6.94803C98.0985 7.41759 97.9239 7.81486 97.5747 8.13993C97.2376 8.45296 96.8042 8.60947 96.2745 8.60947ZM97.8095 9.65692V19.7344H94.7213V9.65692H97.8095Z" fill="#061C23" fill-opacity="0.6"/>
<path d="M104.582 16.8449L106.768 9.65698H110.054L106.478 19.7345H102.668L99.092 9.65698H102.397L104.582 16.8449Z" fill="#061C23" fill-opacity="0.6"/>
<path d="M120.292 14.5331C120.292 14.8221 120.274 15.1231 120.238 15.4362H113.248C113.296 16.0622 113.495 16.5438 113.844 16.881C114.206 17.2061 114.645 17.3686 115.163 17.3686C115.933 17.3686 116.469 17.0435 116.77 16.3934H120.057C119.888 17.0556 119.581 17.6515 119.136 18.1812C118.702 18.711 118.155 19.1264 117.493 19.4274C116.83 19.7284 116.09 19.8789 115.271 19.8789C114.284 19.8789 113.405 19.6683 112.634 19.2469C111.864 18.8255 111.262 18.2234 110.828 17.4408C110.395 16.6583 110.178 15.7432 110.178 14.6958C110.178 13.6483 110.389 12.7333 110.81 11.9507C111.244 11.1681 111.846 10.5661 112.616 10.1447C113.387 9.72328 114.272 9.51251 115.271 9.51251C116.246 9.51251 117.113 9.71728 117.872 10.1266C118.63 10.536 119.22 11.1199 119.642 11.8784C120.075 12.6369 120.292 13.5218 120.292 14.5331ZM117.131 13.7205C117.131 13.1907 116.951 12.7693 116.59 12.4563C116.228 12.1433 115.777 11.9867 115.235 11.9867C114.717 11.9867 114.278 12.1373 113.917 12.4383C113.567 12.7393 113.351 13.1666 113.266 13.7205H117.131Z" fill="#061C23" fill-opacity="0.6"/>
<path d="M124.839 11.3366C125.201 10.7827 125.652 10.3494 126.194 10.0363C126.736 9.71125 127.338 9.54861 128 9.54861V12.8175H127.151C126.38 12.8175 125.803 12.9861 125.417 13.3232C125.032 13.6483 124.839 14.2262 124.839 15.057V19.7345H121.751V9.65698H124.839V11.3366Z" fill="#061C23" fill-opacity="0.6"/>
</svg>
