<svg width="20" height="20" viewBox="0 0 20 20" fill="none" xmlns="http://www.w3.org/2000/svg">
<g clip-path="url(#clip0_49_2)">
<path d="M2.49988 8.33333C2.49988 9.09938 2.65076 9.85792 2.94391 10.5657C3.23707 11.2734 3.66675 11.9164 4.20842 12.4581C4.7501 12.9998 5.39316 13.4295 6.10089 13.7226C6.80862 14.0158 7.56717 14.1667 8.33321 14.1667C9.09926 14.1667 9.8578 14.0158 10.5655 13.7226C11.2733 13.4295 11.9163 12.9998 12.458 12.4581C12.9997 11.9164 13.4294 11.2734 13.7225 10.5657C14.0157 9.85792 14.1665 9.09938 14.1665 8.33333C14.1665 7.56729 14.0157 6.80875 13.7225 6.10101C13.4294 5.39328 12.9997 4.75022 12.458 4.20854C11.9163 3.66687 11.2733 3.23719 10.5655 2.94404C9.8578 2.65088 9.09926 2.5 8.33321 2.5C7.56717 2.5 6.80862 2.65088 6.10089 2.94404C5.39316 3.23719 4.7501 3.66687 4.20842 4.20854C3.66675 4.75022 3.23707 5.39328 2.94391 6.10101C2.65076 6.80875 2.49988 7.56729 2.49988 8.33333Z" stroke="white" stroke-width="2" stroke-linecap="round" stroke-linejoin="round"/>
<path d="M17.4999 17.5L12.4999 12.5" stroke="white" stroke-width="2" stroke-linecap="round" stroke-linejoin="round"/>
</g>
<defs>
<clipPath id="clip0_49_2">
<rect width="20" height="20" fill="white"/>
</clipPath>
</defs>
</svg>
