<svg width="32" height="32" viewBox="0 0 32 32" fill="none" xmlns="http://www.w3.org/2000/svg">
<rect width="32" height="32" rx="2" fill="white"/>
<rect x="0.5" y="0.5" width="31" height="31" rx="1.5" stroke="#1F74D9" stroke-opacity="0.15"/>
<g clip-path="url(#clip0_17_159)">
<path d="M7 11V16C7 16.7956 7.31607 17.5587 7.87868 18.1213C8.44129 18.6839 9.20435 19 10 19C10.7956 19 11.5587 18.6839 12.1213 18.1213C12.6839 17.5587 13 16.7956 13 16V11H14L18 17C18.824 18.319 19.945 19 21.5 19C22.4283 19 23.3185 18.6313 23.9749 17.9749C24.6313 17.3185 25 16.4283 25 15.5C25 14.5717 24.6313 13.6815 23.9749 13.0251C23.3185 12.3687 22.4283 12 21.5 12C19.473 12 18.363 13 18 15C17.758 16.33 17.092 19 16 23" stroke="#1F74D9" stroke-width="2" stroke-linecap="round" stroke-linejoin="round"/>
</g>
<defs>
<clipPath id="clip0_17_159">
<rect width="24" height="24" fill="white" transform="translate(4 4)"/>
</clipPath>
</defs>
</svg>
