<svg width="33" height="32" viewBox="0 0 33 32" fill="none" xmlns="http://www.w3.org/2000/svg">
<rect x="0.612427" width="32" height="32" rx="2" fill="#217DE9"/>
<g clip-path="url(#clip0_17_159)">
<path d="M7.61243 11V16C7.61243 16.7956 7.9285 17.5587 8.49111 18.1213C9.05372 18.6839 9.81678 19 10.6124 19C11.4081 19 12.1711 18.6839 12.7337 18.1213C13.2964 17.5587 13.6124 16.7956 13.6124 16V11H14.6124L18.6124 17C19.4364 18.319 20.5574 19 22.1124 19C23.0407 19 23.9309 18.6313 24.5873 17.9749C25.2437 17.3185 25.6124 16.4283 25.6124 15.5C25.6124 14.5717 25.2437 13.6815 24.5873 13.0251C23.9309 12.3687 23.0407 12 22.1124 12C20.0854 12 18.9754 13 18.6124 15C18.3704 16.33 17.7044 19 16.6124 23" stroke="#FAFCFC" stroke-width="2" stroke-linecap="round" stroke-linejoin="round"/>
</g>
<defs>
<clipPath id="clip0_17_159">
<rect width="24" height="24" fill="white" transform="translate(4.61243 4)"/>
</clipPath>
</defs>
</svg>
