<svg width="128" height="128" viewBox="0 0 128 128" fill="none" xmlns="http://www.w3.org/2000/svg">
<path d="M120.756 84.3515C120.873 85.0259 120.35 85.6437 119.662 85.6437H108.718L109.415 63.884H119.719C120.407 63.884 120.927 64.5019 120.806 65.1763L119.124 74.5735C119.102 74.6995 119.101 74.8283 119.123 74.9543L120.756 84.3515Z" fill="#1775E5"/>
<path d="M7.24422 84.3515C7.12707 85.0259 7.64998 85.6437 8.33784 85.6437H19.282L18.5849 63.884H8.28073C7.59288 63.884 7.07323 64.5019 7.19389 65.1763L8.8757 74.5735C8.89824 74.6995 8.89859 74.8283 8.87669 74.9543L7.24422 84.3515Z" fill="#1775E5"/>
<path d="M101.887 20.0167C107.155 21.0202 110.906 25.7131 110.724 31.073L108.679 91.4433C108.555 95.1006 106.6 98.4507 103.478 100.359L69.6727 121.014C66.1903 123.142 61.8097 123.142 58.3273 121.014L24.5225 100.359C21.3998 98.4507 19.4454 95.1006 19.3215 91.4433L17.2756 31.073C17.094 25.713 20.8453 21.0202 26.1136 20.0167L61.9642 13.188C63.3094 12.9318 64.6906 12.9318 66.0358 13.188L101.887 20.0167Z" fill="#EAEAEB"/>
<path d="M101.412 25.3079C104.015 25.8581 105.841 28.2064 105.733 30.8646L103.338 89.7236C103.248 91.9514 102.073 93.9942 100.193 95.1933L67.6658 115.942C65.4301 117.368 62.5702 117.368 60.3343 115.942L27.8068 95.1933C25.9271 93.9942 24.7526 91.9514 24.6619 89.7236L22.2674 30.8646C22.1592 28.2064 23.9852 25.8581 26.5881 25.3079L62.5903 17.6977C63.52 17.5012 64.4803 17.5012 65.4098 17.6977L101.412 25.3079Z" fill="white"/>
<path d="M62.6094 7.42833C63.5057 6.91028 64.6106 6.91028 65.5072 7.42833L71.7379 11.0292C72.6333 11.5466 73.1849 12.5022 73.1849 13.5363V20.7946C73.1849 21.8287 72.6333 22.7843 71.7379 23.3017L65.5072 26.9025C64.6106 27.4206 63.5057 27.4206 62.6094 26.9025L56.3785 23.3017C55.483 22.7843 54.9318 21.8287 54.9318 20.7946V13.5363C54.9318 12.5022 55.483 11.5466 56.3785 11.0292L62.6094 7.42833Z" fill="#2187FF"/>
<path fill-rule="evenodd" clip-rule="evenodd" d="M66.4678 5.76604L72.6988 9.36691C74.1876 10.2274 75.1049 11.8167 75.1049 13.5364V20.7946C75.1049 22.5144 74.1876 24.1036 72.6988 24.9642L66.4678 28.565C64.9769 29.4266 63.1395 29.4266 61.6486 28.565L55.4179 24.9642C53.9287 24.1036 53.0118 22.5144 53.0118 20.7946V13.5364C53.0118 11.8167 53.9287 10.2274 55.4179 9.36691L61.6486 5.76604C63.1395 4.90448 64.9769 4.90448 66.4678 5.76604ZM65.5072 7.42841C64.6106 6.91036 63.5057 6.91036 62.6095 7.42841L56.3785 11.0293C55.4831 11.5467 54.9318 12.5023 54.9318 13.5364V20.7946C54.9318 21.8287 55.4831 22.7843 56.3785 23.3018L62.6095 26.9026C63.5057 27.4207 64.6106 27.4207 65.5072 26.9026L71.7379 23.3018C72.6333 22.7843 73.1849 21.8287 73.1849 20.7946V13.5364C73.1849 12.5023 72.6333 11.5467 71.7379 11.0293L65.5072 7.42841Z" fill="white"/>
<path fill-rule="evenodd" clip-rule="evenodd" d="M59.0682 14.6157C59.0682 14.4963 59.1974 14.4216 59.301 14.4813L62.9463 16.5844C63.0423 16.6399 63.1014 16.7423 63.1014 16.8532V21.9899C63.1014 22.1093 62.9722 22.184 62.869 22.1243L59.2236 20.0212C59.1273 19.9658 59.0682 19.8633 59.0682 19.7524V18.2031C59.0682 18.1437 59.1322 18.1063 59.184 18.1355L61.3312 19.3491C61.3827 19.3784 61.4467 19.341 61.4467 19.2816V17.6737C61.4467 17.5992 61.4066 17.5304 61.3417 17.4936L59.2259 16.2977C59.1285 16.2426 59.0682 16.1395 59.0682 16.0276V14.6157ZM68.8154 14.4813C68.9187 14.4216 69.0479 14.4963 69.0479 14.6157V16.0276C69.0479 16.1395 68.9877 16.2426 68.8905 16.2977L66.7744 17.4936C66.7095 17.5304 66.6694 17.5992 66.6694 17.6737V19.2816C66.6694 19.341 66.7334 19.3784 66.7852 19.3491L68.9324 18.1355C68.9839 18.1063 69.0479 18.1437 69.0479 18.2031V19.7524C69.0479 19.8633 68.9888 19.9658 68.8928 20.0212L65.2474 22.1243C65.1439 22.184 65.0147 22.1093 65.0147 21.9899V16.8532C65.0147 16.7423 65.0738 16.6399 65.1701 16.5844L68.8154 14.4813ZM63.751 11.6521C63.9415 11.5437 64.1749 11.5437 64.3651 11.6521L67.365 13.3601C67.4691 13.4193 67.4697 13.5693 67.3658 13.6292L65.8665 14.4951C65.8034 14.5316 65.7254 14.5321 65.6617 14.4964L64.1591 13.654C64.0963 13.6188 64.0198 13.6188 63.957 13.654L62.4544 14.4964C62.3907 14.5321 62.313 14.5316 62.2499 14.4951L60.7503 13.6292C60.6467 13.5693 60.647 13.4193 60.7511 13.3601L63.751 11.6521Z" fill="white"/>
<path d="M42.2243 49.28V40.0977H44.7052V49.28H42.2243ZM39.1232 40.4003V38.2371H47.8214V40.4003H39.1232Z" fill="#05060F" fill-opacity="0.88"/>
<path d="M52.2359 49.5675C51.5098 49.5675 50.8643 49.4566 50.2996 49.2347C49.735 49.0028 49.2559 48.6901 48.8625 48.2968C48.4794 47.9035 48.1868 47.4546 47.9852 46.9504C47.7836 46.4361 47.6826 45.8965 47.6826 45.3318V44.9839C47.6826 44.4091 47.7836 43.8645 47.9852 43.3502C48.1969 42.8256 48.4995 42.3669 48.8928 41.9736C49.2963 41.5803 49.7804 41.2728 50.345 41.0508C50.9097 40.819 51.5401 40.7029 52.2359 40.7029C52.9519 40.7029 53.5872 40.819 54.142 41.0508C54.7066 41.2728 55.1857 41.5803 55.5791 41.9736C55.9724 42.3669 56.2749 42.8256 56.4867 43.3502C56.6985 43.8645 56.8044 44.4091 56.8044 44.9839V45.3318C56.8044 45.8965 56.7034 46.4361 56.5018 46.9504C56.3002 47.4546 56.0026 47.9035 55.6093 48.2968C55.2262 48.6901 54.752 49.0028 54.1873 49.2347C53.6227 49.4566 52.9722 49.5675 52.2359 49.5675ZM52.2359 47.5253C52.7098 47.5253 53.1031 47.4243 53.4159 47.2227C53.7286 47.0211 53.9654 46.7387 54.1268 46.3756C54.2982 46.0126 54.384 45.6091 54.384 45.1654C54.384 44.6915 54.2982 44.2779 54.1268 43.925C53.9555 43.5619 53.7082 43.2745 53.3856 43.0627C53.0729 42.851 52.6897 42.7451 52.2359 42.7451C51.7923 42.7451 51.4089 42.851 51.0863 43.0627C50.7636 43.2745 50.5164 43.5619 50.345 43.925C50.1836 44.2779 50.103 44.6915 50.103 45.1654C50.103 45.6091 50.1836 46.0126 50.345 46.3756C50.5065 46.7387 50.7485 47.0211 51.0711 47.2227C51.3937 47.4243 51.7821 47.5253 52.2359 47.5253Z" fill="#05060F" fill-opacity="0.88"/>
<path d="M58.4934 52.3055V40.9903H60.4146V44.5755L60.1574 44.5604C60.1978 43.7333 60.3692 43.0375 60.6717 42.4728C60.9743 41.898 61.3827 41.4695 61.897 41.187C62.4114 40.8946 62.9914 40.7483 63.6367 40.7483C64.2115 40.7483 64.7311 40.8542 65.1948 41.066C65.669 41.2777 66.0722 41.5753 66.405 41.9585C66.748 42.3317 67.0051 42.7753 67.1765 43.2897C67.358 43.7938 67.4488 44.3486 67.4488 44.9537V45.3016C67.4488 45.8965 67.3632 46.4562 67.1916 46.9807C67.0202 47.4951 66.768 47.9439 66.4352 48.3271C66.1126 48.7102 65.7144 49.0127 65.2402 49.2347C64.7765 49.4465 64.2418 49.5524 63.6367 49.5524C63.0115 49.5524 62.4469 49.4264 61.9424 49.1742C61.4485 48.9121 61.0499 48.5188 60.7474 47.9943C60.4448 47.4599 60.2784 46.7841 60.2482 45.9672L60.9138 46.8748V52.3055H58.4934ZM62.956 47.5253C63.3696 47.5253 63.7274 47.4244 64.03 47.2228C64.3427 47.0212 64.5848 46.7387 64.7561 46.3756C64.9277 46.0126 65.0133 45.594 65.0133 45.1201C65.0133 44.6462 64.9277 44.2325 64.7561 43.8796C64.5848 43.5268 64.3477 43.2545 64.0451 43.0628C63.7426 42.8612 63.3795 42.7602 62.956 42.7602C62.5929 42.7602 62.2502 42.846 61.9273 43.0174C61.6047 43.1887 61.3426 43.436 61.1407 43.7586C60.9493 44.0713 60.8533 44.4545 60.8533 44.9083V45.468C60.8533 45.9017 60.9542 46.2747 61.1558 46.5874C61.3676 46.89 61.6349 47.1218 61.9576 47.2833C62.2805 47.4447 62.6133 47.5253 62.956 47.5253Z" fill="#05060F" fill-opacity="0.88"/>
<path d="M73.8641 49.28V39.8708L74.5297 40.3851H71.7009V38.2371H76.3299V49.28H73.8641Z" fill="#05060F" fill-opacity="0.88"/>
<path d="M83.4508 49.5674C82.5734 49.5674 81.822 49.4263 81.1968 49.1439C80.5717 48.8515 80.0623 48.4582 79.669 47.9639C79.2858 47.4697 78.9984 46.9001 78.8067 46.2545C78.6252 45.5991 78.5344 44.9082 78.5344 44.1821V43.3199C78.5344 42.3113 78.711 41.3987 79.0639 40.5818C79.4168 39.7649 79.9564 39.1145 80.6825 38.6304C81.4086 38.1463 82.3314 37.9043 83.4508 37.9043C84.5702 37.9043 85.488 38.1463 86.2039 38.6304C86.9301 39.1145 87.4697 39.7649 87.8226 40.5818C88.1754 41.3987 88.352 42.3113 88.352 43.3199V44.1821C88.352 44.9082 88.2563 45.5991 88.0646 46.2545C87.8831 46.9001 87.5957 47.4697 87.2023 47.9639C86.8192 48.4582 86.3148 48.8515 85.6896 49.1439C85.0744 49.4263 84.3282 49.5674 83.4508 49.5674ZM83.4508 47.2832C84.2677 47.2832 84.8727 47.0007 85.2661 46.4361C85.6695 45.8612 85.8712 44.9737 85.8712 43.7737C85.8712 42.503 85.6643 41.5904 85.2509 41.0356C84.8474 40.471 84.2476 40.1885 83.4508 40.1885C82.6339 40.1885 82.0239 40.471 81.6204 41.0356C81.2169 41.5904 81.0153 42.4928 81.0153 43.7434C81.0153 44.9536 81.212 45.8461 81.6053 46.421C82.0088 46.9958 82.6237 47.2832 83.4508 47.2832Z" fill="#05060F" fill-opacity="0.88"/>
<path d="M14.4388 61.3615C14.4176 60.6401 14.9966 60.0437 15.7182 60.0437H112.282C113.003 60.0437 113.583 60.6401 113.561 61.3615L112.997 80.5615C112.976 81.2533 112.409 81.8037 111.717 81.8037H16.283C15.5907 81.8037 15.0238 81.2533 15.0035 80.5615L14.4388 61.3615Z" fill="#2187FF"/>
<path d="M38.0381 74.7636H35.3382V67.147H38.0605C38.8265 67.147 39.486 67.2994 40.039 67.6043C40.5917 67.9068 41.017 68.342 41.3146 68.9099C41.6146 69.4774 41.7647 70.157 41.7647 70.9477C41.7647 71.7413 41.6146 72.4229 41.3146 72.9934C41.017 73.5636 40.5894 74.0011 40.0314 74.306C39.4761 74.6111 38.8116 74.7636 38.0381 74.7636ZM36.9484 73.3838H37.9712C38.4471 73.3838 38.8477 73.2994 39.1724 73.131C39.4997 72.9596 39.7452 72.6958 39.9087 72.3388C40.0748 71.9793 40.158 71.5156 40.158 70.9477C40.158 70.3851 40.0748 69.9252 39.9087 69.5679C39.7452 69.211 39.5008 68.9483 39.1762 68.7796C38.8512 68.6111 38.4509 68.5268 37.975 68.5268H36.9484V73.3838Z" fill="white" fill-opacity="0.95"/>
<path d="M43.7952 74.7636V67.147H48.9274V68.4747H45.4057V70.2894H48.6633V71.6171H45.4057V73.4358H48.9423V74.7636H43.7952Z" fill="white" fill-opacity="0.95"/>
<path d="M55.1773 69.3377C55.1476 69.0374 55.0199 68.8044 54.7942 68.6383C54.5687 68.4722 54.2624 68.3893 53.8758 68.3893C53.6128 68.3893 53.3908 68.4265 53.2099 68.5007C53.0289 68.5726 52.8902 68.6732 52.7936 68.8021C52.6993 68.931 52.6522 69.0773 52.6522 69.2408C52.6473 69.3772 52.6758 69.4962 52.7377 69.598C52.802 69.6995 52.8902 69.7877 53.0016 69.8619C53.1133 69.9337 53.2422 69.9971 53.3885 70.0515C53.5348 70.1036 53.691 70.1484 53.8572 70.1857L54.5414 70.3491C54.8736 70.4236 55.1785 70.5228 55.4563 70.6468C55.7338 70.7707 55.9744 70.9231 56.1777 71.1041C56.3811 71.285 56.5385 71.4982 56.6502 71.7438C56.7642 71.9893 56.8224 72.2706 56.8247 72.588C56.8224 73.054 56.7034 73.4584 56.4678 73.8005C56.2348 74.14 55.8976 74.4041 55.4563 74.5926C55.0173 74.7785 54.4881 74.8713 53.8682 74.8713C53.2532 74.8713 52.718 74.7774 52.2615 74.5889C51.808 74.4003 51.4534 74.1214 51.198 73.7519C50.9452 73.3801 50.8125 72.9202 50.8 72.3724H52.3584C52.3755 72.6275 52.4489 72.8408 52.5777 73.0118C52.7092 73.1806 52.8841 73.3083 53.1022 73.395C53.3228 73.4793 53.5721 73.5215 53.8496 73.5215C54.1225 73.5215 54.3593 73.4817 54.56 73.4025C54.7633 73.3231 54.9207 73.2129 55.0324 73.0715C55.1438 72.9301 55.1997 72.7678 55.1997 72.5842C55.1997 72.4131 55.1488 72.2694 55.0473 72.1528C54.9481 72.0364 54.8017 71.9372 54.6083 71.8555C54.4174 71.7734 54.1833 71.6993 53.9054 71.6323L53.0761 71.4241C52.434 71.2678 51.927 71.0235 51.5549 70.6913C51.1831 70.359 50.9984 69.9116 51.001 69.3487C50.9984 68.8876 51.1211 68.4847 51.369 68.14C51.6195 67.7955 51.9627 67.5265 52.3991 67.333C52.8355 67.1395 53.3315 67.043 53.8868 67.043C54.4521 67.043 54.9454 67.1395 55.367 67.333C55.7908 67.5265 56.1207 67.7955 56.3564 68.14C56.5917 68.4847 56.7133 68.8838 56.7209 69.3377H55.1773Z" fill="white" fill-opacity="0.95"/>
<path d="M60.3561 67.147V74.7636H58.7459V67.147H60.3561Z" fill="white" fill-opacity="0.95"/>
<path d="M67.5692 69.6091C67.5171 69.4281 67.4441 69.2681 67.3498 69.1294C67.2556 68.988 67.1404 68.869 67.0039 68.7724C66.8701 68.6732 66.7165 68.5976 66.5429 68.5455C66.3718 68.4934 66.1821 68.4673 65.9738 68.4673C65.5846 68.4673 65.2425 68.5641 64.9475 68.7573C64.6549 68.9507 64.4268 69.2323 64.263 69.6015C64.0995 69.9686 64.0178 70.4172 64.0178 70.9478C64.0178 71.4785 64.0983 71.9297 64.2595 72.3017C64.4207 72.6735 64.6487 72.9574 64.9437 73.1532C65.2387 73.3467 65.5872 73.4433 65.9887 73.4433C66.3532 73.4433 66.6645 73.379 66.9222 73.2501C67.1826 73.1186 67.381 72.9339 67.5171 72.6959C67.6562 72.4579 67.7254 72.1763 67.7254 71.8517L68.0527 71.9H66.089V70.6875H69.2762V71.6472C69.2762 72.3166 69.1351 72.8917 68.8524 73.3726C68.5696 73.8511 68.1804 74.2206 67.6847 74.4809C67.1887 74.739 66.6211 74.8678 65.9814 74.8678C65.2672 74.8678 64.64 74.7102 64.0995 74.3954C63.559 74.078 63.1375 73.628 62.8349 73.0453C62.535 72.4603 62.3849 71.7662 62.3849 70.9627C62.3849 70.3454 62.4742 69.795 62.6528 69.3115C62.8338 68.8257 63.0866 68.414 63.4115 68.0769C63.7362 67.7397 64.1143 67.4831 64.5458 67.3071C64.9772 67.1311 65.4444 67.043 65.9479 67.043C66.3794 67.043 66.7808 67.1061 67.1529 67.2326C67.5247 67.3566 67.8546 67.5326 68.142 67.7606C68.432 67.9887 68.6688 68.2604 68.8524 68.5752C69.0359 68.8876 69.1535 69.2324 69.2055 69.6091H67.5692Z" fill="white" fill-opacity="0.95"/>
<path d="M77.6945 67.147V74.7636H76.3034L72.9899 69.9697H72.9341V74.7636H71.3236V67.147H72.7368L76.0244 71.9371H76.0916V67.147H77.6945Z" fill="white" fill-opacity="0.95"/>
<path d="M79.8627 74.7636V67.147H84.9949V68.4747H81.4731V70.2894H84.7307V71.6171H81.4731V73.4358H85.0097V74.7636H79.8627Z" fill="white" fill-opacity="0.95"/>
<path d="M87.113 74.7636V67.147H90.1181C90.6933 67.147 91.184 67.25 91.5907 67.4556C91.9997 67.659 92.311 67.9478 92.5242 68.3222C92.7398 68.694 92.8477 69.1316 92.8477 69.6348C92.8477 70.1407 92.7386 70.5759 92.5205 70.9404C92.3023 71.3023 91.9861 71.5801 91.5721 71.7733C91.1605 71.9668 90.6621 72.0633 90.0771 72.0633H88.0652V70.7694H89.8167C90.1242 70.7694 90.3797 70.7272 90.583 70.6428C90.7861 70.5585 90.9373 70.4322 91.0365 70.2635C91.1383 70.0948 91.189 69.8853 91.189 69.6348C91.189 69.382 91.1383 69.1688 91.0365 68.9954C90.9373 68.8217 90.7849 68.6902 90.5792 68.6009C90.3759 68.5093 90.1193 68.4633 89.8092 68.4633H88.7235V74.7636H87.113ZM91.2262 71.2974L93.1191 74.7636H91.3417L89.4895 71.2974H91.2262Z" fill="white" fill-opacity="0.95"/>
<path d="M49.9043 97.6875V96.3633L52.6822 93.9313C52.8905 93.7428 53.0679 93.5706 53.214 93.4144C53.3603 93.2555 53.472 93.097 53.5488 92.9381C53.6256 92.777 53.664 92.6021 53.664 92.4139C53.664 92.203 53.6183 92.0232 53.5264 91.8746C53.4348 91.7233 53.3082 91.6069 53.1471 91.5249C52.9859 91.4432 52.8012 91.4021 52.5932 91.4021C52.3823 91.4021 52.1975 91.4458 52.039 91.5325C51.8802 91.6168 51.7562 91.7393 51.6669 91.9005C51.5802 92.0616 51.5369 92.2577 51.5369 92.4881H49.7926C49.7926 91.97 49.9093 91.5226 50.1423 91.1456C50.3753 90.7688 50.7026 90.4788 51.1241 90.2755C51.5479 90.0695 52.0402 89.9668 52.6005 89.9668C53.1782 89.9668 53.6803 90.0634 54.1068 90.2568C54.5333 90.4503 54.8629 90.7206 55.0959 91.0676C55.3315 91.412 55.4493 91.8126 55.4493 92.2688C55.4493 92.5588 55.3909 92.8465 55.2745 93.1316C55.1578 93.4167 54.9484 93.7317 54.6458 94.0762C54.3459 94.4209 53.9194 94.8337 53.3667 95.3146L52.4556 96.155V96.2036H55.5421V97.6875H49.9043Z" fill="#05060F" fill-opacity="0.9"/>
<path d="M60.1515 97.8734C59.4871 97.8734 58.9143 97.716 58.4334 97.401C57.9523 97.0836 57.5817 96.6286 57.3213 96.036C57.0609 95.4411 56.9321 94.7258 56.9347 93.8903C56.937 93.0548 57.0673 92.3456 57.3251 91.7629C57.5854 91.1779 57.9549 90.7328 58.4334 90.4279C58.9143 90.1204 59.4871 89.9668 60.1515 89.9668C60.816 89.9668 61.3888 90.1204 61.8697 90.4279C62.3531 90.7328 62.7249 91.1779 62.9853 91.7629C63.2457 92.3482 63.3745 93.0571 63.3722 93.8903C63.3722 94.7284 63.2419 95.4449 62.9815 96.0398C62.7214 96.635 62.3505 97.09 61.8697 97.4048C61.3911 97.7172 60.8183 97.8734 60.1515 97.8734ZM60.1515 96.3671C60.5481 96.3671 60.8692 96.1652 61.1147 95.7608C61.3603 95.3544 61.4816 94.7307 61.4793 93.8903C61.4793 93.3399 61.4234 92.8861 61.3117 92.5291C61.2003 92.1696 61.0452 91.9019 60.8468 91.7259C60.6487 91.5499 60.4169 91.4618 60.1515 91.4618C59.7574 91.4618 59.4388 91.6613 59.1956 92.0605C58.9527 92.4573 58.8299 93.067 58.8276 93.8903C58.825 94.4483 58.8782 94.9105 58.9873 95.2773C59.099 95.6445 59.2553 95.9185 59.456 96.0995C59.657 96.2778 59.8886 96.3671 60.1515 96.3671Z" fill="#05060F" fill-opacity="0.9"/>
<path d="M64.8454 97.6875V96.3633L67.6235 93.9313C67.8318 93.7428 68.009 93.5706 68.1553 93.4144C68.3017 93.2555 68.4131 93.097 68.4902 92.9381C68.567 92.777 68.6054 92.6021 68.6054 92.4139C68.6054 92.203 68.5594 92.0232 68.4678 91.8746C68.3758 91.7233 68.2496 91.6069 68.0884 91.5249C67.9273 91.4432 67.7425 91.4021 67.5342 91.4021C67.3236 91.4021 67.1389 91.4458 66.9801 91.5325C66.8215 91.6168 66.6976 91.7393 66.6083 91.9005C66.5213 92.0616 66.478 92.2577 66.478 92.4881H64.7339C64.7339 91.97 64.8503 91.5226 65.0833 91.1456C65.3163 90.7688 65.6436 90.4788 66.0651 90.2755C66.4893 90.0695 66.9812 89.9668 67.5418 89.9668C68.1193 89.9668 68.6214 90.0634 69.0478 90.2568C69.4743 90.4503 69.8042 90.7206 70.0372 91.0676C70.2726 91.412 70.3904 91.8126 70.3904 92.2688C70.3904 92.5588 70.3322 92.8465 70.2155 93.1316C70.0992 93.4167 69.8897 93.7317 69.5872 94.0762C69.2873 94.4209 68.8608 94.8337 68.3078 95.3146L67.3966 96.155V96.2036H70.4835V97.6875H64.8454Z" fill="#05060F" fill-opacity="0.9"/>
<path d="M74.8399 97.7914C74.2598 97.7914 73.7452 97.6925 73.2966 97.4941C72.8501 97.2931 72.4981 97.0167 72.2403 96.6647C71.9826 96.3127 71.8511 95.9072 71.8461 95.4484H73.6981C73.7056 95.6148 73.7589 95.7623 73.8581 95.8912C73.9573 96.0174 74.0922 96.1166 74.2633 96.1888C74.4344 96.2606 74.6293 96.2964 74.8474 96.2964C75.0656 96.2964 75.2576 96.258 75.4237 96.1812C75.5925 96.1018 75.7237 95.9939 75.8179 95.8577C75.9122 95.7187 75.9581 95.5601 75.9555 95.3815C75.9581 95.2032 75.9072 95.0443 75.8031 94.9056C75.6989 94.7668 75.5514 94.6589 75.3606 94.5821C75.1721 94.5053 74.949 94.4666 74.6912 94.4666H73.9512V93.1575H74.6912C74.9167 93.1575 75.1151 93.1205 75.2861 93.0461C75.4598 92.9716 75.5948 92.8675 75.6914 92.7336C75.7882 92.5972 75.8354 92.441 75.8327 92.265C75.8354 92.0939 75.7943 91.9441 75.71 91.815C75.6282 91.6838 75.513 91.5819 75.3641 91.5101C75.2181 91.4382 75.0482 91.4021 74.8547 91.4021C74.6514 91.4021 74.4666 91.4382 74.3005 91.5101C74.137 91.5819 74.0067 91.6838 73.9101 91.815C73.8135 91.9464 73.7626 92.0989 73.7577 92.2725H71.9986C72.0035 91.8187 72.1301 91.4196 72.3779 91.0749C72.6258 90.7278 72.9629 90.4564 73.3894 90.2606C73.8185 90.0645 74.3069 89.9668 74.8547 89.9668C75.4002 89.9668 75.8799 90.0622 76.2941 90.2531C76.7081 90.4439 77.0304 90.7043 77.2608 91.0341C77.4915 91.3614 77.6067 91.732 77.6067 92.146C77.6093 92.5751 77.4691 92.9283 77.1866 93.2061C76.9065 93.4836 76.5458 93.6547 76.1045 93.7192V93.7786C76.6944 93.8481 77.1395 94.0389 77.4394 94.3514C77.742 94.6638 77.8918 95.0542 77.8895 95.5229C77.8895 95.9642 77.7592 96.356 77.4991 96.6981C77.241 97.0379 76.8815 97.3056 76.4204 97.5013C75.9616 97.6948 75.4348 97.7914 74.8399 97.7914Z" fill="#05060F" fill-opacity="0.9"/>
</svg>
