<svg width="128" height="128" viewBox="0 0 128 128" fill="none" xmlns="http://www.w3.org/2000/svg">
<path d="M120.755 84.3515C120.873 85.0259 120.35 85.6437 119.662 85.6437H108.718L109.415 63.884H119.719C120.407 63.884 120.927 64.5019 120.806 65.1763L119.124 74.5735C119.102 74.6995 119.101 74.8283 119.123 74.9543L120.755 84.3515Z" fill="#1775E5"/>
<path d="M7.24398 84.3515C7.12683 85.0259 7.64974 85.6437 8.33756 85.6437H19.2818L18.5847 63.884H8.28046C7.5926 63.884 7.07295 64.5019 7.19362 65.1763L8.87542 74.5735C8.898 74.6995 8.89832 74.8283 8.87644 74.9543L7.24398 84.3515Z" fill="#1775E5"/>
<path d="M101.887 20.0164C107.155 21.02 110.906 25.7128 110.724 31.0729L108.679 91.4429C108.555 95.1002 106.6 98.4503 103.477 100.358L69.6727 121.014C66.1902 123.142 61.8097 123.142 58.3272 121.014L24.5225 100.358C21.3997 98.4503 19.4454 95.1002 19.3215 91.4429L17.2756 31.0729C17.094 25.7128 20.8452 21.0199 26.1136 20.0164L61.9642 13.1878C63.3094 12.9316 64.6906 12.9316 66.0358 13.1878L101.887 20.0164Z" fill="#EAEAEB"/>
<path d="M101.412 25.3079C104.015 25.8581 105.841 28.2064 105.732 30.8646L103.338 89.7237C103.247 91.9514 102.073 93.9942 100.193 95.1933L67.6655 115.942C65.4298 117.368 62.5699 117.368 60.334 115.942L27.8066 95.1933C25.9268 93.9942 24.7523 91.9514 24.6616 89.7237L22.2671 30.8646C22.1589 28.2064 23.9849 25.8581 26.5878 25.3079L62.59 17.6977C63.5197 17.5012 64.48 17.5012 65.4095 17.6977L101.412 25.3079Z" fill="white"/>
<path d="M62.5516 7.4286C63.4482 6.91052 64.5527 6.91052 65.4493 7.4286L71.6803 11.0294C72.5754 11.5469 73.127 12.5025 73.127 13.5366V20.7948C73.127 21.8289 72.5754 22.7845 71.6803 23.3019L65.4493 26.9028C64.5527 27.4209 63.4482 27.4209 62.5516 26.9028L56.3206 23.3019C55.4255 22.7845 54.8739 21.8289 54.8739 20.7948V13.5366C54.8739 12.5025 55.4255 11.5469 56.3206 11.0294L62.5516 7.4286Z" fill="#2187FF"/>
<path fill-rule="evenodd" clip-rule="evenodd" d="M66.3226 5.91719L72.5536 9.51803C73.9886 10.3474 74.8724 11.879 74.8724 13.5364V20.7946C74.8724 22.4521 73.9886 23.9837 72.5536 24.813L66.3226 28.4139C64.8858 29.2441 63.115 29.2441 61.6782 28.4139L55.4473 24.813C54.0122 23.9837 53.1284 22.4521 53.1284 20.7946V13.5364C53.1284 11.879 54.0122 10.3474 55.4473 9.51803L61.6782 5.91719C63.115 5.08685 64.8858 5.08685 66.3226 5.91719ZM65.4493 7.42843C64.5527 6.91035 63.4481 6.91035 62.5515 7.42843L56.3206 11.0293C55.4254 11.5467 54.8739 12.5023 54.8739 13.5364V20.7946C54.8739 21.8287 55.4254 22.7844 56.3206 23.3018L62.5515 26.9026C63.4481 27.4207 64.5527 27.4207 65.4493 26.9026L71.6803 23.3018C72.5754 22.7844 73.127 21.8287 73.127 20.7946V13.5364C73.127 12.5023 72.5754 11.5467 71.6803 11.0293L65.4493 7.42843Z" fill="white"/>
<path fill-rule="evenodd" clip-rule="evenodd" d="M59.0103 14.6159C59.0103 14.4965 59.1395 14.4219 59.2428 14.4816L62.8881 16.5847C62.9844 16.6401 63.0435 16.7425 63.0435 16.8534V21.9902C63.0435 22.1096 62.9143 22.1842 62.8108 22.1246L59.1654 20.0214C59.0694 19.966 59.0103 19.8635 59.0103 19.7527V18.2033C59.0103 18.1439 59.0743 18.1065 59.1258 18.1358L61.273 19.3494C61.3248 19.3786 61.3888 19.3412 61.3888 19.2818V17.674C61.3888 17.5994 61.3486 17.5306 61.2838 17.4939L59.1677 16.2979C59.0705 16.2429 59.0103 16.1397 59.0103 16.0278V14.6159ZM68.7572 14.4816C68.8608 14.4219 68.9899 14.4965 68.9899 14.6159V16.0278C68.9899 16.1397 68.9297 16.2429 68.8323 16.2979L66.7165 17.4939C66.6516 17.5306 66.6115 17.5994 66.6115 17.674V19.2818C66.6115 19.3412 66.6755 19.3786 66.727 19.3494L68.8742 18.1358C68.926 18.1065 68.9899 18.1439 68.9899 18.2033V19.7527C68.9899 19.8635 68.9309 19.966 68.8349 20.0214L65.1892 22.1246C65.0859 22.1842 64.9568 22.1096 64.9568 21.9902V16.8534C64.9568 16.7425 65.0158 16.6401 65.1118 16.5847L68.7572 14.4816ZM63.6931 11.6523C63.8833 11.544 64.1166 11.544 64.3072 11.6523L67.307 13.3603C67.4112 13.4196 67.4115 13.5695 67.3079 13.6295L65.8083 14.4953C65.7452 14.5318 65.6675 14.5323 65.6038 14.4966L64.1012 13.6543C64.0384 13.619 63.9619 13.619 63.899 13.6543L62.3965 14.4966C62.3328 14.5323 62.2551 14.5318 62.1917 14.4953L60.6924 13.6295C60.5885 13.5695 60.5891 13.4196 60.6932 13.3603L63.6931 11.6523Z" fill="white"/>
<path d="M33.9398 49.28V40.0977H36.4206V49.28H33.9398ZM30.8387 40.4003V38.2371H39.5369V40.4003H30.8387Z" fill="#05060F" fill-opacity="0.88"/>
<path d="M40.9612 49.28V38.2371H43.3815V44.6056H43.0185C43.0185 43.7687 43.1244 43.0627 43.3362 42.4878C43.5479 41.913 43.8607 41.4792 44.2741 41.1869C44.6877 40.8843 45.207 40.7331 45.8322 40.7331H45.9381C46.8559 40.7331 47.5567 41.0609 48.0407 41.7163C48.5248 42.3619 48.7669 43.3096 48.7669 44.5603V49.28H46.3465V44.409C46.3465 43.9552 46.2103 43.5921 45.9381 43.3198C45.6759 43.0374 45.328 42.8963 44.8943 42.8963C44.4405 42.8963 44.0725 43.0426 43.79 43.335C43.5177 43.6273 43.3815 44.0157 43.3815 44.4998V49.28H40.9612Z" fill="#05060F" fill-opacity="0.88"/>
<path d="M54.6263 49.5675C53.9206 49.5675 53.2951 49.4464 52.7506 49.2044C52.2162 48.9624 51.7673 48.6398 51.4042 48.2363C51.0514 47.8229 50.7791 47.3638 50.5874 46.8597C50.4058 46.3454 50.3151 45.8208 50.3151 45.2864V44.9839C50.3151 44.4291 50.4058 43.8997 50.5874 43.3955C50.7791 42.8812 51.0514 42.4224 51.4042 42.019C51.7574 41.6155 52.1961 41.2978 52.7203 41.0659C53.255 40.8239 53.8601 40.7029 54.5356 40.7029C55.4231 40.7029 56.1693 40.9045 56.7744 41.308C57.3897 41.7013 57.8586 42.2206 58.1812 42.8661C58.5042 43.5014 58.6653 44.1973 58.6653 44.9536V45.7705H51.3286V44.3939H57.198L56.4114 45.0293C56.4114 44.535 56.341 44.1115 56.1996 43.7586C56.0585 43.4057 55.8467 43.1384 55.5642 42.9568C55.2919 42.7651 54.9492 42.6694 54.5356 42.6694C54.112 42.6694 53.7542 42.7651 53.4615 42.9568C53.1692 43.1486 52.9472 43.4307 52.7959 43.804C52.6447 44.167 52.569 44.6159 52.569 45.1503C52.569 45.6446 52.6397 46.078 52.7808 46.4512C52.9222 46.8143 53.1439 47.0968 53.4464 47.2984C53.749 47.5 54.1423 47.6009 54.6263 47.6009C55.0703 47.6009 55.4333 47.5151 55.7155 47.3438C55.998 47.1724 56.1897 46.9606 56.2903 46.7084H58.514C58.393 47.2632 58.1562 47.7571 57.8031 48.1909C57.4502 48.6246 57.0066 48.9624 56.4719 49.2044C55.9375 49.4464 55.3222 49.5675 54.6263 49.5675Z" fill="#05060F" fill-opacity="0.88"/>
<path d="M65.6992 49.3555V47.4193H68.2859C68.7499 47.4193 69.0979 47.2982 69.3297 47.0562C69.5619 46.8142 69.6776 46.4712 69.6776 46.0275C69.6776 45.5839 69.5619 45.2459 69.3297 45.014C69.0979 44.772 68.7499 44.651 68.2859 44.651H65.6992V43.1534H68.1649C68.9315 43.1534 69.6122 43.2491 70.2071 43.4408C70.8023 43.6223 71.2713 43.9199 71.6139 44.3333C71.9569 44.7467 72.1283 45.3064 72.1283 46.0124V46.2242C72.1283 46.8796 71.977 47.4446 71.6744 47.9185C71.3719 48.3825 70.9283 48.7403 70.3432 48.9925C69.7585 49.2345 69.0324 49.3555 68.1649 49.3555H65.6992ZM63.5814 49.3555V38.1462H66.0017V49.3555H63.5814ZM65.6992 44.2577V42.7752H67.8775C68.3517 42.7752 68.6944 42.6542 68.9062 42.4121C69.1179 42.1701 69.2238 41.8475 69.2238 41.444C69.2238 41.0204 69.1179 40.6876 68.9062 40.4456C68.6944 40.2035 68.3517 40.0825 67.8775 40.0825H65.6992V38.1462H67.7262C68.9969 38.1462 69.9703 38.4136 70.6458 38.948C71.3318 39.4824 71.6744 40.244 71.6744 41.2322V41.4591C71.6744 42.1448 71.4982 42.6946 71.145 43.108C70.8023 43.5214 70.3334 43.819 69.7382 44.0005C69.1534 44.1718 68.4826 44.2577 67.7262 44.2577H65.6992Z" fill="#05060F" fill-opacity="0.88"/>
<path d="M77.6422 49.5675C76.9365 49.5675 76.311 49.4464 75.7664 49.2044C75.232 48.9624 74.7832 48.6398 74.4201 48.2363C74.0672 47.8229 73.7949 47.3638 73.6032 46.8597C73.4217 46.3454 73.3309 45.8208 73.3309 45.2864V44.9839C73.3309 44.4291 73.4217 43.8997 73.6032 43.3955C73.7949 42.8812 74.0672 42.4224 74.4201 42.019C74.7733 41.6155 75.2119 41.2978 75.7362 41.0659C76.2709 40.8239 76.876 40.7029 77.5514 40.7029C78.439 40.7029 79.1852 40.9045 79.7903 41.308C80.4055 41.7013 80.8745 42.2206 81.1971 42.8661C81.52 43.5014 81.6812 44.1973 81.6812 44.9536V45.7705H74.3445V44.3939H80.2138L79.4272 45.0293C79.4272 44.535 79.3568 44.1115 79.2154 43.7586C79.0744 43.4057 78.8626 43.1384 78.5801 42.9568C78.3078 42.7651 77.9651 42.6694 77.5514 42.6694C77.1279 42.6694 76.7701 42.7651 76.4774 42.9568C76.185 43.1486 75.9631 43.4307 75.8118 43.804C75.6605 44.167 75.5849 44.6159 75.5849 45.1503C75.5849 45.6446 75.6556 46.078 75.7967 46.4512C75.9381 46.8143 76.1597 47.0968 76.4623 47.2984C76.7648 47.5 77.1581 47.6009 77.6422 47.6009C78.0861 47.6009 78.4492 47.5151 78.7314 47.3438C79.0138 47.1724 79.2055 46.9606 79.3062 46.7084H81.5299C81.4089 47.2632 81.1721 47.7571 80.8189 48.1909C80.4661 48.6246 80.0224 48.9624 79.4877 49.2044C78.9533 49.4464 78.3381 49.5675 77.6422 49.5675Z" fill="#05060F" fill-opacity="0.88"/>
<path d="M86.4317 49.5372C85.2518 49.5372 84.329 49.2952 83.6634 48.8111C82.9978 48.3271 82.6446 47.6463 82.6045 46.7689H84.7526C84.7927 47.0311 84.9492 47.2681 85.2215 47.4799C85.5037 47.6815 85.9223 47.7825 86.4771 47.7825C86.9006 47.7825 87.2486 47.7118 87.5209 47.5707C87.803 47.4194 87.9444 47.2076 87.9444 46.9353C87.9444 46.6933 87.8385 46.5016 87.6267 46.3605C87.415 46.2092 87.0368 46.1033 86.4922 46.0428L85.8417 45.9823C84.8433 45.8814 84.0919 45.6041 83.5878 45.1503C83.0935 44.6965 82.8465 44.1167 82.8465 43.4107C82.8465 42.8257 82.9926 42.3367 83.2852 41.9433C83.5776 41.55 83.9811 41.2524 84.4954 41.0508C85.0196 40.8492 85.6148 40.7483 86.2804 40.7483C87.3492 40.7483 88.2115 40.9854 88.8672 41.4593C89.5226 41.9233 89.8656 42.5988 89.8958 43.4863H87.7478C87.7073 43.214 87.5662 42.9871 87.3242 42.8056C87.0822 42.6139 86.7241 42.5182 86.2502 42.5182C85.8769 42.5182 85.5793 42.5889 85.3577 42.73C85.1357 42.8711 85.0249 43.0628 85.0249 43.3048C85.0249 43.5367 85.1206 43.7132 85.3123 43.8343C85.5037 43.9553 85.8164 44.0411 86.2502 44.0914L86.9006 44.1519C87.9191 44.2628 88.7107 44.5452 89.2756 44.9991C89.8403 45.4529 90.1227 46.0629 90.1227 46.8295C90.1227 47.3842 89.9715 47.8683 89.6689 48.2817C89.3664 48.6852 88.9376 48.9976 88.3831 49.2196C87.8283 49.4313 87.1779 49.5372 86.4317 49.5372Z" fill="#05060F" fill-opacity="0.88"/>
<path d="M95.4575 49.3859C94.6205 49.3859 93.9447 49.285 93.4304 49.0834C92.9161 48.8716 92.5379 48.5237 92.2959 48.0396C92.064 47.5454 91.9479 46.8798 91.9479 46.0428V38.7515H94.2019V46.1336C94.2019 46.5269 94.3029 46.8294 94.5045 47.0412C94.7162 47.2428 95.0138 47.3438 95.397 47.3438H96.6223V49.3859H95.4575ZM90.6924 42.7602V40.9903H96.6223V42.7602H90.6924Z" fill="#05060F" fill-opacity="0.88"/>
<path d="M14.546 61.3612C14.5248 60.6401 15.1038 60.0437 15.8254 60.0437H112.389C113.111 60.0437 113.69 60.6401 113.669 61.3612L113.104 80.5612C113.083 81.2533 112.517 81.8037 111.824 81.8037H16.3901C15.6979 81.8037 15.1311 81.2533 15.1107 80.5612L14.546 61.3612Z" fill="#2187FF"/>
<path d="M22.3043 74.7636L20.125 67.147H21.8841L23.1448 72.4392H23.2081L24.5989 67.147H26.1052L27.4924 72.4502H27.5593L28.82 67.147H30.5792L28.3998 74.7636H26.8304L25.38 69.7838H25.3205L23.8738 74.7636H22.3043Z" fill="white" fill-opacity="0.95"/>
<path d="M32.2787 74.7636V67.147H37.4112V68.4747H33.8892V70.2894H37.147V71.6171H33.8892V73.4358H37.426V74.7636H32.2787Z" fill="white" fill-opacity="0.95"/>
<path d="M39.529 74.7636V67.147H42.5786C43.1392 67.147 43.6064 67.2299 43.9808 67.396C44.3552 67.5621 44.6365 67.7928 44.825 68.0878C45.0135 68.3804 45.1078 68.7176 45.1078 69.0996C45.1078 69.3969 45.0481 69.6584 44.9291 69.8841C44.8102 70.1073 44.6464 70.2908 44.4381 70.4345C44.2324 70.5759 43.9968 70.6763 43.7315 70.7359V70.8101C44.0218 70.8226 44.2932 70.9044 44.546 71.0556C44.8014 71.2069 45.0086 71.419 45.1671 71.6916C45.3259 71.9618 45.4051 72.2841 45.4051 72.6585C45.4051 73.0626 45.3047 73.4233 45.104 73.7407C44.9056 74.0555 44.6118 74.3048 44.2225 74.4884C43.8333 74.6716 43.3536 74.7636 42.7834 74.7636H39.529ZM41.1395 73.4469H42.4523C42.9009 73.4469 43.2282 73.3614 43.4342 73.1903C43.6398 73.0166 43.7428 72.7862 43.7428 72.4985C43.7428 72.2879 43.6919 72.102 43.5904 71.9409C43.4886 71.7797 43.3437 71.6532 43.1552 71.5615C42.9693 71.4696 42.7473 71.4239 42.4896 71.4239H41.1395V73.4469ZM41.1395 70.3342H42.3334C42.5539 70.3342 42.7496 70.2958 42.921 70.219C43.0944 70.1396 43.2308 70.0278 43.33 69.8841C43.4315 69.7404 43.4824 69.5679 43.4824 69.3672C43.4824 69.092 43.3844 68.87 43.1886 68.7016C42.9952 68.5329 42.72 68.4485 42.363 68.4485H41.1395V70.3342Z" fill="white" fill-opacity="0.95"/>
<path d="M53.2526 74.7636H50.5524V67.147H53.2748C54.041 67.147 54.7005 67.2994 55.2532 67.6043C55.8062 67.9068 56.2316 68.342 56.5289 68.9099C56.8291 69.4774 56.9789 70.157 56.9789 70.9477C56.9789 71.7413 56.8291 72.4229 56.5289 72.9934C56.2316 73.5636 55.8036 74.0011 55.246 74.306C54.6906 74.6111 54.0262 74.7636 53.2526 74.7636ZM52.1629 73.3838H53.1854C53.6617 73.3838 54.062 73.2994 54.3869 73.131C54.7142 72.9596 54.9594 72.6958 55.1232 72.3388C55.2893 71.9793 55.3722 71.5156 55.3722 70.9477C55.3722 70.3851 55.2893 69.9252 55.1232 69.5679C54.9594 69.211 54.7153 68.9483 54.3904 68.7796C54.0657 68.6111 53.6654 68.5268 53.1892 68.5268H52.1629V73.3838Z" fill="white" fill-opacity="0.95"/>
<path d="M59.0098 74.7636V67.147H64.142V68.4747H60.6199V70.2894H63.8778V71.6171H60.6199V73.4358H64.1568V74.7636H59.0098Z" fill="white" fill-opacity="0.95"/>
<path d="M70.3918 69.3377C70.3619 69.0374 70.2345 68.8044 70.0087 68.6383C69.783 68.4722 69.4769 68.3893 69.09 68.3893C68.8273 68.3893 68.6054 68.4265 68.4244 68.5007C68.2435 68.5726 68.1047 68.6732 68.0078 68.8021C67.9136 68.931 67.8665 69.0773 67.8665 69.2408C67.8615 69.3772 67.89 69.4962 67.952 69.598C68.0166 69.6995 68.1047 69.7877 68.2161 69.8619C68.3278 69.9337 68.4567 69.9971 68.603 70.0515C68.7491 70.1036 68.9053 70.1484 69.0714 70.1857L69.7559 70.3491C70.0881 70.4236 70.393 70.5228 70.6708 70.6468C70.9483 70.7707 71.1889 70.9231 71.3923 71.1041C71.5956 71.285 71.753 71.4982 71.8644 71.7438C71.9785 71.9893 72.0369 72.2706 72.0393 72.588C72.0369 73.054 71.9177 73.4584 71.6823 73.8005C71.4493 74.14 71.1121 74.4041 70.6708 74.5926C70.2318 74.7785 69.7024 74.8713 69.0827 74.8713C68.4678 74.8713 67.9322 74.7774 67.4761 74.5889C67.0222 74.4003 66.6679 74.1214 66.4125 73.7519C66.1594 73.3801 66.0267 72.9202 66.0145 72.3724H67.5726C67.5901 72.6275 67.6631 72.8408 67.7923 73.0118C67.9235 73.1806 68.0983 73.3083 68.3165 73.395C68.5373 73.4793 68.7863 73.5215 69.0641 73.5215C69.3367 73.5215 69.5735 73.4817 69.7745 73.4025C69.9776 73.3231 70.1353 73.2129 70.2467 73.0715C70.3584 72.9301 70.4139 72.7678 70.4139 72.5842C70.4139 72.4131 70.3633 72.2694 70.2615 72.1528C70.1623 72.0364 70.0163 71.9372 69.8228 71.8555C69.632 71.7734 69.3975 71.6993 69.12 71.6323L68.2906 71.4241C67.6483 71.2678 67.1412 71.0235 66.7694 70.6913C66.3977 70.359 66.2129 69.9116 66.2153 69.3487C66.2129 68.8876 66.3357 68.4847 66.5835 68.14C66.834 67.7955 67.1773 67.5265 67.6137 67.333C68.05 67.1395 68.546 67.043 69.1014 67.043C69.6666 67.043 70.16 67.1395 70.5815 67.333C71.0054 67.5265 71.3353 67.7955 71.5706 68.14C71.8062 68.4847 71.9278 68.8838 71.9351 69.3377H70.3918Z" fill="white" fill-opacity="0.95"/>
<path d="M75.5706 67.147V74.7636H73.9601V67.147H75.5706Z" fill="white" fill-opacity="0.95"/>
<path d="M82.7837 69.6091C82.7316 69.4281 82.6586 69.2681 82.5643 69.1294C82.4701 68.988 82.3549 68.869 82.2184 68.7724C82.0846 68.6732 81.9307 68.5976 81.7573 68.5455C81.5863 68.4934 81.3966 68.4673 81.1883 68.4673C80.7991 68.4673 80.457 68.5641 80.1617 68.7573C79.8693 68.9507 79.6413 69.2323 79.4775 69.6015C79.314 69.9686 79.2319 70.4172 79.2319 70.9478C79.2319 71.4785 79.3125 71.9297 79.4737 72.3017C79.6349 72.6735 79.8629 72.9574 80.1582 73.1532C80.4532 73.3467 80.8014 73.4433 81.2031 73.4433C81.5677 73.4433 81.8786 73.379 82.1367 73.2501C82.397 73.1186 82.5952 72.9339 82.7316 72.6959C82.8704 72.4579 82.9399 72.1763 82.9399 71.8517L83.2671 71.9H81.3035V70.6875H84.4907V71.6472C84.4907 72.3166 84.3493 72.8917 84.0669 73.3726C83.7841 73.8511 83.3949 74.2206 82.8989 74.4809C82.4032 74.739 81.8353 74.8678 81.1956 74.8678C80.4817 74.8678 79.8545 74.7102 79.314 74.3954C78.7735 74.078 78.352 73.628 78.0494 73.0453C77.7495 72.4603 77.5994 71.7662 77.5994 70.9627C77.5994 70.3454 77.6887 69.795 77.8673 69.3115C78.0482 68.8257 78.301 68.414 78.626 68.0769C78.9506 67.7397 79.3288 67.4831 79.7602 67.3071C80.1917 67.1311 80.6589 67.043 81.1621 67.043C81.5936 67.043 81.9953 67.1061 82.3671 67.2326C82.7391 67.3566 83.0687 67.5326 83.3565 67.7606C83.6465 67.9887 83.8833 68.2604 84.0669 68.5752C84.2501 68.8876 84.368 69.2324 84.42 69.6091H82.7837Z" fill="white" fill-opacity="0.95"/>
<path d="M92.9088 67.147V74.7636H91.5179L88.2042 69.9697H88.1486V74.7636H86.5381V67.147H87.9514L91.2389 71.9371H91.3059V67.147H92.9088Z" fill="white" fill-opacity="0.95"/>
<path d="M95.0772 74.7636V67.147H100.209V68.4747H96.6874V70.2894H99.9453V71.6171H96.6874V73.4358H100.224V74.7636H95.0772Z" fill="white" fill-opacity="0.95"/>
<path d="M102.328 74.7636V67.147H105.332C105.907 67.147 106.399 67.25 106.805 67.4556C107.214 67.659 107.526 67.9478 107.739 68.3222C107.954 68.694 108.062 69.1316 108.062 69.6348C108.062 70.1407 107.953 70.5759 107.735 70.9404C107.517 71.3023 107.201 71.5801 106.787 71.7733C106.375 71.9668 105.877 72.0633 105.292 72.0633H103.279V70.7694H105.031C105.339 70.7694 105.594 70.7272 105.797 70.6428C106.001 70.5585 106.152 70.4322 106.251 70.2635C106.353 70.0948 106.403 69.8853 106.403 69.6348C106.403 69.382 106.353 69.1688 106.251 68.9954C106.152 68.8217 105.999 68.6902 105.793 68.6009C105.59 68.5093 105.334 68.4633 105.024 68.4633H103.938V74.7636H102.328ZM106.441 71.2974L108.334 74.7636H106.556L104.704 71.2974H106.441Z" fill="white" fill-opacity="0.95"/>
<path d="M49.9049 97.6873V96.3633L52.6828 93.9311C52.891 93.7426 53.0685 93.5703 53.2145 93.4141C53.3609 93.2556 53.4726 93.0967 53.5494 92.9382C53.6262 92.777 53.6646 92.6022 53.6646 92.4137C53.6646 92.2031 53.6189 92.0233 53.527 91.8743C53.4353 91.7233 53.3088 91.6067 53.1476 91.525C52.9865 91.4432 52.8017 91.4022 52.5934 91.4022C52.3828 91.4022 52.1981 91.4455 52.0396 91.5322C51.8807 91.6166 51.7568 91.7393 51.6675 91.9005C51.5808 92.0617 51.5374 92.2575 51.5374 92.4882H49.7932C49.7932 91.97 49.9098 91.5223 50.1428 91.1456C50.3758 90.7686 50.7031 90.4786 51.1246 90.2752C51.5485 90.0695 52.0407 89.9666 52.601 89.9666C53.1787 89.9666 53.6809 90.0634 54.1073 90.2566C54.5338 90.45 54.8634 90.7203 55.0964 91.0674C55.3321 91.4121 55.4499 91.8124 55.4499 92.2688C55.4499 92.5588 55.3914 92.8463 55.275 93.1316C55.1584 93.4167 54.9489 93.7315 54.6464 94.0762C54.3465 94.4207 53.92 94.8335 53.3673 95.3146L52.4558 96.1551V96.2034H55.5427V97.6873H49.9049Z" fill="#05060F" fill-opacity="0.9"/>
<path d="M60.1522 97.8732C59.4877 97.8732 58.9149 97.7158 58.4338 97.401C57.9529 97.0836 57.5823 96.6287 57.3219 96.0361C57.0615 95.4409 56.9327 94.7258 56.9353 93.89C56.9376 93.0546 57.0676 92.3456 57.3257 91.7629C57.586 91.1779 57.9555 90.7328 58.4338 90.4276C58.9149 90.1204 59.4877 89.9666 60.1522 89.9666C60.8166 89.9666 61.3894 90.1204 61.8703 90.4276C62.3538 90.7328 62.7255 91.1779 62.9859 91.7629C63.2463 92.3479 63.3751 93.0572 63.3728 93.89C63.3728 94.7282 63.2425 95.4447 62.9821 96.0399C62.722 96.6348 62.3511 97.0898 61.8703 97.4045C61.3917 97.717 60.8189 97.8732 60.1522 97.8732ZM60.1522 96.3671C60.5487 96.3671 60.8698 96.165 61.1154 95.7609C61.3609 95.3542 61.4822 94.7308 61.4799 93.89C61.4799 93.3396 61.424 92.8861 61.3123 92.5289C61.2009 92.1696 61.0458 91.9017 60.8474 91.7257C60.6493 91.5497 60.4175 91.4615 60.1522 91.4615C59.758 91.4615 59.4391 91.6614 59.1962 92.0605C58.9533 92.457 58.8306 93.0671 58.8282 93.89C58.8256 94.448 58.8788 94.9105 58.9879 95.2774C59.0996 95.6442 59.2559 95.9183 59.4566 96.0992C59.6573 96.2778 59.8892 96.3671 60.1522 96.3671Z" fill="#05060F" fill-opacity="0.9"/>
<path d="M64.846 97.6873V96.3633L67.6242 93.9311C67.8324 93.7426 68.0096 93.5703 68.1559 93.4141C68.3023 93.2556 68.4137 93.0967 68.4905 92.9382C68.5676 92.777 68.606 92.6022 68.606 92.4137C68.606 92.2031 68.56 92.0233 68.4684 91.8743C68.3765 91.7233 68.2502 91.6067 68.089 91.525C67.9279 91.4432 67.7431 91.4022 67.5349 91.4022C67.3242 91.4022 67.1395 91.4455 66.9807 91.5322C66.8221 91.6166 66.6982 91.7393 66.6089 91.9005C66.5219 92.0617 66.4786 92.2575 66.4786 92.4882H64.7346C64.7346 91.97 64.8509 91.5223 65.0839 91.1456C65.317 90.7686 65.6442 90.4786 66.0658 90.2752C66.4899 90.0695 66.9818 89.9666 67.5424 89.9666C68.1199 89.9666 68.622 90.0634 69.0485 90.2566C69.4749 90.45 69.8048 90.7203 70.0378 91.0674C70.2732 91.4121 70.391 91.8124 70.391 92.2688C70.391 92.5588 70.3328 92.8463 70.2162 93.1316C70.0998 93.4167 69.8903 93.7315 69.5878 94.0762C69.2879 94.4207 68.8614 94.8335 68.3084 95.3146L67.3972 96.1551V96.2034H70.4841V97.6873H64.846Z" fill="#05060F" fill-opacity="0.9"/>
<path d="M74.8404 97.7914C74.2604 97.7914 73.7457 97.6922 73.2969 97.4938C72.8506 97.2931 72.4986 97.0167 72.2409 96.6644C71.9828 96.3124 71.8516 95.9072 71.8467 95.4484H73.6986C73.7062 95.6146 73.7594 95.762 73.8586 95.8909C73.9578 96.0175 74.0928 96.1167 74.2638 96.1885C74.4349 96.2604 74.6295 96.2964 74.8477 96.2964C75.0659 96.2964 75.2582 96.258 75.4243 96.181C75.593 96.1018 75.7242 95.9939 75.8185 95.8575C75.9127 95.7187 75.9587 95.5601 75.9561 95.3815C75.9587 95.2029 75.9078 95.0444 75.8036 94.9056C75.6995 94.7666 75.552 94.6589 75.3611 94.5818C75.1726 94.505 74.9495 94.4666 74.6918 94.4666H73.9514V93.1575H74.6918C74.9172 93.1575 75.1156 93.1203 75.2867 93.0458C75.4604 92.9716 75.5953 92.8675 75.6919 92.7337C75.7888 92.5972 75.8359 92.441 75.8333 92.265C75.8359 92.094 75.7949 91.9439 75.7105 91.815C75.6288 91.6835 75.5136 91.582 75.3646 91.5101C75.2186 91.438 75.0487 91.4022 74.8553 91.4022C74.6519 91.4022 74.4672 91.438 74.3011 91.5101C74.1376 91.582 74.0073 91.6835 73.9107 91.815C73.8138 91.9465 73.7632 92.0989 73.7582 92.2723H71.9991C72.0041 91.8188 72.1306 91.4196 72.3785 91.0749C72.6263 90.7279 72.9635 90.4561 73.39 90.2604C73.819 90.0646 74.3075 89.9666 74.8553 89.9666C75.4007 89.9666 75.8804 90.062 76.2944 90.2531C76.7086 90.4439 77.031 90.7043 77.2614 91.0339C77.4921 91.3612 77.6073 91.7318 77.6073 92.146C77.6099 92.5748 77.4697 92.9283 77.1872 93.2058C76.907 93.4836 76.5463 93.6547 76.1047 93.719V93.7786C76.695 93.8482 77.1401 94.039 77.44 94.3514C77.7425 94.6639 77.8924 95.0543 77.89 95.5229C77.89 95.9642 77.7597 96.3558 77.4996 96.6979C77.2416 97.0377 76.882 97.3056 76.4209 97.5014C75.9622 97.6948 75.4353 97.7914 74.8404 97.7914Z" fill="#05060F" fill-opacity="0.9"/>
</svg>
