<svg width="298" height="298" viewBox="0 0 298 298" fill="none" xmlns="http://www.w3.org/2000/svg">
<path d="M281.135 196.381C281.407 197.951 280.19 199.389 278.589 199.389H253.109L254.732 148.73H278.721C280.323 148.73 281.533 150.168 281.252 151.738L277.336 173.616C277.284 173.909 277.283 174.209 277.334 174.503L281.135 196.381Z" fill="#1775E5"/>
<path d="M16.8655 196.381C16.5927 197.951 17.8101 199.389 19.4116 199.389H44.891L43.2681 148.73H19.2786C17.6772 148.73 16.4674 150.168 16.7483 151.738L20.6638 173.616C20.7163 173.909 20.7171 174.209 20.6661 174.503L16.8655 196.381Z" fill="#1775E5"/>
<path d="M237.205 46.601C249.47 48.9373 258.203 59.8629 257.78 72.3414L253.018 212.891C252.729 221.406 248.179 229.205 240.909 233.647L162.207 281.736C154.099 286.689 143.901 286.689 135.793 281.736L57.0915 233.647C49.8213 229.205 45.2714 221.406 44.9828 212.891L40.2199 72.3414C39.797 59.8628 48.5304 48.9373 60.7958 46.601L144.26 30.703C147.392 30.1065 150.608 30.1065 153.74 30.703L237.205 46.601Z" fill="#EAEAEB"/>
<path d="M236.1 58.9198C242.16 60.2008 246.411 65.6678 246.159 71.8565L240.584 208.888C240.374 214.074 237.639 218.83 233.262 221.622L157.534 269.928C152.329 273.248 145.671 273.248 140.466 269.928L64.7377 221.622C60.3614 218.83 57.627 214.074 57.416 208.888L51.8412 71.8565C51.5894 65.6679 55.8404 60.2008 61.9004 58.9198L145.718 41.2023C147.883 40.7448 150.118 40.7448 152.282 41.2023L236.1 58.9198Z" fill="white"/>
<path d="M145.763 17.2942C147.849 16.0881 150.422 16.0881 152.509 17.2942L167.015 25.6775C169.099 26.8821 170.384 29.1069 170.384 31.5144V48.4125C170.384 50.82 169.099 53.0447 167.015 54.2494L152.509 62.6326C150.422 63.8387 147.849 63.8387 145.763 62.6326L131.256 54.2494C129.171 53.0447 127.888 50.82 127.888 48.4125V31.5144C127.888 29.1069 129.171 26.8821 131.256 25.6775L145.763 17.2942Z" fill="#2187FF"/>
<path fill-rule="evenodd" clip-rule="evenodd" d="M154.745 13.424L169.252 21.8073C172.718 23.8107 174.854 27.5106 174.854 31.5145V48.4125C174.854 52.4163 172.718 56.1163 169.252 58.1196L154.745 66.5028C151.274 68.5088 146.997 68.5088 143.526 66.5028L129.02 58.1196C125.553 56.1163 123.418 52.4163 123.418 48.4125V31.5145C123.418 27.5106 125.553 23.8107 129.02 21.8073L143.526 13.424C146.997 11.4182 151.274 11.4182 154.745 13.424ZM152.509 17.2942C150.422 16.0882 147.849 16.0882 145.763 17.2942L131.256 25.6775C129.172 26.8821 127.888 29.1069 127.888 31.5145V48.4125C127.888 50.82 129.172 53.0448 131.256 54.2494L145.763 62.6326C147.849 63.8387 150.422 63.8387 152.509 62.6326L167.015 54.2494C169.099 53.0448 170.384 50.82 170.384 48.4125V31.5145C170.384 29.1069 169.099 26.8821 167.015 25.6775L152.509 17.2942Z" fill="white"/>
<path fill-rule="evenodd" clip-rule="evenodd" d="M137.518 34.0271C137.518 33.7491 137.819 33.5754 138.06 33.7143L146.547 38.6106C146.77 38.7396 146.908 38.9782 146.908 39.2363V51.1953C146.908 51.4732 146.607 51.647 146.367 51.5081L137.88 46.6118C137.656 46.4827 137.518 46.2443 137.518 45.9861V42.379C137.518 42.2407 137.667 42.1537 137.788 42.2218L142.787 45.0471C142.907 45.1152 143.056 45.0282 143.056 44.8899V41.1466C143.056 40.973 142.962 40.8128 142.811 40.7274L137.885 37.943C137.658 37.8149 137.518 37.5746 137.518 37.3142V34.0271ZM160.211 33.7143C160.451 33.5754 160.752 33.7491 160.752 34.0271V37.3142C160.752 37.5746 160.612 37.8149 160.386 37.943L155.459 40.7274C155.308 40.8128 155.215 40.973 155.215 41.1466V44.8899C155.215 45.0282 155.364 45.1152 155.484 45.0471L160.483 42.2218C160.603 42.1537 160.752 42.2407 160.752 42.379V45.9861C160.752 46.2443 160.615 46.4827 160.391 46.6118L151.904 51.5081C151.663 51.647 151.362 51.4732 151.362 51.1953V39.2363C151.362 38.9782 151.5 38.7396 151.724 38.6106L160.211 33.7143ZM148.42 27.1274C148.864 26.8752 149.407 26.8752 149.85 27.1274L156.834 31.1038C157.076 31.2419 157.078 31.5909 156.836 31.7305L153.345 33.7463C153.198 33.8313 153.017 33.8324 152.869 33.7493L149.37 31.7882C149.224 31.7062 149.046 31.7062 148.9 31.7882L145.402 33.7493C145.253 33.8324 145.072 33.8313 144.926 33.7463L141.434 31.7305C141.193 31.5909 141.194 31.2419 141.436 31.1038L148.42 27.1274Z" fill="white"/>
<path d="M98.3035 114.73V93.3526H104.079V114.73H98.3035ZM91.0837 94.057V89.0208H111.334V94.057H91.0837Z" fill="#05060F" fill-opacity="0.88"/>
<path d="M121.612 115.399C119.921 115.399 118.418 115.141 117.104 114.624C115.789 114.085 114.674 113.356 113.758 112.441C112.866 111.525 112.185 110.48 111.715 109.306C111.246 108.109 111.011 106.853 111.011 105.538V104.728C111.011 103.39 111.246 102.122 111.715 100.924C112.209 99.7033 112.913 98.6352 113.829 97.7196C114.768 96.8039 115.895 96.088 117.21 95.5712C118.524 95.0315 119.992 94.7612 121.612 94.7612C123.279 94.7612 124.758 95.0315 126.049 95.5712C127.364 96.088 128.479 96.8039 129.395 97.7196C130.311 98.6352 131.015 99.7033 131.508 100.924C132.001 102.122 132.248 103.39 132.248 104.728V105.538C132.248 106.853 132.013 108.109 131.543 109.306C131.074 110.48 130.381 111.525 129.465 112.441C128.573 113.356 127.47 114.085 126.155 114.624C124.84 115.141 123.326 115.399 121.612 115.399ZM121.612 110.645C122.715 110.645 123.631 110.41 124.359 109.94C125.087 109.471 125.638 108.813 126.014 107.968C126.413 107.123 126.613 106.183 126.613 105.151C126.613 104.047 126.413 103.084 126.014 102.263C125.615 101.417 125.039 100.748 124.288 100.255C123.56 99.7622 122.668 99.5157 121.612 99.5157C120.579 99.5157 119.686 99.7622 118.935 100.255C118.184 100.748 117.608 101.417 117.21 102.263C116.834 103.084 116.646 104.047 116.646 105.151C116.646 106.183 116.834 107.123 117.21 107.968C117.585 108.813 118.149 109.471 118.9 109.94C119.651 110.41 120.555 110.645 121.612 110.645Z" fill="#05060F" fill-opacity="0.88"/>
<path d="M136.18 121.774V95.4304H140.653V103.777L140.054 103.742C140.148 101.816 140.547 100.196 141.251 98.8818C141.956 97.5435 142.907 96.5459 144.104 95.8883C145.301 95.2076 146.652 94.8669 148.154 94.8669C149.492 94.8669 150.702 95.1135 151.782 95.6065C152.886 96.0996 153.824 96.7924 154.599 97.6844C155.398 98.5533 155.996 99.5862 156.395 100.784C156.818 101.957 157.029 103.249 157.029 104.658V105.468C157.029 106.853 156.83 108.156 156.43 109.377C156.031 110.574 155.444 111.619 154.669 112.511C153.918 113.403 152.991 114.108 151.887 114.624C150.808 115.117 149.563 115.364 148.154 115.364C146.699 115.364 145.384 115.071 144.21 114.483C143.06 113.873 142.132 112.958 141.427 111.736C140.723 110.492 140.336 108.919 140.265 107.017L141.815 109.13V121.774H136.18ZM146.569 110.645C147.532 110.645 148.365 110.41 149.07 109.94C149.798 109.471 150.361 108.813 150.76 107.968C151.16 107.123 151.359 106.148 151.359 105.045C151.359 103.942 151.16 102.979 150.76 102.157C150.361 101.336 149.809 100.702 149.105 100.255C148.401 99.786 147.555 99.551 146.569 99.551C145.724 99.551 144.926 99.7507 144.174 100.15C143.423 100.549 142.813 101.124 142.343 101.875C141.897 102.603 141.674 103.495 141.674 104.552V105.855C141.674 106.865 141.909 107.733 142.378 108.461C142.871 109.166 143.494 109.705 144.245 110.081C144.997 110.457 145.771 110.645 146.569 110.645Z" fill="#05060F" fill-opacity="0.88"/>
<path d="M171.965 114.73V92.8243L173.515 94.0217H166.929V89.0208H177.706V114.73H171.965Z" fill="#05060F" fill-opacity="0.88"/>
<path d="M194.284 115.399C192.241 115.399 190.492 115.071 189.036 114.413C187.581 113.732 186.395 112.817 185.479 111.666C184.587 110.515 183.918 109.189 183.472 107.686C183.049 106.16 182.838 104.552 182.838 102.861V100.854C182.838 98.5059 183.249 96.3812 184.071 94.4795C184.892 92.5777 186.148 91.0633 187.839 89.9363C189.529 88.8093 191.678 88.2458 194.284 88.2458C196.89 88.2458 199.027 88.8093 200.693 89.9363C202.384 91.0633 203.64 92.5777 204.462 94.4795C205.283 96.3812 205.694 98.5059 205.694 100.854V102.861C205.694 104.552 205.472 106.16 205.025 107.686C204.603 109.189 203.934 110.515 203.018 111.666C202.126 112.817 200.952 113.732 199.496 114.413C198.064 115.071 196.326 115.399 194.284 115.399ZM194.284 110.081C196.186 110.081 197.594 109.423 198.51 108.109C199.449 106.771 199.919 104.704 199.919 101.911C199.919 98.9522 199.437 96.8276 198.475 95.536C197.535 94.2214 196.139 93.5638 194.284 93.5638C192.382 93.5638 190.962 94.2214 190.022 95.536C189.083 96.8276 188.614 98.9285 188.614 101.84C188.614 104.658 189.072 106.735 189.987 108.074C190.927 109.412 192.358 110.081 194.284 110.081Z" fill="#05060F" fill-opacity="0.88"/>
<path d="M33.6153 142.857C33.566 141.177 34.9139 139.789 36.594 139.789H261.406C263.086 139.789 264.434 141.177 264.385 142.857L263.07 187.557C263.023 189.168 261.703 190.449 260.092 190.449H37.9088C36.2971 190.449 34.9774 189.168 34.9301 187.557L33.6153 142.857Z" fill="#2187FF"/>
<path d="M88.5575 174.059H82.2717V156.327H88.6096C90.3929 156.327 91.9283 156.682 93.2158 157.391C94.5026 158.096 95.4928 159.109 96.1856 160.431C96.8839 161.752 97.2334 163.334 97.2334 165.175C97.2334 167.023 96.8839 168.61 96.1856 169.938C95.4928 171.265 94.4972 172.284 93.1982 172.994C91.9053 173.704 90.3584 174.059 88.5575 174.059ZM86.0204 170.847H88.4017C89.5097 170.847 90.4423 170.65 91.1982 170.258C91.9601 169.859 92.5317 169.245 92.9124 168.414C93.2991 167.577 93.4928 166.497 93.4928 165.175C93.4928 163.865 93.2991 162.795 92.9124 161.963C92.5317 161.132 91.9628 160.52 91.207 160.128C90.4505 159.735 89.5185 159.539 88.4105 159.539H86.0204V170.847Z" fill="white" fill-opacity="0.95"/>
<path d="M101.961 174.059V156.327H113.909V159.418H105.71V163.643H113.294V166.734H105.71V170.968H113.944V174.059H101.961Z" fill="white" fill-opacity="0.95"/>
<path d="M128.46 161.427C128.391 160.728 128.093 160.185 127.568 159.798C127.043 159.412 126.33 159.219 125.43 159.219C124.817 159.219 124.301 159.305 123.879 159.478C123.458 159.645 123.135 159.88 122.91 160.18C122.691 160.48 122.581 160.82 122.581 161.201C122.569 161.519 122.636 161.796 122.78 162.033C122.93 162.269 123.135 162.474 123.394 162.647C123.654 162.814 123.955 162.962 124.295 163.089C124.636 163.21 125 163.314 125.386 163.401L126.979 163.781C127.753 163.955 128.462 164.186 129.109 164.474C129.755 164.763 130.315 165.118 130.789 165.539C131.262 165.96 131.629 166.457 131.889 167.028C132.154 167.6 132.29 168.255 132.295 168.994C132.29 170.079 132.013 171.02 131.464 171.817C130.922 172.607 130.137 173.222 129.109 173.661C128.087 174.094 126.855 174.31 125.412 174.31C123.98 174.31 122.734 174.091 121.671 173.652C120.616 173.213 119.79 172.564 119.195 171.703C118.607 170.838 118.298 169.767 118.269 168.492H121.897C121.937 169.086 122.108 169.582 122.408 169.981C122.714 170.373 123.121 170.671 123.629 170.872C124.142 171.069 124.723 171.167 125.369 171.167C126.004 171.167 126.555 171.074 127.023 170.89C127.496 170.705 127.862 170.449 128.122 170.119C128.382 169.79 128.512 169.412 128.512 168.985C128.512 168.587 128.393 168.252 128.157 167.981C127.926 167.71 127.585 167.479 127.135 167.288C126.691 167.097 126.145 166.925 125.499 166.769L123.568 166.284C122.073 165.92 120.893 165.351 120.026 164.578C119.161 163.804 118.731 162.763 118.737 161.452C118.731 160.379 119.017 159.441 119.594 158.638C120.177 157.836 120.976 157.21 121.992 156.759C123.008 156.309 124.162 156.084 125.455 156.084C126.771 156.084 127.92 156.309 128.901 156.759C129.888 157.21 130.656 157.836 131.205 158.638C131.753 159.441 132.036 160.37 132.053 161.427H128.46Z" fill="white" fill-opacity="0.95"/>
<path d="M140.517 156.327V174.059H136.768V156.327H140.517Z" fill="white" fill-opacity="0.95"/>
<path d="M157.309 162.058C157.188 161.637 157.018 161.265 156.799 160.942C156.579 160.612 156.311 160.335 155.994 160.111C155.682 159.88 155.324 159.704 154.92 159.582C154.522 159.461 154.08 159.4 153.595 159.4C152.689 159.4 151.893 159.626 151.206 160.075C150.525 160.526 149.994 161.181 149.612 162.041C149.232 162.896 149.041 163.94 149.041 165.175C149.041 166.411 149.229 167.461 149.604 168.327C149.979 169.193 150.51 169.854 151.197 170.31C151.884 170.76 152.695 170.985 153.63 170.985C154.478 170.985 155.203 170.835 155.803 170.535C156.409 170.229 156.871 169.799 157.188 169.245C157.512 168.691 157.673 168.035 157.673 167.28L158.435 167.392H153.864V164.569H161.284V166.803C161.284 168.362 160.955 169.701 160.297 170.82C159.639 171.934 158.732 172.795 157.578 173.401C156.424 174.001 155.102 174.302 153.613 174.302C151.95 174.302 150.49 173.934 149.232 173.202C147.973 172.463 146.992 171.415 146.288 170.058C145.589 168.696 145.24 167.08 145.24 165.21C145.24 163.773 145.448 162.491 145.864 161.366C146.285 160.235 146.873 159.276 147.63 158.491C148.386 157.706 149.266 157.109 150.271 156.699C151.275 156.289 152.363 156.084 153.535 156.084C154.539 156.084 155.474 156.231 156.34 156.526C157.206 156.814 157.974 157.224 158.643 157.755C159.318 158.286 159.87 158.919 160.297 159.651C160.724 160.379 160.998 161.181 161.119 162.058H157.309Z" fill="white" fill-opacity="0.95"/>
<path d="M180.883 156.327V174.059H177.644L169.93 162.898H169.8V174.059H166.05V156.327H169.341L176.994 167.479H177.151V156.327H180.883Z" fill="white" fill-opacity="0.95"/>
<path d="M185.93 174.059V156.327H197.879V159.418H189.68V163.643H197.264V166.734H189.68V170.968H197.913V174.059H185.93Z" fill="white" fill-opacity="0.95"/>
<path d="M202.81 174.059V156.327H209.806C211.145 156.327 212.288 156.566 213.235 157.045C214.187 157.519 214.912 158.191 215.408 159.063C215.91 159.928 216.161 160.947 216.161 162.119C216.161 163.296 215.907 164.31 215.399 165.158C214.891 166.001 214.155 166.648 213.191 167.097C212.233 167.548 211.073 167.773 209.711 167.773H205.027V164.76H209.105C209.82 164.76 210.415 164.662 210.889 164.465C211.361 164.269 211.713 163.975 211.944 163.582C212.181 163.189 212.299 162.702 212.299 162.119C212.299 161.53 212.181 161.034 211.944 160.63C211.713 160.226 211.359 159.92 210.88 159.712C210.406 159.498 209.809 159.391 209.087 159.391H206.559V174.059H202.81ZM212.386 165.989L216.793 174.059H212.655L208.343 165.989H212.386Z" fill="white" fill-opacity="0.95"/>
<path d="M116.183 227.429V224.346L122.651 218.684C123.136 218.245 123.549 217.844 123.889 217.48C124.229 217.111 124.489 216.742 124.668 216.372C124.847 215.997 124.936 215.59 124.936 215.151C124.936 214.66 124.83 214.242 124.616 213.896C124.403 213.543 124.108 213.273 123.733 213.082C123.358 212.891 122.928 212.796 122.443 212.796C121.952 212.796 121.522 212.897 121.153 213.099C120.783 213.296 120.495 213.581 120.287 213.956C120.085 214.331 119.984 214.788 119.984 215.324H115.923C115.923 214.118 116.195 213.076 116.737 212.198C117.28 211.321 118.042 210.646 119.023 210.173C120.01 209.693 121.156 209.454 122.46 209.454C123.805 209.454 124.974 209.679 125.967 210.129C126.96 210.58 127.728 211.209 128.27 212.017C128.819 212.819 129.093 213.751 129.093 214.813C129.093 215.489 128.957 216.158 128.686 216.822C128.414 217.486 127.927 218.219 127.222 219.021C126.524 219.824 125.531 220.785 124.244 221.904L122.123 223.861V223.974H129.309V227.429H116.183Z" fill="#05060F" fill-opacity="0.9"/>
<path d="M140.04 227.862C138.494 227.862 137.16 227.495 136.04 226.762C134.92 226.023 134.057 224.964 133.451 223.584C132.845 222.199 132.545 220.534 132.551 218.588C132.557 216.643 132.86 214.992 133.46 213.636C134.066 212.274 134.926 211.237 136.04 210.528C137.16 209.812 138.494 209.454 140.04 209.454C141.587 209.454 142.921 209.812 144.04 210.528C145.166 211.237 146.032 212.274 146.638 213.636C147.244 214.998 147.544 216.649 147.538 218.588C147.538 220.54 147.235 222.208 146.629 223.593C146.023 224.979 145.16 226.038 144.04 226.771C142.926 227.498 141.593 227.862 140.04 227.862ZM140.04 224.355C140.964 224.355 141.711 223.885 142.283 222.943C142.854 221.997 143.137 220.545 143.131 218.588C143.131 217.307 143.001 216.251 142.741 215.42C142.482 214.582 142.121 213.959 141.659 213.55C141.198 213.14 140.658 212.935 140.04 212.935C139.123 212.935 138.381 213.399 137.815 214.328C137.249 215.252 136.964 216.672 136.958 218.588C136.952 219.887 137.076 220.964 137.33 221.818C137.59 222.672 137.954 223.31 138.421 223.732C138.889 224.147 139.428 224.355 140.04 224.355Z" fill="#05060F" fill-opacity="0.9"/>
<path d="M150.968 227.429V224.346L157.436 218.684C157.921 218.245 158.333 217.844 158.674 217.48C159.015 217.111 159.274 216.742 159.454 216.372C159.632 215.997 159.722 215.59 159.722 215.151C159.722 214.66 159.615 214.242 159.402 213.896C159.188 213.543 158.894 213.273 158.518 213.082C158.143 212.891 157.713 212.796 157.228 212.796C156.738 212.796 156.308 212.897 155.938 213.099C155.569 213.296 155.28 213.581 155.072 213.956C154.87 214.331 154.769 214.788 154.769 215.324H150.709C150.709 214.118 150.98 213.076 151.522 212.198C152.065 211.321 152.827 210.646 153.808 210.173C154.795 209.693 155.941 209.454 157.246 209.454C158.59 209.454 159.759 209.679 160.752 210.129C161.745 210.58 162.513 211.209 163.055 212.017C163.603 212.819 163.878 213.751 163.878 214.813C163.878 215.489 163.742 216.158 163.471 216.822C163.2 217.486 162.712 218.219 162.008 219.021C161.309 219.824 160.317 220.785 159.029 221.904L156.908 223.861V223.974H164.094V227.429H150.968Z" fill="#05060F" fill-opacity="0.9"/>
<path d="M174.237 227.671C172.886 227.671 171.688 227.44 170.644 226.979C169.604 226.511 168.784 225.867 168.184 225.048C167.584 224.228 167.278 223.284 167.267 222.216H171.578C171.596 222.603 171.72 222.947 171.951 223.247C172.182 223.541 172.496 223.772 172.894 223.94C173.292 224.107 173.746 224.19 174.254 224.19C174.762 224.19 175.209 224.101 175.596 223.922C175.989 223.737 176.294 223.486 176.514 223.169C176.733 222.845 176.84 222.476 176.834 222.06C176.84 221.645 176.721 221.275 176.479 220.952C176.237 220.629 175.893 220.378 175.449 220.199C175.01 220.02 174.491 219.93 173.89 219.93H172.167V216.882H173.89C174.415 216.882 174.877 216.796 175.275 216.623C175.68 216.45 175.994 216.207 176.219 215.896C176.444 215.578 176.554 215.214 176.548 214.805C176.554 214.406 176.459 214.058 176.262 213.757C176.072 213.451 175.804 213.214 175.457 213.047C175.117 212.88 174.721 212.796 174.271 212.796C173.798 212.796 173.368 212.88 172.981 213.047C172.6 213.214 172.297 213.451 172.072 213.757C171.847 214.063 171.729 214.418 171.717 214.822H167.622C167.633 213.766 167.928 212.836 168.505 212.034C169.082 211.226 169.867 210.594 170.86 210.138C171.859 209.682 172.996 209.454 174.271 209.454C175.541 209.454 176.658 209.676 177.622 210.121C178.586 210.565 179.336 211.171 179.873 211.939C180.41 212.701 180.678 213.564 180.678 214.528C180.684 215.527 180.358 216.349 179.7 216.996C179.048 217.642 178.208 218.04 177.181 218.19V218.328C178.554 218.49 179.59 218.935 180.289 219.662C180.993 220.389 181.342 221.298 181.336 222.389C181.336 223.417 181.033 224.329 180.428 225.126C179.827 225.917 178.99 226.54 177.916 226.995C176.848 227.446 175.622 227.671 174.237 227.671Z" fill="#05060F" fill-opacity="0.9"/>
</svg>
