<svg width="299" height="298" viewBox="0 0 299 298" fill="none" xmlns="http://www.w3.org/2000/svg">
<path d="M281.686 196.381C281.959 197.951 280.741 199.389 279.14 199.389H253.66L255.284 148.73H279.273C280.874 148.73 282.084 150.168 281.803 151.738L277.888 173.616C277.835 173.909 277.834 174.209 277.886 174.503L281.686 196.381Z" fill="#1775E5"/>
<path d="M17.4166 196.381C17.1438 197.951 18.3612 199.389 19.9626 199.389H45.4421L43.8191 148.73H19.8296C18.2282 148.73 17.0184 150.168 17.2993 151.738L21.2148 173.616C21.2673 173.909 21.2681 174.209 21.2172 174.503L17.4166 196.381Z" fill="#1775E5"/>
<path d="M237.756 46.6008C250.022 48.9371 258.755 59.8626 258.332 72.3415L253.569 212.891C253.281 221.405 248.731 229.205 241.46 233.647L162.759 281.735C154.651 286.69 144.453 286.69 136.345 281.735L57.6432 233.647C50.373 229.205 45.8231 221.405 45.5345 212.891L40.7716 72.3415C40.3487 59.8626 49.0821 48.937 61.3475 46.6008L144.812 30.7027C147.944 30.1063 151.16 30.1063 154.291 30.7027L237.756 46.6008Z" fill="#EAEAEB"/>
<path d="M236.651 58.9198C242.711 60.2008 246.962 65.6679 246.71 71.8565L241.135 208.888C240.925 214.074 238.19 218.83 233.813 221.622L158.085 269.928C152.881 273.248 146.222 273.248 141.017 269.928L65.2888 221.622C60.9124 218.83 58.178 214.074 57.967 208.888L52.3922 71.8565C52.1405 65.6679 56.3914 60.2008 62.4515 58.9198L146.269 41.2023C148.434 40.7448 150.669 40.7448 152.833 41.2023L236.651 58.9198Z" fill="white"/>
<path d="M146.18 17.2945C148.267 16.0884 150.839 16.0884 152.926 17.2945L167.432 25.6777C169.516 26.8824 170.801 29.1072 170.801 31.5147V48.4127C170.801 50.8202 169.516 53.045 167.432 54.2496L152.926 62.6328C150.839 63.839 148.267 63.839 146.18 62.6328L131.673 54.2496C129.589 53.045 128.305 50.8202 128.305 48.4127V31.5147C128.305 29.1072 129.589 26.8824 131.673 25.6777L146.18 17.2945Z" fill="#2187FF"/>
<path fill-rule="evenodd" clip-rule="evenodd" d="M154.959 13.7763L169.466 22.1595C172.807 24.0903 174.864 27.6561 174.864 31.5148V48.4128C174.864 52.2716 172.807 55.8374 169.466 57.7681L154.959 66.1513C151.614 68.0843 147.491 68.0843 144.146 66.1513L129.64 57.7681C126.299 55.8374 124.241 52.2715 124.241 48.4128V31.5148C124.241 27.6561 126.299 24.0903 129.64 22.1595L144.146 13.7763C147.491 11.8431 151.614 11.8431 154.959 13.7763ZM152.926 17.2946C150.839 16.0885 148.267 16.0885 146.18 17.2946L131.673 25.6778C129.589 26.8825 128.305 29.1073 128.305 31.5148V48.4128C128.305 50.8203 129.589 53.0452 131.673 54.2497L146.18 62.633C148.267 63.8391 150.839 63.8391 152.926 62.633L167.432 54.2497C169.516 53.0452 170.8 50.8203 170.8 48.4128V31.5148C170.8 29.1073 169.516 26.8825 167.432 25.6778L152.926 17.2946Z" fill="white"/>
<path fill-rule="evenodd" clip-rule="evenodd" d="M137.935 34.0276C137.935 33.7496 138.236 33.5758 138.476 33.7148L146.963 38.6111C147.187 38.7401 147.325 38.9786 147.325 39.2368V51.1958C147.325 51.4737 147.024 51.6475 146.783 51.5086L138.296 46.6123C138.073 46.4832 137.935 46.2447 137.935 45.9866V42.3794C137.935 42.2411 138.084 42.1542 138.204 42.2222L143.203 45.0476C143.324 45.1157 143.473 45.0287 143.473 44.8904V41.1471C143.473 40.9734 143.379 40.8133 143.228 40.7278L138.302 37.9435C138.075 37.8154 137.935 37.5751 137.935 37.3147V34.0276ZM160.627 33.7148C160.868 33.5758 161.169 33.7496 161.169 34.0276V37.3147C161.169 37.5751 161.029 37.8154 160.802 37.9435L155.876 40.7278C155.725 40.8133 155.632 40.9734 155.632 41.1471V44.8904C155.632 45.0287 155.781 45.1157 155.901 45.0476L160.899 42.2222C161.02 42.1542 161.169 42.2411 161.169 42.3794V45.9866C161.169 46.2447 161.032 46.4832 160.808 46.6123L152.32 51.5086C152.08 51.6475 151.779 51.4737 151.779 51.1958V39.2368C151.779 38.9786 151.917 38.7401 152.14 38.6111L160.627 33.7148ZM148.837 27.1279C149.28 26.8756 149.823 26.8756 150.267 27.1279L157.251 31.1043C157.493 31.2424 157.494 31.5914 157.253 31.731L153.762 33.7468C153.615 33.8318 153.434 33.8329 153.286 33.7498L149.787 31.7887C149.641 31.7067 149.463 31.7067 149.317 31.7887L145.819 33.7498C145.67 33.8329 145.489 33.8318 145.342 33.7468L141.851 31.731C141.609 31.5914 141.611 31.2424 141.853 31.1043L148.837 27.1279Z" fill="white"/>
<path d="M79.5677 114.73V93.3526H85.3435V114.73H79.5677ZM72.348 94.057V89.0208H92.5985V94.057H72.348Z" fill="#05060F" fill-opacity="0.88"/>
<path d="M95.9144 114.73V89.0208H101.549V103.848H100.704C100.704 101.899 100.951 100.255 101.444 98.9171C101.937 97.5788 102.665 96.569 103.627 95.8883C104.59 95.1839 105.799 94.8318 107.255 94.8318H107.501C109.638 94.8318 111.27 95.595 112.397 97.1209C113.524 98.6238 114.087 100.83 114.087 103.742V114.73H108.452V103.39C108.452 102.333 108.135 101.488 107.501 100.854C106.891 100.196 106.081 99.8679 105.071 99.8679C104.015 99.8679 103.158 100.209 102.5 100.889C101.866 101.57 101.549 102.474 101.549 103.601V114.73H95.9144Z" fill="#05060F" fill-opacity="0.88"/>
<path d="M127.729 115.399C126.086 115.399 124.629 115.117 123.362 114.554C122.117 113.99 121.072 113.239 120.227 112.3C119.406 111.337 118.772 110.269 118.325 109.095C117.903 107.898 117.691 106.676 117.691 105.432V104.728C117.691 103.436 117.903 102.204 118.325 101.03C118.772 99.8326 119.406 98.7646 120.227 97.8252C121.049 96.8858 122.071 96.1463 123.291 95.6065C124.536 95.043 125.945 94.7612 127.517 94.7612C129.584 94.7612 131.321 95.2306 132.73 96.17C134.162 97.0856 135.254 98.2946 136.005 99.7974C136.757 101.277 137.132 102.897 137.132 104.658V106.559H120.051V103.354H133.716L131.884 104.834C131.884 103.683 131.72 102.697 131.391 101.875C131.063 101.054 130.57 100.431 129.912 100.009C129.278 99.5624 128.48 99.3396 127.517 99.3396C126.531 99.3396 125.698 99.5624 125.017 100.009C124.336 100.455 123.819 101.112 123.467 101.981C123.115 102.826 122.939 103.871 122.939 105.115C122.939 106.266 123.104 107.275 123.432 108.144C123.761 108.989 124.277 109.647 124.982 110.116C125.686 110.586 126.602 110.821 127.729 110.821C128.762 110.821 129.607 110.621 130.264 110.222C130.922 109.823 131.368 109.33 131.603 108.743H136.78C136.498 110.034 135.947 111.184 135.124 112.194C134.303 113.204 133.27 113.99 132.025 114.554C130.781 115.117 129.349 115.399 127.729 115.399Z" fill="#05060F" fill-opacity="0.88"/>
<path d="M153.508 114.906V110.398H159.53C160.61 110.398 161.42 110.116 161.96 109.553C162.501 108.989 162.77 108.191 162.77 107.158C162.77 106.125 162.501 105.338 161.96 104.798C161.42 104.235 160.61 103.953 159.53 103.953H153.508V100.467H159.248C161.033 100.467 162.618 100.689 164.003 101.136C165.388 101.558 166.48 102.251 167.278 103.214C168.077 104.176 168.475 105.479 168.475 107.123V107.616C168.475 109.142 168.123 110.457 167.419 111.56C166.715 112.641 165.682 113.474 164.32 114.061C162.958 114.624 161.268 114.906 159.248 114.906H153.508ZM148.577 114.906V88.8093H154.212V114.906H148.577ZM153.508 103.037V99.5861H158.579C159.683 99.5861 160.481 99.3043 160.974 98.7409C161.467 98.1774 161.714 97.4263 161.714 96.4869C161.714 95.5008 161.467 94.726 160.974 94.1625C160.481 93.599 159.683 93.3172 158.579 93.3172H153.508V88.8093H158.227C161.185 88.8093 163.451 89.4317 165.024 90.6759C166.621 91.92 167.419 93.6931 167.419 95.9938V96.5221C167.419 98.1184 167.008 99.3985 166.186 100.361C165.388 101.323 164.297 102.016 162.911 102.439C161.55 102.838 159.988 103.037 158.227 103.037H153.508Z" fill="#05060F" fill-opacity="0.88"/>
<path d="M181.312 115.399C179.669 115.399 178.213 115.117 176.945 114.554C175.701 113.99 174.656 113.239 173.811 112.3C172.989 111.337 172.356 110.269 171.909 109.095C171.487 107.898 171.275 106.676 171.275 105.432V104.728C171.275 103.436 171.487 102.204 171.909 101.03C172.356 99.8326 172.989 98.7646 173.811 97.8252C174.633 96.8858 175.655 96.1463 176.875 95.6065C178.12 95.043 179.529 94.7612 181.101 94.7612C183.168 94.7612 184.905 95.2306 186.313 96.17C187.746 97.0856 188.838 98.2946 189.589 99.7974C190.34 101.277 190.716 102.897 190.716 104.658V106.559H173.635V103.354H187.3L185.468 104.834C185.468 103.683 185.304 102.697 184.975 101.875C184.647 101.054 184.154 100.431 183.496 100.009C182.862 99.5624 182.064 99.3396 181.101 99.3396C180.115 99.3396 179.282 99.5624 178.601 100.009C177.92 100.455 177.403 101.112 177.051 101.981C176.699 102.826 176.523 103.871 176.523 105.115C176.523 106.266 176.687 107.275 177.016 108.144C177.345 108.989 177.861 109.647 178.565 110.116C179.27 110.586 180.185 110.821 181.312 110.821C182.346 110.821 183.191 110.621 183.848 110.222C184.506 109.823 184.952 109.33 185.186 108.743H190.364C190.082 110.034 189.53 111.184 188.708 112.194C187.887 113.204 186.854 113.99 185.609 114.554C184.365 115.117 182.932 115.399 181.312 115.399Z" fill="#05060F" fill-opacity="0.88"/>
<path d="M201.776 115.329C199.029 115.329 196.88 114.765 195.331 113.638C193.781 112.511 192.959 110.926 192.865 108.884H197.866C197.96 109.494 198.324 110.046 198.958 110.539C199.615 111.008 200.59 111.243 201.881 111.243C202.867 111.243 203.677 111.079 204.311 110.75C204.968 110.398 205.297 109.905 205.297 109.271C205.297 108.708 205.051 108.261 204.558 107.933C204.065 107.581 203.184 107.334 201.916 107.193L200.402 107.052C198.078 106.817 196.328 106.172 195.155 105.115C194.004 104.059 193.429 102.709 193.429 101.065C193.429 99.7033 193.769 98.5648 194.45 97.6492C195.131 96.7335 196.07 96.0407 197.268 95.5713C198.488 95.102 199.874 94.8669 201.423 94.8669C203.912 94.8669 205.919 95.4189 207.446 96.5222C208.972 97.6024 209.77 99.1751 209.841 101.241H204.84C204.745 100.607 204.417 100.079 203.853 99.6566C203.29 99.2103 202.456 98.9875 201.353 98.9875C200.484 98.9875 199.791 99.152 199.275 99.4805C198.758 99.809 198.5 100.255 198.5 100.819C198.5 101.359 198.723 101.77 199.169 102.051C199.615 102.333 200.343 102.533 201.353 102.65L202.867 102.791C205.238 103.049 207.081 103.707 208.397 104.763C209.711 105.82 210.369 107.24 210.369 109.025C210.369 110.316 210.017 111.443 209.312 112.406C208.608 113.345 207.61 114.072 206.319 114.589C205.027 115.082 203.513 115.329 201.776 115.329Z" fill="#05060F" fill-opacity="0.88"/>
<path d="M222.789 114.977C220.84 114.977 219.267 114.742 218.069 114.272C216.872 113.779 215.992 112.969 215.428 111.842C214.888 110.692 214.618 109.142 214.618 107.193V90.2183H219.866V107.405C219.866 108.32 220.101 109.025 220.57 109.518C221.063 109.987 221.756 110.222 222.648 110.222H225.5V114.977H222.789ZM211.695 99.5511V95.4306H225.5V99.5511H211.695Z" fill="#05060F" fill-opacity="0.88"/>
<path d="M34.4167 142.856C34.3673 141.177 35.7153 139.789 37.3954 139.789H262.207C263.888 139.789 265.235 141.177 265.187 142.856L263.871 187.556C263.824 189.168 262.505 190.449 260.893 190.449H38.7102C37.0985 190.449 35.7789 189.168 35.7314 187.556L34.4167 142.856Z" fill="#2187FF"/>
<path d="M52.4791 174.059L47.4053 156.327H51.5007L54.4358 168.648H54.583L57.8212 156.327H61.3278L64.5574 168.673H64.7132L67.6484 156.327H71.7439L66.67 174.059H63.0162L59.6395 162.465H59.501L56.1329 174.059H52.4791Z" fill="white" fill-opacity="0.95"/>
<path d="M75.7006 174.059V156.327H87.6497V159.418H79.4499V163.643H87.0347V166.734H79.4499V170.968H87.6842V174.059H75.7006Z" fill="white" fill-opacity="0.95"/>
<path d="M92.5802 174.059V156.327H99.6801C100.985 156.327 102.073 156.52 102.945 156.906C103.816 157.293 104.471 157.83 104.91 158.517C105.349 159.198 105.568 159.983 105.568 160.873C105.568 161.565 105.429 162.174 105.152 162.699C104.875 163.219 104.494 163.646 104.009 163.981C103.53 164.31 102.982 164.543 102.364 164.682V164.855C103.04 164.884 103.672 165.074 104.26 165.426C104.855 165.779 105.337 166.272 105.706 166.907C106.076 167.536 106.26 168.287 106.26 169.158C106.26 170.099 106.027 170.939 105.559 171.678C105.098 172.411 104.414 172.991 103.507 173.418C102.601 173.845 101.484 174.059 100.157 174.059H92.5802ZM96.3296 170.994H99.3861C100.43 170.994 101.192 170.795 101.672 170.396C102.151 169.992 102.39 169.456 102.39 168.786C102.39 168.295 102.272 167.863 102.036 167.487C101.799 167.112 101.461 166.818 101.022 166.604C100.59 166.39 100.073 166.284 99.4728 166.284H96.3296V170.994ZM96.3296 163.747H99.1091C99.6225 163.747 100.078 163.657 100.477 163.479C100.881 163.294 101.199 163.034 101.429 162.699C101.666 162.365 101.784 161.963 101.784 161.496C101.784 160.855 101.556 160.338 101.1 159.946C100.65 159.553 100.009 159.357 99.1782 159.357H96.3296V163.747Z" fill="white" fill-opacity="0.95"/>
<path d="M124.531 174.059H118.244V156.327H124.582C126.366 156.327 127.901 156.682 129.188 157.391C130.476 158.096 131.466 159.109 132.158 160.431C132.857 161.752 133.206 163.334 133.206 165.175C133.206 167.023 132.857 168.61 132.158 169.938C131.466 171.265 130.47 172.284 129.171 172.994C127.878 173.704 126.331 174.059 124.531 174.059ZM121.994 170.847H124.374C125.483 170.847 126.415 170.65 127.171 170.258C127.933 169.859 128.504 169.245 128.885 168.414C129.272 167.577 129.465 166.497 129.465 165.175C129.465 163.865 129.272 162.795 128.885 161.963C128.504 161.132 127.936 160.52 127.179 160.128C126.424 159.735 125.492 159.539 124.383 159.539H121.994V170.847Z" fill="white" fill-opacity="0.95"/>
<path d="M137.934 174.059V156.327H149.882V159.418H141.683V163.643H149.267V166.734H141.683V170.968H149.917V174.059H137.934Z" fill="white" fill-opacity="0.95"/>
<path d="M164.433 161.427C164.363 160.728 164.066 160.185 163.541 159.798C163.015 159.412 162.303 159.219 161.402 159.219C160.79 159.219 160.274 159.305 159.852 159.478C159.431 159.645 159.108 159.88 158.882 160.18C158.663 160.48 158.553 160.82 158.553 161.201C158.542 161.519 158.608 161.796 158.752 162.033C158.903 162.269 159.108 162.474 159.367 162.647C159.627 162.814 159.928 162.962 160.268 163.089C160.608 163.21 160.972 163.314 161.359 163.401L162.952 163.781C163.726 163.955 164.435 164.186 165.082 164.474C165.728 164.763 166.288 165.118 166.762 165.539C167.235 165.96 167.602 166.457 167.861 167.028C168.127 167.6 168.263 168.255 168.268 168.994C168.263 170.079 167.985 171.02 167.437 171.817C166.895 172.607 166.11 173.222 165.082 173.661C164.06 174.094 162.828 174.31 161.385 174.31C159.953 174.31 158.706 174.091 157.644 173.652C156.588 173.213 155.763 172.564 155.168 171.703C154.579 170.838 154.27 169.767 154.242 168.492H157.869C157.91 169.086 158.08 169.582 158.381 169.981C158.686 170.373 159.093 170.671 159.601 170.872C160.115 171.069 160.695 171.167 161.342 171.167C161.976 171.167 162.528 171.074 162.996 170.89C163.468 170.705 163.835 170.449 164.095 170.119C164.355 169.79 164.484 169.412 164.484 168.985C164.484 168.587 164.366 168.252 164.129 167.981C163.898 167.71 163.558 167.479 163.108 167.288C162.664 167.097 162.118 166.925 161.472 166.769L159.541 166.284C158.045 165.92 156.865 165.351 155.999 164.578C155.134 163.804 154.704 162.763 154.709 161.452C154.704 160.379 154.99 159.441 155.567 158.638C156.15 157.836 156.949 157.21 157.965 156.759C158.981 156.309 160.135 156.084 161.428 156.084C162.744 156.084 163.893 156.309 164.874 156.759C165.861 157.21 166.629 157.836 167.177 158.638C167.726 159.441 168.009 160.37 168.026 161.427H164.433Z" fill="white" fill-opacity="0.95"/>
<path d="M176.49 156.327V174.059H172.74V156.327H176.49Z" fill="white" fill-opacity="0.95"/>
<path d="M193.283 162.058C193.161 161.637 192.991 161.265 192.772 160.942C192.552 160.612 192.284 160.335 191.967 160.111C191.655 159.88 191.297 159.704 190.893 159.582C190.495 159.461 190.053 159.4 189.568 159.4C188.662 159.4 187.866 159.626 187.178 160.075C186.498 160.526 185.967 161.181 185.585 162.041C185.205 162.896 185.014 163.94 185.014 165.175C185.014 166.411 185.201 167.461 185.577 168.327C185.952 169.193 186.483 169.854 187.17 170.31C187.857 170.76 188.668 170.985 189.603 170.985C190.452 170.985 191.176 170.835 191.776 170.535C192.382 170.229 192.844 169.799 193.161 169.245C193.484 168.691 193.646 168.035 193.646 167.28L194.408 167.392H189.837V164.569H197.257V166.803C197.257 168.362 196.928 169.701 196.27 170.82C195.612 171.934 194.706 172.795 193.551 173.401C192.397 174.001 191.075 174.302 189.585 174.302C187.923 174.302 186.463 173.934 185.205 173.202C183.946 172.463 182.965 171.415 182.261 170.058C181.562 168.696 181.213 167.08 181.213 165.21C181.213 163.773 181.421 162.491 181.837 161.366C182.258 160.235 182.846 159.276 183.603 158.491C184.359 157.706 185.239 157.109 186.244 156.699C187.248 156.289 188.336 156.084 189.507 156.084C190.512 156.084 191.447 156.231 192.313 156.526C193.179 156.814 193.946 157.224 194.616 157.755C195.291 158.286 195.843 158.919 196.27 159.651C196.697 160.379 196.971 161.181 197.092 162.058H193.283Z" fill="white" fill-opacity="0.95"/>
<path d="M216.855 156.327V174.059H213.617L205.902 162.898H205.773V174.059H202.023V156.327H205.314L212.967 167.479H213.123V156.327H216.855Z" fill="white" fill-opacity="0.95"/>
<path d="M221.903 174.059V156.327H233.852V159.418H225.652V163.643H233.237V166.734H225.652V170.968H233.886V174.059H221.903Z" fill="white" fill-opacity="0.95"/>
<path d="M238.783 174.059V156.327H245.779C247.118 156.327 248.261 156.566 249.208 157.045C250.16 157.519 250.885 158.191 251.381 159.063C251.883 159.928 252.134 160.947 252.134 162.119C252.134 163.296 251.88 164.31 251.372 165.158C250.864 166.001 250.128 166.648 249.164 167.097C248.206 167.548 247.046 167.773 245.684 167.773H240.999V164.76H245.078C245.794 164.76 246.387 164.662 246.861 164.465C247.334 164.269 247.687 163.975 247.917 163.582C248.154 163.189 248.272 162.702 248.272 162.119C248.272 161.53 248.154 161.034 247.917 160.63C247.687 160.226 247.332 159.92 246.852 159.712C246.379 159.498 245.781 159.391 245.06 159.391H242.532V174.059H238.783ZM248.359 165.989L252.766 174.059H248.627L244.316 165.989H248.359Z" fill="white" fill-opacity="0.95"/>
<path d="M116.737 227.428V224.346L123.204 218.683C123.689 218.244 124.102 217.843 124.442 217.48C124.783 217.111 125.043 216.741 125.221 216.372C125.4 215.996 125.49 215.589 125.49 215.151C125.49 214.66 125.383 214.242 125.169 213.895C124.956 213.543 124.661 213.272 124.286 213.082C123.911 212.891 123.481 212.796 122.996 212.796C122.506 212.796 122.075 212.897 121.706 213.098C121.337 213.295 121.048 213.581 120.84 213.956C120.638 214.331 120.537 214.787 120.537 215.324H116.476C116.476 214.118 116.748 213.075 117.291 212.198C117.833 211.321 118.595 210.645 119.576 210.172C120.563 209.693 121.709 209.453 123.013 209.453C124.359 209.453 125.528 209.679 126.52 210.129C127.513 210.579 128.281 211.208 128.823 212.016C129.372 212.819 129.646 213.751 129.646 214.813C129.646 215.489 129.51 216.158 129.239 216.822C128.967 217.486 128.48 218.219 127.775 219.021C127.077 219.823 126.084 220.784 124.797 221.904L122.676 223.861V223.973H129.862V227.428H116.737Z" fill="#05060F" fill-opacity="0.9"/>
<path d="M140.593 227.861C139.047 227.861 137.713 227.495 136.593 226.762C135.473 226.023 134.61 224.964 134.004 223.584C133.398 222.198 133.098 220.534 133.104 218.588C133.11 216.643 133.412 214.992 134.013 213.636C134.619 212.274 135.479 211.237 136.593 210.527C137.713 209.812 139.047 209.453 140.593 209.453C142.14 209.453 143.474 209.812 144.593 210.527C145.719 211.237 146.585 212.274 147.191 213.636C147.797 214.998 148.097 216.649 148.092 218.588C148.092 220.539 147.788 222.207 147.182 223.593C146.577 224.978 145.713 226.037 144.593 226.77C143.479 227.497 142.146 227.861 140.593 227.861ZM140.593 224.355C141.517 224.355 142.264 223.884 142.836 222.943C143.408 221.996 143.69 220.545 143.685 218.588C143.685 217.306 143.555 216.25 143.294 215.419C143.035 214.582 142.674 213.959 142.212 213.549C141.751 213.139 141.211 212.934 140.593 212.934C139.676 212.934 138.934 213.399 138.368 214.328C137.802 215.251 137.517 216.672 137.511 218.588C137.505 219.887 137.629 220.964 137.883 221.818C138.143 222.672 138.507 223.31 138.974 223.731C139.441 224.147 139.981 224.355 140.593 224.355Z" fill="#05060F" fill-opacity="0.9"/>
<path d="M151.521 227.428V224.346L157.989 218.683C158.474 218.244 158.887 217.843 159.227 217.48C159.568 217.111 159.827 216.741 160.006 216.372C160.186 215.996 160.275 215.589 160.275 215.151C160.275 214.66 160.168 214.242 159.955 213.895C159.741 213.543 159.447 213.272 159.071 213.082C158.696 212.891 158.266 212.796 157.781 212.796C157.291 212.796 156.861 212.897 156.491 213.098C156.122 213.295 155.833 213.581 155.626 213.956C155.423 214.331 155.322 214.787 155.322 215.324H151.262C151.262 214.118 151.533 213.075 152.075 212.198C152.618 211.321 153.38 210.645 154.361 210.172C155.349 209.693 156.494 209.453 157.799 209.453C159.143 209.453 160.312 209.679 161.305 210.129C162.298 210.579 163.066 211.208 163.609 212.016C164.156 212.819 164.431 213.751 164.431 214.813C164.431 215.489 164.295 216.158 164.024 216.822C163.753 217.486 163.265 218.219 162.561 219.021C161.863 219.823 160.87 220.784 159.582 221.904L157.461 223.861V223.973H164.647V227.428H151.521Z" fill="#05060F" fill-opacity="0.9"/>
<path d="M174.79 227.671C173.439 227.671 172.241 227.44 171.196 226.978C170.157 226.51 169.338 225.867 168.738 225.047C168.137 224.227 167.831 223.284 167.82 222.216H172.131C172.149 222.603 172.273 222.946 172.504 223.246C172.735 223.541 173.049 223.772 173.447 223.939C173.846 224.106 174.299 224.19 174.807 224.19C175.315 224.19 175.762 224.101 176.149 223.921C176.542 223.737 176.847 223.486 177.067 223.168C177.286 222.845 177.393 222.476 177.387 222.06C177.393 221.644 177.275 221.275 177.032 220.952C176.79 220.628 176.446 220.378 176.002 220.198C175.563 220.019 175.044 219.93 174.444 219.93H172.72V216.882H174.444C174.968 216.882 175.43 216.796 175.829 216.622C176.233 216.45 176.547 216.207 176.772 215.896C176.998 215.578 177.107 215.214 177.101 214.805C177.107 214.406 177.012 214.057 176.815 213.757C176.625 213.451 176.357 213.214 176.01 213.047C175.67 212.879 175.275 212.796 174.824 212.796C174.351 212.796 173.921 212.879 173.534 213.047C173.153 213.214 172.85 213.451 172.625 213.757C172.4 214.063 172.282 214.418 172.27 214.821H168.175C168.186 213.766 168.481 212.836 169.058 212.034C169.635 211.226 170.42 210.593 171.413 210.137C172.412 209.682 173.549 209.453 174.824 209.453C176.094 209.453 177.211 209.676 178.175 210.12C179.139 210.565 179.889 211.171 180.426 211.938C180.963 212.7 181.231 213.563 181.231 214.527C181.237 215.526 180.911 216.349 180.253 216.995C179.601 217.642 178.761 218.04 177.733 218.19V218.328C179.107 218.49 180.143 218.935 180.842 219.662C181.546 220.389 181.895 221.298 181.889 222.389C181.889 223.417 181.586 224.328 180.981 225.125C180.38 225.916 179.543 226.54 178.469 226.995C177.401 227.446 176.175 227.671 174.79 227.671Z" fill="#05060F" fill-opacity="0.9"/>
</svg>
