<svg width="73" height="27" viewBox="0 0 73 27" fill="none" xmlns="http://www.w3.org/2000/svg">
<g clip-path="url(#clip0_14_216)">
<mask id="mask0_14_216" style="mask-type:luminance" maskUnits="userSpaceOnUse" x="0" y="0" width="73" height="27">
<path d="M72.6001 0.482849H0.600098V26.6647H72.6001V0.482849Z" fill="white"/>
</mask>
<g mask="url(#mask0_14_216)">
<path d="M10.4153 0.979572C11.5614 0.317275 12.9738 0.317275 14.1198 0.979572L22.0854 5.58293C23.23 6.2444 23.9351 7.46606 23.9351 8.78805V18.067C23.9351 19.389 23.23 20.6107 22.0854 21.2721L14.1198 25.8755C12.9738 26.5378 11.5614 26.5378 10.4153 25.8755L2.4497 21.2721C1.30509 20.6107 0.600098 19.389 0.600098 18.067V8.78805C0.600098 7.46606 1.30509 6.2444 2.4497 5.58293L10.4153 0.979572Z" fill="#061C23" fill-opacity="0.7"/>
<path fill-rule="evenodd" clip-rule="evenodd" d="M5.88867 10.1683C5.88867 10.0157 6.05388 9.92022 6.18609 9.99656L10.8464 12.6852C10.9692 12.756 11.0448 12.887 11.0448 13.0287V19.5956C11.0448 19.7482 10.8796 19.8436 10.7474 19.7674L6.0871 17.0787C5.96431 17.0079 5.88867 16.8769 5.88867 16.7352V14.7545C5.88867 14.6785 5.97051 14.6307 6.03662 14.6681L8.78153 16.2196C8.84765 16.257 8.92947 16.2092 8.92947 16.1333V14.0777C8.92947 13.9824 8.87817 13.8945 8.79521 13.8475L6.09013 12.3186C5.96565 12.2482 5.88867 12.1163 5.88867 11.9733V10.1683ZM18.3494 9.99656C18.4817 9.92022 18.6469 10.0157 18.6469 10.1683V11.9733C18.6469 12.1163 18.5699 12.2482 18.4454 12.3186L15.7403 13.8475C15.6574 13.8945 15.6061 13.9824 15.6061 14.0777V16.1333C15.6061 16.2092 15.6879 16.257 15.754 16.2196L18.4989 14.6681C18.565 14.6307 18.6469 14.6785 18.6469 14.7545V16.7352C18.6469 16.8769 18.5712 17.0079 18.4484 17.0787L13.7881 19.7674C13.6559 19.8436 13.4907 19.7482 13.4907 19.5956V13.0287C13.4907 12.887 13.5664 12.756 13.6892 12.6852L18.3494 9.99656ZM11.8753 6.37959C12.1186 6.24106 12.417 6.24106 12.6602 6.3796L16.4954 8.5631C16.6285 8.63889 16.6291 8.83057 16.4964 8.90715L14.5795 10.0141C14.4988 10.0608 14.3993 10.0614 14.318 10.0158L12.3971 8.9389C12.3167 8.8939 12.2188 8.8939 12.1385 8.9389L10.2175 10.0158C10.1362 10.0614 10.0368 10.0608 9.95604 10.0141L8.03911 8.90715C7.90645 8.83057 7.90704 8.63889 8.04015 8.5631L11.8753 6.37959Z" fill="white"/>
<path fill-rule="evenodd" clip-rule="evenodd" d="M34.2667 18.7232C35.2718 18.7232 35.7015 18.7232 36.6942 18.7232H39.2354C39.3083 18.7232 39.3675 18.664 39.3675 18.5909V10.3289C39.3675 10.2558 39.3083 10.1966 39.2354 10.1966H36.8264C36.7534 10.1966 36.6942 10.2558 36.6942 10.3289V15.1309C36.6942 15.5278 36.6163 15.807 36.3295 16.0308C36.0427 16.2545 35.6845 16.3574 35.1428 16.3574C34.6012 16.3574 34.0081 16.2522 33.7981 16.0308C33.5881 15.8094 33.4831 15.4875 33.4831 15.0652V10.3289C33.4831 10.2558 33.4239 10.1966 33.3509 10.1966H30.942C30.869 10.1966 30.8098 10.2558 30.8098 10.3289V15.1931C30.8098 16.4701 31.0966 17.4022 31.6701 17.9892C32.2438 18.5762 33.1092 18.7232 34.2667 18.7232ZM43.5138 18.7232C43.5616 18.7232 43.6056 18.6974 43.629 18.6558L44.8868 16.421C44.9118 16.3765 44.9756 16.3759 45.0014 16.4198L46.3183 18.658C46.3421 18.6984 46.3854 18.7232 46.4323 18.7232H49.106C49.2106 18.7232 49.2737 18.6075 49.2172 18.5195L46.6498 14.5241C46.593 14.4358 46.5939 14.3222 46.6521 14.2348L49.2007 10.4021C49.2591 10.3142 49.1961 10.1966 49.0906 10.1966H46.3243C46.2776 10.1966 46.2345 10.2212 46.2107 10.2612L45.0464 12.217C45.0207 12.2602 44.9581 12.26 44.9326 12.2167L43.7831 10.2619C43.7593 10.2214 43.716 10.1966 43.6691 10.1966H40.8721C40.7666 10.1966 40.7036 10.314 40.7618 10.4018L43.2197 14.112C43.2774 14.199 43.2785 14.3119 43.2224 14.4L40.6015 18.52C40.5454 18.608 40.6087 18.7232 40.713 18.7232H43.5138ZM54.0874 18.9469C55.1773 18.9469 56.2409 18.6826 56.9726 18.2945C57.0274 18.2656 57.0526 18.2015 57.0344 18.1422L56.4783 16.3288C56.453 16.2461 56.3565 16.2096 56.2796 16.2491C55.7275 16.5327 55.0346 16.6132 54.3255 16.6132C52.8421 16.6132 52.316 15.6263 52.316 14.4096C52.316 13.1663 52.9311 12.2846 54.3946 12.2645C54.8973 12.2645 55.3792 12.3404 55.846 12.4571C55.9122 12.4737 55.9808 12.438 56.004 12.3738C56.3397 11.4485 56.3666 11.1815 56.5831 10.538C56.6054 10.4715 56.573 10.3984 56.5076 10.3731C55.7387 10.076 54.9071 9.94947 54.0874 9.94947C52.6534 9.95978 51.5574 10.364 50.7995 11.1621C50.0415 11.9602 49.6625 12.9627 49.6625 14.425C49.6625 15.8977 50.0415 16.9104 50.7995 17.7188C51.5574 18.5273 52.6534 18.9366 54.0874 18.9469ZM62.4039 18.9469C63.4246 18.9469 64.4782 18.8778 65.3394 18.2814C65.3428 18.279 65.3413 18.2794 65.345 18.2776C65.3792 18.261 65.3987 18.2174 65.3857 18.1817L64.7473 16.4348C64.7245 16.3723 64.6585 16.3355 64.5943 16.3529C64.5887 16.3544 64.5839 16.3558 64.5799 16.357C64.0027 16.5354 63.3935 16.7225 62.7726 16.7225C61.6833 16.7225 60.7129 16.4713 60.4115 15.5494C60.3979 15.508 60.4296 15.4665 60.4732 15.4665H65.8822C65.9552 15.4665 66.0145 15.4073 66.0145 15.3343V14.4006C66.0145 12.9691 65.6508 11.8801 64.9236 11.1334C64.1963 10.3867 63.1925 10.0134 61.9123 10.0134C60.3732 10.0134 58.9575 10.75 58.2095 12.1221C57.8305 12.8172 57.641 13.6488 57.641 14.6169C57.641 15.5437 57.8254 16.0376 58.1941 16.7379C59.0197 18.3057 60.7123 18.9469 62.4039 18.9469ZM60.4044 13.6656C60.3679 13.6656 60.3382 13.6359 60.3393 13.5994C60.3575 13.003 60.6195 12.6024 60.886 12.3881C61.1622 12.1659 61.5435 12.0461 61.9123 12.0461C62.3117 12.0461 62.7296 12.1901 62.9538 12.4035C63.1701 12.6094 63.5566 13.0035 63.5836 13.5994C63.5853 13.6359 63.5555 13.6656 63.519 13.6656H60.4044ZM69.8764 18.9458C69.9499 18.9464 70.0098 18.887 70.0098 18.8136V6.38709C70.0098 6.31407 69.9506 6.25488 69.8776 6.25488H67.4687C67.3956 6.25488 67.3365 6.31407 67.3365 6.38709V18.7927C67.3365 18.8653 67.395 18.9243 67.4675 18.9249L69.8764 18.9458Z" fill="#061C23" fill-opacity="0.7"/>
</g>
</g>
<defs>
<clipPath id="clip0_14_216">
<rect width="72" height="26.1818" fill="white" transform="translate(0.600098 0.482849)"/>
</clipPath>
</defs>
</svg>
